<mxfile host="Electron" modified="2023-08-01T03:14:06.000Z" agent="Mozilla/5.0 (X11; Linux x86_64) AppleWebKit/537.36 (KHTML, like Gecko) draw.io/21.3.7 Chrome/112.0.5615.204 Electron/24.5.0 Safari/537.36" etag="pyIoJ6rRnTUXuEnd67sb" version="21.3.7" type="device">
  <diagram name="Page-1" id="Hp-sTfi3iDy27LMypOX_">
    <mxGraphModel dx="-993" dy="569" grid="0" gridSize="10" guides="1" tooltips="1" connect="1" arrows="1" fold="1" page="0" pageScale="1" pageWidth="827" pageHeight="1169" math="0" shadow="0">
      <root>
        <mxCell id="0" />
        <mxCell id="1" parent="0" />
        <mxCell id="Tr0L8EBG7VE9bzAZ71TH-1" value="" style="shape=image;verticalLabelPosition=bottom;labelBackgroundColor=default;verticalAlign=top;aspect=fixed;imageAspect=0;image=data:image/png,iVBORw0KGgoAAAANSUhEUgAAAQsAAACGCAYAAADKDK/gAAAABHNCSVQICAgIfAhkiAAAIABJREFUeF7tXQVgVEfzn9MYMSQkuBb3AkVbCqVIqdBSd6Pu7Veh7kpdKV9dPvqHChVoCwWKQ3F3SyAhRuwuZ//fb+9ecjnuIkTuCjftkbv39u3Ozuz8dmZ233u6k/v2c+1PS5VDpz8rrqY9RHQ6+VeSyyW6A2sk9ud7pH5cHLqh9cMlOOUh7bv7gPt44O/qTOk/nnq8y7sLlNbvbsZ19AF3NSVslDCkjhxV3lOuqsdLqy9bv3bc92+g+n3LVbXeQNdXdLyq/FRUX/h8zUrAeDCnWA5eO1ukYdt/L1B4ZOJK6SRHWvUV/dQLJNFs8RwlaPgaj/cxf+fdlwY+462EypUqV20ENl+AKfeC8MmwBOpeAvrUVqNF6rf41wOFEh2NDn050ukcfD8WYXpfVJnvnjaOqa1S/gJdXuodle1LoOPH0uPwNWEJVFYCemdUgogxorLlQ78c+sI+6bzRosQacdTru3dnAkZfASw5YPnKSMjPxWEAqIzgwmWCKQF9MBuvq7YD2HsA4EBpb3Dxy2TZGgPVXwaM/NZT8cFAIBLoOGss71zFLYZLhCXgXwJG/4fdR5vYiuTqoiOywhQps6PiyxTVO51yc2G2OvZuTKK4dFXDHbPTITfg+nj89UefRMVJqilKBqNML7tNopF3yMaMvMgULesj6/m7xOeYS5yxzcXZuI8KT3SHVos+dwfK0LS9chg450zqI8767UQsuaLfO1d09kJVwmUwi7PFMHFFNRBd9i7RpS0WQb/LklMcJ50vrkjKRwc54N/M7ahnHn47xZncT1wNO4gUF4hu/2LRFRz0uV77ieRrXAtxJfcU/ZYZqMRQWs4IPtqcKa6YRqLL2om654M5Hz7w25XYHvyegmv1aGu56DI2qO/sr6tRd3E27SM6h1V0u+aLLv+AHz4gs7ZoJ6GF6PLSRL9zrghkQXJFNwYPp4mYY0SXugafZZ66/VQTPnRcSkAnZ7/okpH3+Emw6eT0PSvkz1cGyIcXfyATB11TRgAxljxZOu1+Eb1Bel/wohRHVMaAS6tILsyRlV/eKk3WTvMr2GH3LZbhAKurfn1ZGm391W28KLl1wER59JwnZWZMfb/XKXdh9mvS6sBfknHm0+K0YbC7AEhR9aXhrCfFkLGqzOqDteMFkjngOjFl7RZ7bIpEHTkksT9OxCXFkj/ufSls2EqMOfvFXr+1JCz/XEyrPy1pl9l7l0EnWTcuEJclR/TWPJzTiXnPUome95xYT31E8juORN27xAmQEwBK3BcXiY48kbyTmo58KRz3rgKo6BnXiRg88nQVS8EFn0ox+DCAD0eDNhKz5DMxrZziqcKzOpPUTfLOeUnEmg+McoirXkOp99Mk0e9bJI6UHqjjHYDlAfARKXoxSL3/ngu8sZfK0JEnxWPflKKTThNjxg5xJDaTiC1/SsSfz6oyBVf+T12rsxaIM7GFRP/0kBh2zikLaqW1HdO38GrIMYmtzi4q17NweWJrl/cs52GtyBwtH577tPqVgNnrehiZtwcysihXTrZZZAo8knRThIwqyJauDrvkos5Z8Br24fipV34oJtf70nnfGvnuzdPlvxe8La/0v1jVeRgD/pPpk3DeJeOf3CGb4lPkxrUz5ca/PpCBe1bKzM5nlCska/tR4rIXSfL3NymjzBzzqlhOGikxGSvF2WSwiMMi+kMr5EiXsZKw6XeJWvqmOCIT5dBl30h0qzPhCRyR/GY9JembK0Sfs1esfW6Q3G5nS0OAhSuqIWbpU0S/AyAGr4NySvjpHgDRFoCnCc1hlo+IE2ubIVJv2X8lYs234oxuINnX/CC29meIecP0o4zMVa+FWFudIrHfEihiSvrmaH2mWJv3kvjPLhZ99l6xDbhFCnueI/ErP3LP9i0GwxNBvV3OBs+FEvfV1bjWJfnnvyO2zmMkYtfPYjnjEQBNqsQAqFz1mkjedSjf6xIxLp8qzs4TRJ+6WlxwQCxdRkvMb0+JcdPP4uh6geSfca9EzHtF7O1OF0ej9lLvk4vhNW2RovHviHXkIxL99g8iJuS8wnRCSKBqsYOXSKIxMO+fMUnu+/5xqVeQJY8+0lzu/PGpkhJ3zHxGJuGYyW6Vl7bMlylvj5dr3honjz3aRab+8QYdY9keESObABxZEZh1QcWYuTZGxqmPAQCkx+xuRDkT2tptNMnDPc+WUdd8LC+0G1ShcooSUiTm4CYFCuK0Skz6dimq30z9PtL/WsnrfYk6XoxZ0pS+Gd9toi88JCYAg7NBW3E16CCG/HQxZCN0wTnjwbXiiG8KQzZIcUp3yRp2twIEV3SSOOFdWfqiziu/F8uA28Ab9nzYiiX20zMlYu2X4jTqxN76VBx2ivHwTr/uu7P9aNFnbMX5rbi+NAviatQRIcEhMWRuU/waYNiOePQDbdqbdJe8EeAD8rLFJ4s5bSPChgIVOpjTd4iN/TXHKW/EtPlX1Q9d1gb0aR/4gQxdhZI//E5xtOyPMKUTAMMoxo0AAMpi70JwYRBHUkextxwoeks+9rEswTm7mNb/II6YhuKKxSpamE4YCRwzWND5dRowixqMsh+rD3+cdq8MXfY/SYA30QDhw6lLvpbZw/8jjeFNXPrXe2Jpe4r0vX+uvPnQ3zJg1mS5fstfbqPwSh94Sz0Nnses7mPFnHtIZrw8UrZMHiVTADL9bVaJQgxfETmNkWKwF5cU02GQOxBviyFaEn+6Q+JnPwqDixSXMUrEBtddcYP/wL8ToYAgbNDZuVeDSQh8VOigF5c5FrP1X9Lok/GiK0LOxlRPDHD9nahHf3Cd5PW9UqyD70NZAIZEiqPDBZJ94zzJPeNhidk0S/Tp6911lnDm/mJp2l2i0gBaHm+u5DRzBORDO47cB/MQBCrTjrmS8NE5oivMEhdDBIet5DIdQxH0wWWKU8d0hZnqOtUdhExOhGXicErclAvEAE/HxXYAyiWhEduhhxSFfBR0oUM+x02oAF6j4gc8hOnEkUC5YUhVxLCm/yUy+q9X5bydSyUChhlRnC6r+10svTAA621fJtGYtVasmCYGhCNGDOKxB7fIlE7DaVMB6QZ4Egub95DBh3dL0w2zZMKvr8jlM5+Tpjd8Jg93xf6Q8sjH6Ernalzk8DIKX+PE6TJl/fxWyUVbLsq5xHBgsSR+Pl70+bvxCzNzfrbkdxgmEfNfVNwZtv4kifsXiqPFIDkCQDUguWhUsT4NFy0xb4HQpbhZD4n6+XE/PfLlxlOEcmMuxprlOeCpy7sGXuqnf6qIVq0VIKJ+44DfptCQbx1arqUc3bkrDf97PEngmD0LXyHMiUuWw21HyGX718gV+9fJ4Y7jZFZcY8zFGGsY1AcxEGdgkP1fdLy8es6j8kuz7uUCRVN4JOMR3uyOaSDXdxwmE8Y/LwOeXicF0YkyAnmLikiP2dgJr0dbRmSoYIDHo5F2nMlGHb0LD7mwT4NeiOB6uuUl5Cmj86qDxuWqB1c/OgV7VTBTG2KRGziAWRrJSUOkONuNVZ6LPh/hzZr3xICZ36bc/1KPR1w2Ke5xEc45kIz83d2ct3HSo0E/SoiJUiKsliT1nFDeh3c59FdXjP7Sa2IiNiLWDUy8Gt91yjsorZZehQueonv1BMfZDvjQIZGtsxxBn9yhomoboaMCOY9HVlpL+NvxLIFKgYVyb2kkJR+652VpTr0GktZhqPRc+6t0WD9LdrYfJIuxYrEB7nFhq15ijG8ij8DT+LX3eRKNwbYzNgkVBJ6auudlyIvIc7w+/WHpm7lH8pG/aJO1DwlPeMGRGPgVUBTCl8IkLFk6YZj4cFUjCkk+RU70BfE/yZiLlY4GWDZFnO5CeGNLaI5E4m7E9tvFWa+xis15zoncgSE/Da4+6qNnYXcvGztaDZWckQhpVJ02rJo0h/eUDvffLDln/EeKu1+AsnnIbbRQYRtXJGDVbj7UvzYp6n2ZRC7/BB6GZpClp3XIYTjrJePTSPHsaNxJ9Ee8+Cg+rAqb0N/ixugvVjXEUSDFDVpgFScVqxfZYmAfO4z08JGClQ6c27sUbCAsK0Y/XHbRHd4CbEAepO0wdb0rpbfSjj5jsxixuuMESLsadkb5PLF3HCP6ohzkUnaXMhr+dtxLoNwwROex5RumPSDX/4JlORBd73wYQsrD2DPAmFabnjCrfQZX+rVfHlPlPjjrERQ2yKLYRvLbwCtk/MznZduu5QhPCsXRtIu8etLQEuFq7XiDx69xSbJ82M0y+s+35O8XT0de0Sg2eBvZLbrJjLGouwKK2D5bck46XdLP+QgxPxKZSZ0lftXj8BqKJPvcT0RfkClxs++VhM1/yGEkPKMSklGmk0TlHUao8BsMxirRmVdL5oRPJSJ1lViQ5ItbhWVe9Lm47emSd9oDkvjVJWLYMUt0fS6R7Iu/FcORVLG0OVXiF6HNwsMSvfZ7yet/HertKI7YxirHEbHmGxV2aORoeSZ2YziwQsK9FV7q8IQohp2/ijnzOsm97Gsx7f9HbG0GS/SKb8GHAysrI6Vw+EMS+8n5WMH4RYo6nSF5l09XeRd7SleJXf4w0DBBIv98UfImvCeuS6chGQqghRdi+ucrgEWE5N08V6IXfCiGdejn1rlSeNbzYuo0WmzNe0sEciz0OIybfxH9oIlSiNUqApWt1UCJ+WUSrq/acnkFKgufDnEJlLPPQqQ9XNUHs8tu3qHnasFAviOpvTyHGZ/0YIOWyuVPxMB6BfkFYszExu3FQbeWBAO75vAu6QejzUZg8nV8Y1mHmUojtvMQ2pkTnSBfJDQpOc7rJqCNARj89VDrIVz7GzaALUR4E5BoZNhn0XbD+5jlO2GmxDIodxbsniuGQyvBi0tsnbASUpwvxu0/qWVPW5tR2DzVSwQGbtoAI+JeBZALrryt2xXijGuK5OV6MW79HrM7NloltBE7lmaN/0xRyUcnEn32bpep5VH9/hVi3DETVxtgzzDak84TZ/N+CiiM66ZhM5Tbu9F8KuvQB8URFSvRv8GwPVTib3lyAy6DXuy9bxAXVkH0aeuQkCRYYANVfWzC6niWGJa+CwcF+x+Se4uj0zh014DlVCRT9y0AAEEHkKOz5RBsHoN3Ae/QuPY7bDLbriIJ+6A7xbBtjujS16JvAPI+E7FJrTM8q11iXA1ZeEINbhizI1zi5jPDznmi3/pzGdArYb4aX8L7LKohvDq4tFywqIP2a74JDSw2fqQMShmeZnRaa/6Oa8c85Y+6zt951u7+X9VcOtjd5u5p1quPpYU1QKCXYjySjlWSdSXltHMa36Vsl5zxqtO73TKHvfgpe7yi+vyXDtxOoPJVPR4Gi6pKrG7LlxuG1C0rtdiax6WvqAV6Tf7NsaIr3ecrdb1PIfN2JjVxkKsjR6NL2YYr2Y/KcRsuFZZA1SRQqQRn1aoMrdK0TY2O+k7jKznpfVaZb7nk97zfg/6rKSnK3bEEijCFJRDiEtDzPoIKZ7QQ70QZ9jg7B7g5LVA3Kmvjfsv5PehuyRuLyrRdzjWBeAwfD0sg2BLQxx9cI5Lv2ZgTbG5qon30JeLAqjKegbJNj+VWZKcVnffHovc1x3K9vzrVsYBoE/CK8ImwBGpNAvrWjs1iXjwVd27hngVtgHKQ/ts+5B19MCyaKo3S55f2pRzRVdbIqwMAZe3dqyZ/lYbBoRxthU8FWwK6IUOHunJyc2RbWqFYLNhsVJ0MX3V6g+VBs9kkUSYsOaIeRhOFxbifoxgbwipK/LFdGJ9RZ5OGpjyJjPLsclT1uDuk/vX7HWfcJ0vLau3xOHZ0co+HVo8TIY4T96e4sJGJF5YWVVy76/Lh11M9OQBBxh7y162jVgS4AUwrz7+4iDtOdbh/pWR3KpZzeUs977ItLUze2LI/VHKXcp9X3FWK/PFb4YXYBavH7k+dV17GiR2yLixd+461Y6q/Qgb8F9DjJkad1w5ddacwd7FWMYT1X/uxHdXx/h4vvVI/Sq/YOhAs0nEnsEd/Rgc2OuXk5EqTSyZJVCtswQ7S7GbHZqisH9+SuJztEhUZKdlZhyXu9Kskvv84GAf3CtS9uFzYuZqz9CcpmP2ORNeLl2Ibtms36yVJ594hxljs7AwGYQAV7l4rhz66XaKiYpRYLJYCaXzD27i1Pnj6CyQK6vXgjDfEvn2xGPV6KcbDlOLPwYY26lXbhxPo4lo6Tr1mQ685378oZuwmtgNsje0HSsp5dwZdr2kf3IpJM1L1vLjYIikTMfaCqNcS/W1bJLrWnXu6Ym/7VCKT2wQNKLQxwRl7z0uXiyltrZjG3i9JZ14D9PfeGl1Lo6ecajnTHJo1VfKmPSXSpp+0/c9X2IAZ5GeWAjCKDu6Q3c9gKzmo1aTvJCq5bdD1F0iM1Ou2Fy6V4s3zpdHlz0njM68NGb1mfPGwmDsOlfYPho5edz59vhJlm0f/LyT0qulPX4gtwhGNmofEQKMRNjz/Pkk/cEDqD8Kt10EGCiqMPDQYdK7kZmdL8gUPBB8oFFO4+b1RC4kacJ768HuwPMJAAOF9nHptMuEBsRYWKVmGkl7JE3kL+gTgpdeYgeOFn1DRK2WTAhkZ9TF4EjZnyroMGMsZYab6ycJsgCkON06FCJEXZg7IW6gQdWaA7kihpL9A8qHslAzDeg0kohJdhqJezdBfCO4GCpyQK1fKdXIylHmrEwFUo5FQll0o81YNkdfopTo8raUa1CpSJ/wwybbb4pI9+JD4b0scb4dPMX6sLXDKEboLdUBsu4FJJ33r4UG6dpcsz3PzFI/Ux8mxWHHxgsc87Ef7O7d0taE22YuDpLtF6yUS7W+DnPZ6ZNUp2i1DrW0O27Xgeb+t7jO6g+PcwlmY55TmkGEXyPDPHNxlWzciqpT4k8w6ocwopw0FLsnwyKkfdNug9GZegerlH/Qjsw7GHTXVPALyAl/Z4Gdpvvte7IYch7FlgSgP/Cw44ixnjapSYqhUoUD2yYs7gFfyTBtYk+8ULoRWRMcMFmc01MtNPSIkuZ57gKWhwfdXW+X3TKf0SNDLEycjzsE5O5hYfcgudy6zirMOxn+feL3c3s0snRsaZH2WQ5bPdy879YQhTBoUKSY8jdvmEcx+8Pz3XK/lxoqkdYzn0aQ8D3l0bWSUCIBWKgbxoyussh5AdXkns4xobpRCKI3EofXBSot8neo5cIxtVvUyrmze0wfhKBhYOq9IRjYxyA09I2Td70WyD2Bf13Mvhwo/3q5vAwzuyadESkuMLx7fleOQWxdbJQcz0h2QbzvovsgjtiKgxctLLTI3qxJWUAVhOcCUHsLQ5EEeRyUb5MbOZmmGMbYx3SELFuIRACgwOMUgD/WOECtY4HWkfdkOmfs3zlehzYqK+pNVIPucBfu8sKlBrumK/GCUTooAXrN22+SF9V4PZArQ4DGDxemt8CAXCOQGGFsToNSzUOLgFiaZnWmVOyG4aDyk9q6/iqR7fTAG4x3TxC4/HsDToAIwUlOHb+tpluwizDj4eKdhomCkeiQGP1hnlWm77HggsPeOh5pq/eh6OFTPAxj0bGyUqWutsgkz9eP9I+UuyOjaxRaJxqghaF05p6jEODxOx9GV1fIRJwSmvcmtRHZBymUNamCQ9gCFT3dgnw2IDsTNJ5mkCWbqFwECHHt3A9wmtjfJsxjo9WCdf6fa5TGAMInGXFSzOKHqfQBj+Y89dlkDwCd1iNHJNQD8A4V4nik8aT7hhUSxxYMnGuOLS4pkHkCLPPGqmgQK1ncmwKo5JuYvduGpax6wDGSfS3KL5dIOeMgTwPTy2UVyUVuTnNvOJNN222U7xqEGgqoTPnTMtvvexmKZCIRcgdmxkD4f6Ai0kwz0bwjwyINfsxCGsfywQ44A+U9LNirXsLbpEwyc+5dbFZp7UwzQwYTeJsfo5UWg/f1dzNIALm1tE/t8WmODHLG6ZNlheDKQSR7QoBEGGV3qGDBFXm+BAl8CX6Mwo9eB51zb3a52/X0a6GV0q9K5jLrrDgDJhewWwvAW45OD773h4WL7hsTCArGvTx7sapbnekVIP3iWtSHHC2FY3RGeaZSBsf3CP1Z5B+NO81h5jkM9AfolAHfFREHdTgTYOWp4yNFjOSXJIONaGhFil1YeyD7bwTZjYKM74JUxjFt90K74HoIxWpHnX2nPgsribExiDLu30G35f4+NhqJ0Mu+AXT7baZcE1GgA01ZYCQ0lD72xA+3ofdQ00FM2Wg6CSE6jmw83yx8xV8DyozDLWzBNxUXppS0G5PUIU3yBxd/1VTlGnjS9se9JmHEYjuVDFpSdDX8jUYiyisGnJWaF+OboCwTcI8WImccqX++vjaFelV4Ep+wAuPKUS0PIjGNuVH38A1qBgW3EVzyQXAoxqvHONfVyOIaVsfBio/DpjTAvH5NUFIy0Kwa/MAwJMB6q0rtk1NfTCyCaAOhHg6/9mADWga9sTJidPeG4Vi+tIx4ARr4YZjrBc68mRjkpwSC3L7OUAZaq8KKV5fgaiDxNDLpJUKJsToMnZoHRMVcTyD67gHfK9TAcMO5gYg6lGONRs8/ydjVVGixuASqe3AhbP9HAl5uK5VfMkqQZ+N480SD94Aqd3cwgfx9yqCV/zYnQvNia3hjK+ttCQY8h7CClww18bI1NCgK4L6uh0E9WWWUjBPl3rkse72qSUa1N0hcz0ALEmTUF+PQCn+mOxw5CkaRPtuEdHJ7KNZmoEyDK5MctxQLckmmHnNIWMeQ7p0XJoBbGExYs7uwbIa09sqOMnhzqfpjybYsCb3mmpD9FviwTs/yMdKeMbqyXR/tFSn8A79zMimNxjzr8/uEoH4J67uvlHmcsNB7x/nj8XZDmkPsASP6IE+vfAPw0zOCLspCwBrC8PxB9S9RLN4zbf5DkrA4xzL+/X2nOkHU9ipwcJ6OnFxYhHeDfPnfBsy1jnx4mvJySgGxVGixigV71gfYc99GAnyFIJuUAkd5j/I9456vTo+RMGN8vyEvYOXOiDPoj9SA1ot5B5BDc5hOQlyqfIELWh0tFKrbrSozSX0WpGDN/ZThkK/igu7U7G8JsjZUTXE8jrimwUDMKZeXhKwr9T4e73A63q1AWJj1mSMjGDia4QrQCfBwBwhTA21mLTzYGFa8/UWkikqscN1cilj6lqVFume9OQHPRil4FZReNkc3BzfCjGDKzQpZ/AvAP4zseki7zM9yGElNq38csTo7ZH/baZE6qO3fyy9gYeX+FRX7EpFjeCgKv2wyvYzfGG1cJmT85iN9JeGxpvfKm70pyyvFyJXKCHCl3IfTqgRDtdgAqUwIcV4Hs80WE6DbIiCE4pUReTBBmZeyz0mDx6JpiwThWRI/ruxFRAASd3LmoCDMj8hQAkv1YMkoDumermFwvXVGwB9y1OBjO/IMONQhqiljVBoygIUjSkFg3Ih1hclCx6fnLaIljZjRyAZchEfX55mL5CTPCyXAJSRuJtOpbzRBrvWKptSQ/A7GoUKMXcjZd4SYS1etF6OUA1qw4uCefGqXyGf9ZaZXBkFUjXLAaA/9EpVxP9MUBTVDPdNuoSnBuwkrCoGZG6R5H0NWpcTUHRpuIgT95SJT8k25HstMml7d26zatmrO3pgMu/2t88Bh5035zrNEu7JoLje8wAzUGb0MSux10+t7aYtkDz7cV9F+E/tDLqC6xBsqKcmGIy+Zz8Dsf9XM83w4PzZ997gB4FaD9NuClMeTXDfkOMwBjIeRYkXdRabDgROmZLFU/p2+2yXVwtz8fhjsK8ZtLVb8ycw2m39lok+f6R8jH8Dao8E2ZDvkRLllNexZs17M1oET204ZFSQMYXCKYbQwXaN6YaFmALPn07TY5G1q/pXuE3N6DeReXTEeIsA1hSU2CBRkhaHlXOmOfXUYjAXUrliKpEM4Kb0FGnCnpqk5AiPfLmXxPvEgaliln7vRYSEmvTrwv+dBVFgxMIy5FvrPFJj0xuJ8Z6A5NDuP8ezjG8GMVgOJUAMkIrMgx6bcdy+Y/w8utacrAioF3qMsJcRLCAXqScQCtWORNlo4xyJy9dvkfliRfbBwpT2GlkHpnPmEGxtx2zGA1ZQscakyYU1a0NRL/BLJP7gP5DnZ6HbyRmaOiFcj9Bj43V2LvR6XBwlfoTMDtgKF1g7VSkWvQ2BLM9GR+KRR1L9aaByA+y4eAfkMcSQXWBf21E+8YhcfD5jQQ2Ayo3wgX8G4sVZ6OpGYcGN4Bo5xTA8mvyvSJceT9S6xyZpJeudALEXqs94DUBwCxTZDXSfDE6E7PR5Z/Rw0OpsrwF4plpiC0fRcfBbweOgSjuAMrcMOxAkL9/oFwg0BBehaz9xLsTWmJvA8NYjZyajzndXlpRdX4NhSeLFRV8uaXDMzSc6FDhubeY2497GEldHnrgiIZBDtgOEobWQDdH7PR+eGbHvUrAExOL96yCmSfBKnPsfS7D+OvK3JDh8D/LITnlTHPY+abSlgOcODHl8jQWgiGn7qmj/f6n03IUxoG25e1MNtUpo9cYvtifylv2iDmbPAXQIsfjWpq1qkMX6Fahkbgb3AyB/DxvqN1zBWtX3zCt5oGCsrK15NNBzB9CC/CHzHJuR2T1PaCUn799cnftVU5xsnad+9GefbJlMkCABk/VaHwuKyKtI7zsnyYjrZqVbJ6VdPLWMe5DI/n7tUG0B3P8jpu+8YHcl2FlQjOSNyk8ylc1e+Qa8nFpFgbM/RxK8jjuGPYLYLREKQtvf7kyqcYkVx49Jr3Y8/8la2rY+RF8eThra7aLbcd6KzkEXA1pD/k7kqIWXZsEagxCuu1kqKsBb1WsuVyi1F/etm7TuxHQuXp3i7JXTlL4hMTJW8zXtwbEnMatq5vWorH6sVI7gq8A7VSqaBy5V4jJ6kz66416hM6+gvUNZfkQHbmSLOSZSjplTyRt7BeA+mOx936M3RsFPlEOhZn+XALYz08TIW3HzJOreOPA89mzIbSrDOekUYNG0rmvt1ibNhU8aVFdiTbAAAgAElEQVQ8jDrmh+3Ro8jfulzSf3pHYq1Zkr9uLvZut5UI8KU3Y/kuCDxRcdZDuyVj3rdi/esjcR3aKraIBImonxJU/QWShabXQ1PvkQg8sKcg+7CYGzULCb0e/BEves7cJ/lr/xRjk44ho9eC398VR+omvAO3ftD1WqK/j+8W3Rkjz3A5cANDTqEdO7rcS1LlYUxtneNip1mKJTrS/XxLBzb+F1oduPHGFLS5nLG63mlFVt4haWlp0hAgpseTvh2GKLxQOXi5YR1ATG8vxA5Gt75cfFmzEfs0vJ5WXVt6qmq9OiRDdLZC+IilMY4TT7AWQ2RQ9Sp4abUeT87WiDsfXCbIMMh61eEF19pT29XTvU14KHMQ9arpr9iKnbVnjT1Lxo4d63lsfFWHwolT/plnnpEbbrhBGjcu5w3uJ444wj09wSSQnp4uxuTkZGnbtu0J1vWqd5deRevWraVJkyZVvzh8RVgC/3IJxMTE1Niu03+5KMLshyUQlkBFEghe4F0RZ+HzYQmEJRBSEgiDRUipI8xMWAKhK4EwWISubsKchSUQUhIos9177969Mm/evKMYrF+/vloxqSsiH6tWrZIzzjhDoqP5kuPQoYKCApk9e7Z069ZN2rVrV+uMZWZmqvYuueSSarf1999/qzoGDx5c7brCFZx4EijjWdSrV0+Y9dQ+XO99+eWXJT8fb7yugK6//nrh8kpN0OHDh2X69Ol4MWz1HolWE7z41mG1WuXbb7+VgwcP+p4q8zsvL0/uuuuucstU5iTB6dlnn61MUb9l/ve//8mePXtKzmlr+H4Lhw+GJVCOBMp4FvQgxo/n0wXd9H//938yfPhwGTdunDpA0Pj999/V34iICBk2bJjExsaqmW/RokXKiCZMmKDOL1++XOx2u8THx6s6SLy2T58+0rx5c6ER/PHHH9K7d2/1e+PGjfLPP/+IyWQSgpZGDjwnbcmSJbJr1y61WaVDhw6qDovFoq5v06aNrF+/XgELZ/uePXuWXFsXX9jnrl27ypo1a/BQVqfi7+STT5avvvpKZs2aJZ9//rnyyth39nPHjh0yZswYvAE9SubMmSPZeIeq0WiUvn37lngqq1evVn3ipqtmzZqJweB+DtuCBQvUsUGDBqmu0VOgTPi7qKhI/vzzT1UfwX7UqFHKO5s6dars27dPBgwYoOrhRh9SYWGh3/bpybCezp07q+upjxEjRqgNaWE6sSUQMGexZcsWee+99+Tee+9VoQAH2ZQpU1SYwkHPAXjTTTfh9fBmadq0qSQkJChDZbmnn35aOANzX8LKlStl2rRp6jdnuaysLCVxGjeP8zc9iauvvlodT8R9IV9++WWJVnbu3CmPPfaYOs62brnlFjmAFyfbbDb56aef5LXXXpOOHTtKixYt5JprrpGcnJySayv7hcD1/vvvy5EjR9QlBCgaJgGqIpo8ebLyvrp06SIpKSly//33K6+jR48eqo/9+vVTxvv666/LG2+8IQRkAu27776rwI58s11el5GRoXaKUuYEWhoo+dIMnGBKA9bI+/eHH34oc+fOlQYNGije3377bWnVqpXigby0b99eVqxYofRBCtQ+ZfHAAw/Ib7/9JkOGDBGCx5NPPlmRGMLnTwAJ+L1FnbPTww8/rIyeMxuJs+bZZ5+tjJafTp06yddff61mKIIHvQHOqizH2fPOO+9UXkP//v3VgAtEnBk5k40cOVIuuugiNZNxlmQYQmJb//3vf5VRkWbOnKnqi4uLU7/POussZQy5ubnqL0GObVaFCAo333yzAqG7775bzdjnnHOO+kvAK4/o4dC46dWQ7rjjDmWglElkZKSSCYl9+s9//qNkwhCFwMt+E2hPPfVU5XmwfQIVDV4DTwLQeeedF5AFyo86YH30ZLhp7JRTTpFDhw5JUlKS8vwIFI0aNVKgQ8+Enl+g9glm5I/yIMhR52+++WbA9sMnThwJHAUWnLE5mzHEoGusEQfl7t271azDwUxPgbEwjUWb+fiX26EffPBBNcDoMZx77rlywQUXKBAJRAQnggKBguS9S5LtvPTSS8ogaHycNTmQNdK2X5M/eh7kv6pEr4BhE/MuNGDmXgiEmrtfXn0MITTgYjnySNJkol3LEIByIxEUWrZsWdJfHqPbT9CinGjcGrFueiLlUWpqqpIZeSHR4PkhkQ9fXlg+UPu8jsBCoNCuL093qlCYTggJHAUWdGUZf9Ot1QYfJUEXmfdHEATobfA3y/kSjZaz/dChQ4WDkvkGeiiTJk1S8bU2cDkACTQktsMZVSPvhCpdd66K0HBpiAwzvAc/66wusQ7O+OwzvZJffvlFRo8eXd1qy1zvzSdne4Ye3n2mZ8T8DsGRoYA3BUr0UoYEIXp1vvXxt3fux7s+f+W19lmuJmRao8ILVxYSEiiTs6CnQDecIQgHDN1R7cMZm64twwF6AFze3Lp1qxrYdG21Qc5cxosvvqg6x7JMRjJO5jXMazCe1+ribE7iEiSTevv371cuMmNrjdgGQwHOdJzxGaezjLehlRSuxhf2gZ4U+8jkYHWJ8mOdlJ8vr/QCaLAEU8qPeRvmgigHhi3MZRAUeS2TxxpoEyx5jPKj10bZEDh5fw/r0+Q3f/58FfKwLL0tyov60cC6vPar2+/w9cevBMp4Fkw4MqFIL0DLwLPrNPTPPvtMrrzyShVLc7AxTJk4caJK2j3yyCNqwBJkuFzIQa2Vo0EQPDiYmQdgQpDAQK+CszkTefQatDCAMbq22kFDYOLv9ttvV4ZM8Hn11VeVp8K2aITeLjKNyNflrorqaEyM88sj1k/D09rhjOzdpvab4QP7de211yoZeZdjO0x4anLbvHmzkjllyD5ddtllagWlFRKUTBpTRiSCGHNBL7zwggIQylADItbHEJGATCChzOmpcHWKSeHbbrutTEgSqH0mWAmYGrFvDJvCFJaADkt/rgsvvFBJgoYXyNgIHt7nOWtqhur7nXV418Pz2qymXaP91s55162d05b6vK/hOf72vZ7803B4nHXWNN13331yzz33qBUPrX22wza1Pmg8aL81Q9bk411OK6vx6X0ukCx8r+Fv7/56ezC+cmU577Z869LKU29sX5ssfH+XVBL+ckJJgJNIGc+CA6Y88j3v7X14f/cemN718bh3Oe9zvnVr5/xdE6iOQMfL61NVz/ny49tmIJn4lmO7/o7xeCBZlHdNoHNVrcu3f76/qyqvcPnjRwLlo8Px089wT8ISCEugmhIIg0U1BRi+PCyBE0UCYbA4UTQd7mdYAtWUQBgsqinA8OVhCZwoEjByZyQ38ARaBTlRBFFRP7kxKlDitqJrw+fDEjgeJKAbPWa0S+3087xGGYue7n4F+M2TqkyZYj6/sfymkXdZ/9e6jwaqr0w9nqJVPVZe+RJGPV98+6+d52azRx99tGTLtu914d9hCRzPEuDeHR22UrsOZx6W1Oi24oznhqTqb58uhYoqiM+Kez/2rpQG0XosHeqw4cgqmRHJ4kw+CWuJ7lu0WVuFdVdYoFK1uOXgwqavA5slOnOb2gRlwMeqx8N42vQVnTl4D+Vx5RwU145FJTs7uRlN326Q6BKSqyDwuinqgl4d25eK3pKtPDMnX5eZ3FkMTXCDnZde64YbTyvgwZG6RSRtI15g5Y7EnZGJYmjXX3QRwdOrE3p1buNjCNzjnbLStx8i+iDqVdOfq+CwGA9nHJK8UQ9L084DxRjHG52qDxbHonhncZEUHdgqB1+5UBJjYySn7TBJOed2iWjUHIMMz2E4lkqrcQ2l4AJYWDP2Sdr3b4pz1Q9SmF8ozSZ9IdFNTwJY4I1kQSGXel1h7saFcviNSxUHDe/8SuI7Dwqq/gKJwgW9FkKvOx8bLUaXXSKHXC5NzrsjJPSaOuNNKVrwBV5kZZQ29/9fyOg17RX3U9FS7vs66HrV9LcD+jNI9zFPNBp5rfvVd0rjNMu6/+jwpi9zQmOxxzSUVLyar+l1r0gUjNINXnXPj1sGOjHGxKtX7aX+8p40vnayJPQcLuQ1GDLS/Cp9RJR6rd0R3Kqvb9FTks+8Luj6CyQPTa/6+k0ka/F0aTnxjZDRawT0eui3D6TJxLdCSq8FOZliahUaevXWn1HXuK0Yot3Phgg0O9Tl8Xod+svOvAKJbtm1Lpstt63oVl3FUlQs5C1UiDozp7RT7ISS/gLJJxays9mcQlmGCpEX8kTeQoVCVa8c+7xpgzcYhIqsSuPYIL5z8ihhaLwEK8Y+iiEc0PQWavrzxyuPabIL6zWQhNzHQ1SvOujvqOdZlN+TsmftiA6snmRCBPDG6IU5PGfBB7lKicSnLjd08DE7+fjH7GmbXPNYIf7xfgQP+Y2uI5xku5SHEx/KQ5NVsUdO3pKNwXlDLfOl6Y5PESEvfLxOZdrUAsK61Ke3bBweeZGPKC85FeGAjQc9RPHFgMm64pPyLMTHhIbJF0kbhyVM4Utdjrny7JPjjrZLfjgeKzPcjhksmgIdru1okgHJRiWURWl2+WSLTVLBQTxqvbWzWU5rapQCcPzNJpt8u999m7W34GrjezwSyeNbmeSaTmbZlO2QiQvdD9gZlKCXx0+JlHrQJvmlcPYBUS6dW1QbbJSpk21d2twoEzqYJA4INnefXd7aVCx5EMnTPc0yuqVJqFgSB/d7Ky3yZWrpw4BqkkE20w6j+VLw0r+xQWIhjwyg2B977PLlTpvkVdDsyGSDmgBmpVVQsCaZ9tRlgnBuaWuSMW2wMgUeftxhl4+225TsvhwaKZ0SDUIwIVlw8MWlFvkzy3t6qD5TrN7XsFKg0yvamWQs+Npy2CFXLbYq0BjbxCiTTo5QE4SHLdmX45ALF1jE/Uy46vMTqIZA9nkA9tka6HBLN7P0STLIISDclHXFMgd8V0THDBY3dTLJsBYmmbXDJjEAjnPamKQY0P4CgOFuAMUwGMC8XcXSEPB+a68I2QTDXJODW8sr4qia5yehrTYYNDbs9TB4TSsxAJFI9HZhql12eAST7T0VVbPdQJdzkPSp75bB2oN22Qj3ZlRrsxhw4jEoKQ6yOwI+pm90v/aA8lkFOdUWRUAmD/WOkLaJepkDcMjGlNwVgH91F7MUYCB9vtcN6trMQ6PkTEm+CsDzZR3MsjnLITMAZrXplTVHow2j9LIKbZH4LwH3UkwCi/fZFD+X4TuB7n8A33jIcecRpyzY5X6sIlW7lQzXMA2BgW2FftIpIFATtPsUAKFxPQiWd1V7xhy3GiXCXWOp2TuK5ZCHl2zIuHQjQPWZY/3t0HaCWWR1trMELAPZ52uY0B/sZZb2sBHq/6RGBnmgb4Ss/KNIciuwh2MGi78OOeWPNIvMO+SQxhDYsBZGqYe/CYDM7g0Nchjg8AyAo2+cXp5sYJBxUPTK7GKFuLVJqRj8b60vkslDyi5txmDUGzElroW3sQtCtQLuN9BvrGXirHdWM6MU4cvnW22yBnLpnGSUnhh08ZBVDASSiQG/BAAWDx73YDDt1WK7WuAtAe01giHmQk4fYGY+iLYS9zvk9BSD/JPpUIO7A1DgOoBHt/oGBWTfbrbJnxkO+XKgG2TaQqdd4Kldu8gitoonpGPqxTjIbCA+l3s8P8LnGIyhrCKnvAl+6D53wEAf19IoXwMs4tCv7Zi1/8l0CgFxG2SqGfQxMRDgopcGRMo7y+D5eTyrKFj+AtjAuvXF8gzOaUQ5JsDjsMLVWQPvJhtjLRvfN+JvTYZGHF8XtTZKb9jc1X9bJN9j8IHssy103zzOIDtgB09stMllKU65q3+knAaPcQbkWB5vlQYLb7Oivf+OGZrw/mZvsyTF6tVsM2s3Hl8PpZlQaz4G4xEUyQACWzGg2mOA1cZ86cvXyxuK/SI39noJ3dhL25slsRs2fUFxf4DfZ6HkmsYvb55oSzSuYsoCiszBxGeHhqPhCjaCrBgWpcA4Xz0tSn3fm+uU1/+xymL8rQ06DH3sz3NKL3gTr/WDxwfjWgCgmsaBAsbjYYUP94mQFHiEU9ZZpSs8kNswE21HOPc5wP/JgQZZccguP8GjtNcCi8RvbYJjuANnQRFlFQXjs0OgmZAhPR4CFWVWDwbLv70AHgNSjErPmwF8L0KOW2tgQmBoozkpbJdhBdXDWH876t+yzSbdYQPexDFAsIjEBTfD203ERJoDYP4NYdOrKF8T3gV5Yh6O45eyKsB3qFblagLZZxLkFAH73JPvHqW0T9qCsk8cYj2BqNJgMQCudHNm3kArMpyyi9k6ULMEzJAQxEGAAx1AfEWDOrGxZRCRjy5ZNKTjPqIO1wglQhnDG7uVlI/G/0zH6AkwgCnUAxh5SzAL/AhX+yEYwNmIM7/D9y04Xo6MqsQr+ziSXoPngdxLYYyRnr47wAPP08goIzNYz7WgbadOJgO0umK2vqV7hIxBXL4YA702iGp5eKVVburokiHwJk5rZZRRaC8L+nxuOfI7ON8EAz8VMsnAgNrocsrAFnikX1ODvL3FHaIwzp2DftUG/d+wKAWu2qLA+nPdTxm/Y7FFHQM7cLU9m/LBK49FAeAOwmM7ACW/u8EmF6BP49CnEciZbYVhVofYywnwXu7rWfqE9dsxE9+OtudhwnxohbVMYl9ri+PJCtQ7gCTQj7vs2A7gVCA8vLVJfjqAULiaIEZwnDY4UppCV5qsFo6NlkIY3PNLSnM1vvYJ0bqBFh0jjwRmjokYIAHHZnlUabC48CSzDIKrQnp3hUXW73WokGLcnCLpBBB5B27/DXBdn8Ugd6J1M4qSGRoEO5MLndWUQZIHdqx1rE7u7+N2/Q4BVpfMs0iOJ5b07fR3AIkP04oE9qhWSf6CV9ERbnaneHhFNQgWHJo3Qw5NUS9p8ho8rRsHY8AmZUHkNkE2DsgIHrVcscgNCiy+HO7qRZBzK8+1vn2oid+UWzr4eXQt9o1sFOmGeHdoI71c0iVCLulolh+3IlQEL40xCC/vjkAYtAvysdRNflr+2Fks6zDjtEbo2gIT0TzE+6RU6JdAwZVXM4TIscRxxTdM5GHED/29SOVWOKu+ibicYJHiM9uriqpIbGcrwtbvN7n1dD7ktGwvEvkAp015gc2LYdLTcPMLAV4ccxTfRainKyYSJh+rCxYMb2ZBNvRYOjc2ShPocS7yNUzs7gIQ0cvwZ5+fwPPmZBXtAQeGbPSWciFm9rU8qjRYPIY4DfkmRXR1fjkjStLgBz2I2SgD7hVXPRpAW4dgrEUYjBHgtDGsskWkXqIRm6+FoGrC9dI6w44xFjxrpvux+fRgcuFYUH3eKuTMwLJjMIueibzKFCQSt4Hvhh4vifmCioSktVmZvzSva+cXleRm4A1LE8jgLLjzzfA3C5uAzBhJRQxJMIImY7ZhWPApkk3JdKkhq525gQdhZXgor0xnDKqbkQlPQ5uTIYu1AIID8ArPaOvWXzZ4KgbPB3H8FszmzNs1hb99ALai6Y+ARw5rUm4az59iEiLdhtoTEDu+tM2NUpwDsuCFNUG83RSTvBFIEQE57kGeIgn8PQVPcSUSyEy8dsYkQsqvgdwPa1oPWfFDIlisOOiQL7xWg/yNOR67CytODOc+3VIsaeClPviE+itccVINVUCsZwpkxXH/BAwzHrb29k67yllQP4Hsk6shHHutAaScFJohBKZntg45jPJCELJTabDgvgV+NFoPl3800PtdJHXYSHOMqhlw+Qqh298R/zK7/gZiYiY9mbOYvsedlKpABlU6zVgyw2fGe7gzXjkAwTE7HInU9MtYmlwNUMmCQfQFqreJjUSyySltGxhVnmUZrLmmBz3Gbwlx0LDvo5CEuhkzNRXVCLL6EB5HLiygEeQzorlZBiLejgXYMjyZ71mRqJIwKlmYOYtYaL03Vq86YsrjChbzJ43R9h+7bbIRSt6JbH/nBnqZ1NWsQsyWyJw/hGXIrQCQYoyBflhynViAJ76jXxavvlaShUoV01xrrTBn6i+225FENMpjWM3h+XrQ8+fIAWQDyNrDG+vXGCFcc4ckA1BoNIuxnF8b5D1emkM+VyGcbQj50ZVPhm7fwJhbftjtCY1GSNQxXqdyVq0hxxUAtA3ehlRNBjXQ9jZ0hhWB7HMP7GAt0ghDkSyeiq0ESQDWnUjALIA9e3yBgBxVGix8a3gVLtYhoNRQJJToXn+OfQOfIrtOl2YqZknOBOMgKCZ1XlplVbNXXVAXZIUbEMExWDgT9gBAHMGA/mZvsdiWW+USKhYz1lwsv32ErDoHf20SB9ZuuIVPII68HkvK3Nfw3lqrfI19DZTVEwjbrscM1Ad8E0hewh6LX2ppjwX7yYTWPUus2BeA1QYYfQPMSgfB3yvgYyZiaSvk8RDkdDOWxvsBwLJQ/u3VVtmMAUUNTl1vlXMQd7elb72n9iT3ESaez5FE1YgDeT5WZF6EJ3vZSSaVmnoe3xcjd0K+/gP53oAwqhM8uP0wRu75WVrDeyzICz1ZerAacRWma0PM7ACNIsiKfPaAXDPx/SUkhCm/s2EHnDSnbSuWKVgRq8kxx1DjVeS7UL3ke/EVyD45Hp/F+OO2gcFIK2zHxPAuQpPK8KRLufJZV/Pxd8GvrLoxoz21K5FXMl4k4xrRPWIOhwbL8KUi1NKus6TvlbUTO0u/GfmllVXhG71F38mOvFGYHGDME/A8f/NTWVp2Xj3p/sFGiUxqUdlLypTzbpv7EzhTakRgpRwpI/JKEKmQMLXum/66KnYs+tN0R744YzCz790uPXh+fPWn6ZW6Jq+VperqVWuH3qSWG6QcNZ45BskvZan6U8kxV129sl06CoHGHPnlPEk5U8bMl5VL1dSrd93l2ac25qhH8lURW9TfMXsWZIoNeQOEN6M0hriKOChXasd2srycFo2RCbBgUHltcwBVOIhqmOnydMemAoFpsPSqdZ/g4ElJlJEIhxoHPT91SWyuvDFHfuvVMU9a/8vT8bGMuSCZTl2qM9xWWAJhCdSEBPQVLq7WRCtVqYPrY6RjCIuq0kyVymq8aLxV6eJaLEwfmJ9/A4X1WnkthaJeoT+9MydNnJayb+2ufK9qvqQFT1WKwEqGNX1PzVd+jDWSF+6N4JO8QoWoM3t2qvqEkv4Cyado/1aV/wg1vZIn8hYqFKp6pYz0jXbPk8J9m8Rpq50dg5VVggvPG7TlZkjO109Isxbt5PC8/4mjiEnOYE6dLsVDBp7cldggSdI/f1TxSF6DSdRV4d5NYpn/mfrwe7D1F0geml5TP31EImNilCxDSa+RMdFC3kJJrwVzpgo/oaBXb/2pB/bu37NDMnteJKYmeIwdF7CDQI6CHLHP/1KSjIViNpklLzdLslsNkaiupyLlXds39AbosAO3bK/9S0yrpktkvfpiw9vM82KaSPzwK8VQLzHARbV8GCERva+cac9LNN7UznCtIC9PEic8JJF8DGGQ9Beo1478bEmf/YnoUzfijky92PAG+qjTLpOE7qcFVa850GvhX19KHN40r15EndReEkdArzEJgbpSu8ep19Rtkvvtc2ICTyRbbq7EX/SwRDZpHzS90i6z//hMdOnbRHfTTTe5unXrFn5vSO0OhXDtISqB9957T/iaB5KLu5mC6chyGzvmau39NHyXj0qXee6zCooIyY/iC3dtn3766TJhwoSg8BFuNCyBYEtg/fr18vHUj8XVzCD2AXisAW9PDhLpsLvTNNsikRHum9Ys8MJsIyPFlRwkz5pywG5n4+IiiUjHY/XCbyIL0sgINxsSEuD4t6UgB3VJo8CbhuqIU1cTbCprga3sX+WpFouvRzjSEEARnMxASa/traLE9VVW9TZl1ZEMw82EJVBrElCT5bDYoAOF6iBBIdEoxZ083cX3YAOF4gS7uxynxYTBwqOW8J8TWQK48SxkCIbp0h7yxi2YwcyheAsFMgpegBYy2gkzcsJLIMhu/r9F/iX3htixLJifn69WRQwGg8RxWc4PlVeOb2S3IilDikCSJjr66PdG8r2cbMeb+GJmkwl3EmIJKw/LgPzL7GsM1uV53Ju8y3gfZ/nY2FjFe12QxkdkZKTqa12Rw+FQ8mObbLu2ie1RJ/FYzqvuW+Q5Plgf9fRvpCRTnExofIZf1vOK8+WrjD9x06RRBsV1k+ZRKYggdHiORboszFkjWY5Cv9fV1MHGpngZEN9NGpnrS5HDIpsLdsqKgh1c4pEe0a1lcP0+suLwGllq2a6aTDHGyaiGg/FoQpt8kTELRyr2G0rA4vPPP5fvvvtOOnfuLBs2bJAnn3xS+vbte1RfApXLycmRxx9/XPhXj/V0Dq4nnnhCEhLKrltv3LhRzj33XBk/fryqm4PnnnvukRYtWsi8efPkmWeekS5duigezjnnHLnjjjvK8GCxWOS///2v7Nq1Sx3nAF69erWYzWb58ssvpVEjJKoC0LJly9RA7dRJCwoDFKzE4SNHjsitt94qd955p/Tr168SV9RMEcr3uuuuk3vvvVeGDBlSbqULFy6Uk046qVyZlFsBTh46dEhGjBghK1eulKioqr/flW/fZh3UKfnZsmWL3HbbbRU1G4LnndItpau8fc0bfnlLxUuNZ3+4Es9SnSTDO5+KB/ckqGeT5BYekdkb5shlv96J62rDhXFJq7jm8s3Zb0v7Ju0kMSpBrHar7MfO3o/+/kReWvOenNV9rDxz5kPy2o9vyNJVLyv+ezboIi9d/gLe31sgX7z3FVgLbDdahxVYbN++XWbMmCEff/yxJCUlyezZs+WLL75QwMEZjDNLYmKibNu2LWC5+fPnS/369eW1115TdT/77LPCY2effXaJJ0EPgoPn5ptvVoNdI4JLdna2fPXVV/Liiy9Kr1695ODBg3L55ZcLl3a7di195R29ldtvv73kWhrPgw8+KGPHjlVGQc+ooKAAz7NwPwuBIEIPpaioSGbNmiXt27eXVq1aKXDhDE0PgURD4EzNY5pXw+Pev1kn62YbnCVZhzbbFhcXq0QnaywAABjPSURBVGM8x/7QM+M5ludfXsu26PlQDixzLMS6yKfWLvtPHRFESVp/KT8C+/XXX690Rz54jjwSMOmxsW/0FEneniDrorxI/KsBvq9n4P2b/dbq0+THPv/555+qjZYtW8qAAQNKJiDv8t7ta54M9UyeSfxel96bavQo0suiAytl8OSR6syNA6+VK/tfLJd/c4vsStuGBzxZ8QqK5nJJv/Pl542/y9M/P6d0/ORZj8mYriOk+7KOsjZzM66sWcCINEbLDxdMkU54K/2XK76TL1b9T1ISUuSpM/4jj439j3y98+eSPVQqmeshfnXC6+Cnsjzh6WQ6Wbp0qQwcOFAaN26sBiENlAbIgUiFt27dWjW4ZMmSgOU4qz/11FMlYcBFF10kjz76qAKLDz74QLFIgCBYEJB8wwUa0MMPP6wMWTMIX69E66j3td98841wUxnbIWVkZChvhDxz8HLwEbj27Nkjf//9t2qf5TPxUuGXX35ZTj31VFmzZo306NFDbrnlFpk6daryiq666ipV32effabA5sorr5SffvpJ3njjDQVMBM6dO3eWGO2rr74qO3bsUB7S4sWLlZd1yimnyPTp02XFihUKyMjTlClT5JNPPlHGUxM0aNAgxU+HDh0kNTVV9Y96WL58uSxatEjJk+0+8MAD0qRJEzXL83wudgfefffd0r9/fwXMBBJ6kwSijz76SH755RcZOnSobN68WZWlTqZNmyYHDhyQhx56SLHOvnFDE39zwrnrrruUB7F27VolP042vKZp06bSvHlzdS1l9Mgjj8jWrVv9tk9wGjVqlGCzoNIDPVHKX2uzJmR2rHUUARAWHsGDS0FXFLvBObUwXRblblDHRjQYokIPvAJJltm24CEl2XLljNulQXQD2XGEG79qFijY5sUpw6Vloxayfv8muWYWvBcXwvaDTinMypFT2wyWSK81DIcLS8T2A4rXQoQq7h1f6melSHkWdKk5s2qzFQcOlUZD46DWZunyytF4vGNofueAIHEQacTBvGDBAjXLcwajF0FXngODg5rtcoD8+OOP0rFjRzX4/BHBix4QDfP1118vmak5IAkcBCsSv7NN1tW7d28FdqyTMy6NhsDBfv/www+qvwQi71lf+00Qouf11ltvKU+HRjJypHuWIfBwpqZXRO+K5ehVESx4fPfu3crjYjvp6emq/75gQWCjd8K2jUajkiXlzuv5OxBxxmWYwA9lwn4SlNl2u3btVLjXoEEDZXD0bLhjkW0QUCdNmqTAgsTQgKDG69955x1hyEYAZ9hAoydRFt5AzXq03ww5CTbUJ8HlpZdeUjwxlGWdBB4Cu9YXTiT+2qdsORbIO6/fv3+/nHXWWapPHJchSQoD9DJv31I8zPcfGXbSEMm/b4cs3fePLNi6SBZuWygbHe5cQU3z3z6utcRGxsrCfcvdTy/GGBOdQaZnzFcfcZU+bezes++Se8YxHHITdbenYG+lWVKj0Ns98b2SA1xTcHnlNHfe+3oaH8l7gHEQd+/eXc3APM+ZnF4JZ3USQx7OagSM0aNHKxfWN8nJcpwhaYCTJ0+Whg0bqmtJzEdkZWWp/Av5pStLY2Z7JA0QGeIQpBj/c9YbM2ZMuQlDJm7XrVungIJGQle+T58+qg0a4/Dhw2Xu3LmqT9wVSEOj8fM8vRdNBsnJycr78SV6JgRsGgf5p5xoqPS2UlJSfIuX+U2vQgM4hj9sk/3UPizMYwQ3jQ96WWxT+33mmWeqnBGNlB6dluCm4fbs2bPc9nmS4PjCCy+o+giY/E7y5sG7kkDtayEnQYfXUvfkQQujKmQkiAVsLruc/9W1cnvXq+SklPbSIrmFPDb6fkkdeIVc+OX1sihjNSVSoxwyL8Ia7U7f540evea6YucqSc1JVe1HRUTJkA6DqsSLAgvOOpzxNOKAp5J842oagPdA9y7HmVKLf1mPFr74cqMNAs1or7nmGuXi0+2kV8EQhQbCeJiuPF1/LRmq1UXDZRkmGH2TlZy96G1cffXVyohpnP5AjgZMQJk5c6b6+/3336vkqi9pgMfj7J/Gt7cx/vPPP8rN52xNw6UsCWYa+cbb/viha0558xxlR8/liiuuCLgqpdXtqyNf/rXfrNd7FYLg7s0HJwRNf76ejNZn37q9r+e13r8pt/J4K699tuNvgvBtP7R+4zWQUS2kRVQTeWfNVDn4T54kG2Ll5h7XyL1j7pCrcKPmotlLgBVVTxKX189defslz1qAt7edrDwKjQYndJc+KT3k552/lxxbuPFveXD1ZPV7RFJ/6d26V3lVH3VOZdnonnNFgTkKEnMTTEb5Lp+WV+7CCy9UYYFGP//8s1xyySVHNUij1MITnqQHwbCAIESDY8jA2YluOGdahj7exEH49ddfKxDgbOg7kJnUY76F/NObYHikkXdZhgIEyWuvvVblIZiIY5KVyTSGBBoRCHgdDagV4n/tpiMCGz0Inlu1apXyghjycPXB13DKdCDAD9avufXsOxOxNbFcGaA5FVpQ1hoxv8EQjTywj/SKSJQF+0eiATN01ACUHpBGrE8DSILdp59+quRJ8geOgdovqfDf9gXu/nk9z5X/XvuBPDjkbik2WmSva5dEMrxHXyzId9S0V0ERzTz4lxzIOiBdm3WWFwY+jJk/Vvo27iavjXtGXr/wBWnbqF2JJDFf4KVCeBQEPv50UpHI1b0hjNtpCPfff7/6znwCwwKCBQcOv3OGL68c3XDGvWlpaYoRutBvvvmmap8JM9INN9ygQgZ6ETQuhhwcpO+//75yfekC33jjjcpt59Io2/ZdZmMSj2BAz4HXacQ2L7vsMmWwTFwyzqVbzfCCngOBg54GwYpuPc8xQcdYmuDF2JrgQZBhPoMhBsGAXgLrJt+84Y6AxgQcwYbEc/Qmnn76aWnTpo3s3btXeUhMGhOAa4O8Fe0b/mm/6c0QUCl7emC+xDCB+qYcGfowQcmwjAB9/vnnq++UAScA5pLYJsMR1kfZsY9z5sxR4RLpueeeU/VRRpQb5c26KBMmienVEEQ03gO1z/Pe/WPdvr99+xKU3yXRhOeLziyfrvpGLug6Tq465RK5buDlii0bwoNdmXvl1SXvAStqfl9MqjVTbphxj3x18fty+6k3yN3DblYrHFZ7sbwx532ZtX+e9Gnawy0iPxGQn0MBxan79ttvXfQKqHwaOBXKcENz7zmzMCN+8slwc0CByvEck4sECxINkllwEgciiWDAWYkZcc1joBEyhOEMzbppuOSBMxwHnHc+gnVo/PgbQOSZ15FftsPsP/tC74K80JDIH2NqnmM5rS2ep3HxN8uzHQ52LjtqIRV5Zl9YN48zHOIKEnmkgZB/Ag4NhPtE+J2eCq9v27atkgHBhLM2ZXEsxDapJ/LKkI2eD70Z9pPk/ZurNczX0Ng561Mn7DtJ04O20kF58ENiWQIIZczy7De9P3oWbJu/mWxkm6yHXhBlS9nwHD1DHiNAUI68hrKgx8S+k99A7VOG1Avb0xLt/K0t4ysGa5AmTpwoH0Z9h3syqhYeXN/yHDmzzeny6IrXZHPebnDkNrukiES5rv0FeCVBOzWmN2Vvl6nbvpODllIvrFz2Wc18T9mh0NXRqQc/l7ukcWQDub79BOmQ0AYvs86X2fvmyY8H/kBZo5yTMkwu7zheftgwU75Id4cl3aJayh29rscYtshtKx9HuQqSx9l4c70GFn44CB8KS+C4l8CxgkWtCeaYwKLWuCmtGGBxbDuD6oC3cBNhCYQlEFoSCINFaOkjzE1YAiErgcC7fUKW5TBjYQnUsASC+/zlsp1hjkLLU1QqX1HDsghUHXaFhz2LQMIJHz8hJKC2NG13b90OiQ7jMXYGbNHhh4+0CxXSbbeGH34TKsoI8xEkCTCh+AdumkvEsmZrfKryAtyaZJleRI5DdJsKJHKnew4vXINHRnSKEUnAZquqrHHWJF98gewui5jmWcTIpSoub/lbiqzJNsN1hSUQihLgUnS0Gc+Y/NkixdF54tIFz/fXO/QSWWgWg9mdHYhZ6BDLqixxGoLnYehcOjEXmvB6DtzpfPbZ41wGg1FyARhF3BATJI3i9leph12MEZ6bhQheFkuROIvx0BB8DwqBJ70pSgzG0gfwcH+A04aZKFgvGsIMozPgoa54l4q2I1VtZMJDTFzcJRgkUQVFP8faKPSqM2Lw6w3qnhZuYHPgxU3FhRb1tvMwlUqAPo45OhKv7okQIzfRtFi9Vh7OsUh3pDCC5e0cxiifanTKJ82SJa5+ohywREi9sbdKYh9s6fYy1rpUpMtuk+yVsyTrhzclDk88yrdYJXL4jdIIL6MxxTWoS1ZK2iIwFO5eLwd/ekdkPbfXAx26nCnJZ98q0a26HrX9PShMhnijml4Pznhdbfyy4b0cCefcL0lnXBU0vYaqyGxHMiX9908lZ+YbojurSRPXR6k5khw0mCgVEyfFR/CEuo/qx0viNa9LYr+xwfMqNLYwC2Uv+1kOvXujxAzHHaqXPYGpPViQ6mEK7RdnHZTdb05UB1rd8YGY6ycHX1alqgz9bx697p18pSSOvlVaXB4Ceg1VqWGC2vvFE6IfmJYuSSEAFJQTTfAKq0MO436M+J7DQ2PwQ1DkJQ832TU47dLgAwUFBZ7MCY0ksvMg9eH3oIVqoTrAK+LLo1drkUUaDgsRvVbEc7DOA1gpI6MZQgul9VO1Q99hR66g7h6CW5EOyAu9Hj0SYSFDiLd1Rs9+fnwPg0XVNaONsZDSa9W7USdXUEbH1aYs79yed6AQKOdXm8GEvzZ929PK+B6vE+3XQCPHKu9A/ebxf6ssqiLOiuQWSAaVGVNV4aOqZSsFFnww14/ifr4BG2BnouGP9MezBhMrod7FYpMMzM2niUnwGNuq8lhheW7AG5dikEGN8AoD9Cgda8OzUh2yJNsp5+P4yKbGoxYJyMXsA3aZkVY72/dubGOUXvXdDyOxIcWeWuSUmeBpTQ7eHYnGm2E9/9YOJikqdsnjm22Q5L+HHBi1PRL0Mq6JAXc76uQw+vD7QYcszsQDddCNG1sapQ90oVExLtiQ65Jv9uIxgXBp70G/HfBoX0C/izziH5dskDHNjPLRdpushIxqfpQEX742CGdYkkFGNDZIPBbY0opc8sMBh2zKc8vtyY4miTLr5J0tNtnP/Q1eNDxRLxe0NZWMY4hPciD3OYcc8kc69mfUQfcqBRZ4BpJcAINvDZaGgik+c3ktPnyY3VQ8EhQPdSuX1UXikJmoo58Ci5olLnU90d0sI1uapADCK7S7pAsMcSh+P7/UIkkxOmnX0D1wY6AIEsuRVmMTTG3RSWizTxMsSVvcbXVFqDCuvVm+2FwsH22zSRzeNtUD5wsAIs5/EVhQglcDCCd2ixCCgB0ixFMB5Iw2Zvl6Y7G8BWNv38AgvWH4BRjwBBbmg09urpNeAIRbF1vEBXUMa2GWfwAuPwBk6uH3dajPjlWJDUeOT6AwQUaTuphlVGs8QAhjlA+V745+j2xjkrdXWWUaJq1uAJGYKDwZficekecDFk3xwmYlUyAOZU4y4vohrUySstoqX+zzfaxezY/sSoGF1uwwzH/vS4QUwfBXAQDuhbfxklhlMgCDHsM6rFJvF0KLSEuU7YVP+TBS/Q4lAQBOBlpnwuiumo+nE8E4x2JWm9DOKCZM4e9ut8vr+DRCuc+HuB8+csUCi2QAMBjx1/aMPvL3ImUEA+L1cn+vCLn4JJNsy3Tg5TPV73swaugZq5crOpolG1uRn/vHKktyndIeA/mermY5o61RPt3jfkCsBQP6+eVW+QV9rQ9gfKqHWQbBw+sGObyy0SbdYRjnn2SW/ztYJLd1MEsDeCiTV1rFepxudBgBAB0Jw96R7ZAXVhfLFsivb5xe7saYGAmP4btKergfb8JkAzDhmw0HQpaTh0ZhYjTWCVhUyZZZmNuTCAxDke64GKb2OQAiB/CwBX8vEIv8gL/z8Pt8gAgeQVPr4xkYAaQGT/AmzoNbPLieTjZjdvoPBurvcM8IBkxLer/XjN95rLaBgp1nmtYI9FwK13oKPIgoAFg3Lxe91gVUww10R/gRD1n/tMcuf2fBfYaKt8KNvm+ZRW6aa5E8bYKjRwFf2YS/FsyGmR4Py6DXSQ5+/x9k0Rau9R2dTDIYM+YuGNFMuNTHK3VupJcIDLgpCDE2Ql7c07cUYfIt84vkkSXwtqrQcTMKc0ztLoDnhokI/9cJVcmz8OaI7mgi/AbOI4y43oZHcQB/34GXgd3ssg3A8QaOfVDLJpkHl+7TjVa5tHOE3NwzQvLB0MF8p+zMcsjbUMwhT8hRJ9IspxEC7VpP2JMIVxNLPuWUDt1T9eABkDYBkL1nmnx0Jx8xB2NpkgmGcSm8qHOR6uKbDDokGWUHvJANvP8B53/ETDq6tVMug3fhAOA/tqwYL+o5fhOciZFuaW2EDLzzC1lVjB5GA1gHAmS5ezc+Bq9iAPguqIMQhDo9ZrDgxQxHSOz8EkAG32E1QdzvdNyL70fqIO1CFfyS7pQFmUXSDEbYt7FexjQ3yQjEguTk+XWliVnFbJCIkkryGFoRM13/UrIzCQFizoXftIHPpC1Jw2YDfrfADVAsTgBZnmaXd5HTKPaEGVmQwSfI3TzVL0J+x2D/5zhNarqlArl4ye0w8hHecqMcKzskmiIMTELYRzCOhg5eQb5jRqiDBW65kdWYHU9FtyMwxzA04edleBbsPF38KsU4mlSr+LcpXOIxzQySBpeMKxvr4OJ9jJju15HR0sWT2KxilbVSnEY0oYVRuYz7fBKrbvOrlWZrvNIDkC89gJEI+X7Yj1cjoAX26QLMeKfj2FNr8a4UHFM5i2VW+Qk5CxoCQz9ipWYk/MsVIlKO5ThNVHhJfz/AkHIZ39wgz210CnPtcIrlFnhf7RA637fanevxusTv1ymenMV45OkeBNAORdJ4OsGiDgZRlTwL3Jsq++BB5OLvBwhAmK94F8MALz1U+Ys5AI90HGNi8wEkP08BXFS0UuJXIlU4yKXSsfAizHDHoozFcgghSHuAREOMzI0YqMGmQQmYgXHnXk8k9IYCLHbDDZ0NT4gJV5IJU/AIupUeRrnMug59yAs+635F9xfi7AsBdn2SjUhaumQZALol8hgMJw4iaZemzZoYvHgLisoNRWmd86nRGzj8NnYcHZyL/NkYAO1ZSGbSydiEHE1vhGbjMHYXw+uyehIP9NA6xemkEZdPQJTRtsKySBCBn7MyHHIOPt1ZR5JdvseqUm1TlcDiG4DBNyrYwFuYMRS+xXrCmQALdugiRDR7ABSnI7HJLl6H82d48hUMy+iJ1AZtgEfx6fpiObu9Se7oHQHQQPiDqWxJql2+AAp7E/Ckzkhr6/kh7l2fXBNfAcP6EEun6fjOVRyWSUFG/OVTS3eGFkJYkxYWyUIYZSgSE5gPrbDK7VgROQVLv2OxFEh5Lztol0+QtCTYUcxcTq1I3NotNtrfUOxvTfG0A3sqXsJqD/M4YwEYF5vMKuk7e5dNpiK3RuLbxZg8fqBf2VcGcHwXeBLE7vePub25l3D8o9MMcgWWZH8/XCQFVcx/VLVvulfE4LoXoUNF5M9JItJ4DwhimzbEeVxDIvaBUOFb3l+buwFIrZEc7Tej9EU//sr5HuNaPbw5JXAbgmSAuHh7t+SnkYehjGPw2padV0+6f7BRIpNa+Dbt9zefVxLjhU5W8HQEAvKO6Rkl8dZ8b+JmpcMoRxe1XMJ1+6a/roo0H493yWqZxXIvqrmTXLqLA/8RHnkj31my7BnPeBp9z0QnyssvM6+RjKk0B1NtQZCwsap6ra4EIwCimB+U3os9Y0LLV3B8mv0gZ7YncVwfssrEd+9xDcdCbfJLg4FWNGSqw7slfW/lE5zeS4+BGmWegh9fqpL74ntxJX+rbLwq619kPJpey8jrzSrTEjSCQMRThxQ/gcsEujYUjnOAZwbgPxd9zy2n7xr/LHKgspm9UOh0DfDAfSQZChiP1jsnMX/HtWb9yaoux3Rd5CBrQMThKsISCEsg2BIIg0WwNRBuPyyBf4kE9EXIRNV+HrXy0jjCEB7JH4eFd6CEBpEXoqqjsOxLmoPJnQu38TuL+dhB7HbB9zBVXQLUK4dbKOm16r2omysoI/28Fk0krSQtWTcNB2qFodz7USZJxvtDs1f8iuxp2eRfoOtq9Th4yF7+Kx71V18yfvsIIWWQMnHenWRSMfugWFb/oT78HhKyqlVF1HDlHr1G4H226b+GiF5ruIs1Vh3GPGWkGz78dJes3yAPpx+R3si5BMs8M9CzN7Bs9HvzFKmHN6qnZRWK+cybJfGUs0sf8lJjva9cRS68iTp7yY+S+9ObEm+0SyGewSm9xknyuFvFGI+nUwWDoLiCnWsk9etnxZy+WaXJbEkdpcklj0hMG7wtWxeOLCtSC/WatfhHSZ/+mpit2WJDpjVm8MWSgueYBk2vFTEdpPP23AxJ+/EdKVj4jfw/QWre7HCqe0MAAAAASUVORK5CYII=;" vertex="1" parent="1">
          <mxGeometry x="2778" y="440.9" width="267" height="134" as="geometry" />
        </mxCell>
        <mxCell id="Tr0L8EBG7VE9bzAZ71TH-2" style="edgeStyle=none;rounded=0;orthogonalLoop=1;jettySize=auto;html=1;exitX=0;exitY=0.5;exitDx=0;exitDy=0;entryX=1;entryY=0.25;entryDx=0;entryDy=0;fillColor=#ffe6cc;strokeColor=#d79b00;" edge="1" parent="1" source="Tr0L8EBG7VE9bzAZ71TH-3" target="Tr0L8EBG7VE9bzAZ71TH-1">
          <mxGeometry relative="1" as="geometry" />
        </mxCell>
        <mxCell id="Tr0L8EBG7VE9bzAZ71TH-3" value="Playback Control" style="rounded=1;whiteSpace=wrap;html=1;" vertex="1" parent="1">
          <mxGeometry x="3121" y="463" width="145" height="24" as="geometry" />
        </mxCell>
        <mxCell id="Tr0L8EBG7VE9bzAZ71TH-4" style="edgeStyle=none;rounded=0;orthogonalLoop=1;jettySize=auto;html=1;exitX=0;exitY=0.5;exitDx=0;exitDy=0;entryX=1.002;entryY=0.579;entryDx=0;entryDy=0;entryPerimeter=0;fillColor=#ffe6cc;strokeColor=#d79b00;" edge="1" parent="1" source="Tr0L8EBG7VE9bzAZ71TH-5" target="Tr0L8EBG7VE9bzAZ71TH-1">
          <mxGeometry relative="1" as="geometry" />
        </mxCell>
        <mxCell id="Tr0L8EBG7VE9bzAZ71TH-5" value="Timestamp Timing Control" style="rounded=1;whiteSpace=wrap;html=1;" vertex="1" parent="1">
          <mxGeometry x="3121" y="506" width="145" height="24" as="geometry" />
        </mxCell>
        <mxCell id="Tr0L8EBG7VE9bzAZ71TH-6" style="edgeStyle=none;rounded=0;orthogonalLoop=1;jettySize=auto;html=1;exitX=1;exitY=0.5;exitDx=0;exitDy=0;entryX=-0.003;entryY=0.415;entryDx=0;entryDy=0;entryPerimeter=0;fillColor=#ffe6cc;strokeColor=#d79b00;" edge="1" parent="1" source="Tr0L8EBG7VE9bzAZ71TH-7" target="Tr0L8EBG7VE9bzAZ71TH-1">
          <mxGeometry relative="1" as="geometry" />
        </mxCell>
        <mxCell id="Tr0L8EBG7VE9bzAZ71TH-7" value="Timestamp Activity ~ Text" style="rounded=1;whiteSpace=wrap;html=1;" vertex="1" parent="1">
          <mxGeometry x="2590" y="484.5" width="145" height="24" as="geometry" />
        </mxCell>
        <mxCell id="Tr0L8EBG7VE9bzAZ71TH-8" style="edgeStyle=none;rounded=0;orthogonalLoop=1;jettySize=auto;html=1;exitX=1;exitY=0.5;exitDx=0;exitDy=0;entryX=0;entryY=0.75;entryDx=0;entryDy=0;fillColor=#ffe6cc;strokeColor=#d79b00;" edge="1" parent="1" source="Tr0L8EBG7VE9bzAZ71TH-9" target="Tr0L8EBG7VE9bzAZ71TH-1">
          <mxGeometry relative="1" as="geometry" />
        </mxCell>
        <mxCell id="Tr0L8EBG7VE9bzAZ71TH-9" value="Timestamp Control" style="rounded=1;whiteSpace=wrap;html=1;" vertex="1" parent="1">
          <mxGeometry x="2590" y="530" width="145" height="24" as="geometry" />
        </mxCell>
        <mxCell id="Tr0L8EBG7VE9bzAZ71TH-10" style="edgeStyle=none;rounded=0;orthogonalLoop=1;jettySize=auto;html=1;exitX=1;exitY=0.5;exitDx=0;exitDy=0;entryX=0;entryY=0.088;entryDx=0;entryDy=0;entryPerimeter=0;fillColor=#ffe6cc;strokeColor=#d79b00;" edge="1" parent="1" source="Tr0L8EBG7VE9bzAZ71TH-11" target="Tr0L8EBG7VE9bzAZ71TH-1">
          <mxGeometry relative="1" as="geometry" />
        </mxCell>
        <mxCell id="Tr0L8EBG7VE9bzAZ71TH-11" value="LiveTS" style="rounded=1;whiteSpace=wrap;html=1;" vertex="1" parent="1">
          <mxGeometry x="2590" y="440.9" width="145" height="24" as="geometry" />
        </mxCell>
        <mxCell id="Tr0L8EBG7VE9bzAZ71TH-12" style="edgeStyle=none;rounded=0;orthogonalLoop=1;jettySize=auto;html=1;exitX=0.5;exitY=1;exitDx=0;exitDy=0;entryX=0.286;entryY=0.001;entryDx=0;entryDy=0;entryPerimeter=0;fillColor=#ffe6cc;strokeColor=#d79b00;" edge="1" parent="1" source="Tr0L8EBG7VE9bzAZ71TH-13" target="Tr0L8EBG7VE9bzAZ71TH-1">
          <mxGeometry relative="1" as="geometry" />
        </mxCell>
        <mxCell id="Tr0L8EBG7VE9bzAZ71TH-13" value="Current Timestamp" style="rounded=1;whiteSpace=wrap;html=1;" vertex="1" parent="1">
          <mxGeometry x="2778" y="390" width="92" height="32" as="geometry" />
        </mxCell>
        <mxCell id="Tr0L8EBG7VE9bzAZ71TH-14" style="edgeStyle=none;rounded=0;orthogonalLoop=1;jettySize=auto;html=1;exitX=0.5;exitY=1;exitDx=0;exitDy=0;entryX=0.472;entryY=0.007;entryDx=0;entryDy=0;entryPerimeter=0;fillColor=#ffe6cc;strokeColor=#d79b00;" edge="1" parent="1" source="Tr0L8EBG7VE9bzAZ71TH-15" target="Tr0L8EBG7VE9bzAZ71TH-1">
          <mxGeometry relative="1" as="geometry" />
        </mxCell>
        <mxCell id="Tr0L8EBG7VE9bzAZ71TH-15" value="Current Play Time" style="rounded=1;whiteSpace=wrap;html=1;" vertex="1" parent="1">
          <mxGeometry x="2881" y="390" width="92" height="32" as="geometry" />
        </mxCell>
        <mxCell id="Tr0L8EBG7VE9bzAZ71TH-16" style="edgeStyle=none;rounded=0;orthogonalLoop=1;jettySize=auto;html=1;exitX=0.75;exitY=0;exitDx=0;exitDy=0;entryX=0.063;entryY=0.997;entryDx=0;entryDy=0;entryPerimeter=0;fillColor=#ffe6cc;strokeColor=#d79b00;" edge="1" parent="1" source="Tr0L8EBG7VE9bzAZ71TH-17" target="Tr0L8EBG7VE9bzAZ71TH-1">
          <mxGeometry relative="1" as="geometry" />
        </mxCell>
        <mxCell id="Tr0L8EBG7VE9bzAZ71TH-17" value="Delete &lt;br&gt;LiveTS File" style="rounded=1;whiteSpace=wrap;html=1;" vertex="1" parent="1">
          <mxGeometry x="2707" y="609.5" width="92" height="32" as="geometry" />
        </mxCell>
        <mxCell id="Tr0L8EBG7VE9bzAZ71TH-18" style="edgeStyle=none;rounded=0;orthogonalLoop=1;jettySize=auto;html=1;exitX=0.5;exitY=0;exitDx=0;exitDy=0;entryX=0.211;entryY=1.007;entryDx=0;entryDy=0;entryPerimeter=0;fillColor=#ffe6cc;strokeColor=#d79b00;" edge="1" parent="1" source="Tr0L8EBG7VE9bzAZ71TH-19" target="Tr0L8EBG7VE9bzAZ71TH-1">
          <mxGeometry relative="1" as="geometry" />
        </mxCell>
        <mxCell id="Tr0L8EBG7VE9bzAZ71TH-19" value="Copy &lt;br&gt;LiveTS Header" style="rounded=1;whiteSpace=wrap;html=1;" vertex="1" parent="1">
          <mxGeometry x="2782" y="646" width="92" height="32" as="geometry" />
        </mxCell>
        <mxCell id="Tr0L8EBG7VE9bzAZ71TH-20" style="edgeStyle=none;rounded=0;orthogonalLoop=1;jettySize=auto;html=1;exitX=0.5;exitY=0;exitDx=0;exitDy=0;entryX=0.599;entryY=0.998;entryDx=0;entryDy=0;entryPerimeter=0;fillColor=#ffe6cc;strokeColor=#d79b00;" edge="1" parent="1" source="Tr0L8EBG7VE9bzAZ71TH-21" target="Tr0L8EBG7VE9bzAZ71TH-1">
          <mxGeometry relative="1" as="geometry" />
        </mxCell>
        <mxCell id="Tr0L8EBG7VE9bzAZ71TH-21" value="Copy&lt;br&gt;LiveTS File" style="rounded=1;whiteSpace=wrap;html=1;" vertex="1" parent="1">
          <mxGeometry x="2944" y="646" width="92" height="32" as="geometry" />
        </mxCell>
        <mxCell id="Tr0L8EBG7VE9bzAZ71TH-22" style="edgeStyle=none;rounded=0;orthogonalLoop=1;jettySize=auto;html=1;exitX=0.5;exitY=0;exitDx=0;exitDy=0;entryX=0.876;entryY=1;entryDx=0;entryDy=0;entryPerimeter=0;fillColor=#ffe6cc;strokeColor=#d79b00;" edge="1" parent="1" source="Tr0L8EBG7VE9bzAZ71TH-23" target="Tr0L8EBG7VE9bzAZ71TH-1">
          <mxGeometry relative="1" as="geometry" />
        </mxCell>
        <mxCell id="Tr0L8EBG7VE9bzAZ71TH-23" value="Clear Timestamp Text" style="rounded=1;whiteSpace=wrap;html=1;" vertex="1" parent="1">
          <mxGeometry x="3019" y="606" width="92" height="32" as="geometry" />
        </mxCell>
        <mxCell id="Tr0L8EBG7VE9bzAZ71TH-24" style="edgeStyle=none;rounded=0;orthogonalLoop=1;jettySize=auto;html=1;exitX=0.25;exitY=0;exitDx=0;exitDy=0;entryX=0.349;entryY=0.998;entryDx=0;entryDy=0;entryPerimeter=0;fillColor=#ffe6cc;strokeColor=#d79b00;" edge="1" parent="1" source="Tr0L8EBG7VE9bzAZ71TH-25" target="Tr0L8EBG7VE9bzAZ71TH-1">
          <mxGeometry relative="1" as="geometry" />
        </mxCell>
        <mxCell id="Tr0L8EBG7VE9bzAZ71TH-25" value="Download&lt;br&gt;LiveTS File" style="rounded=1;whiteSpace=wrap;html=1;" vertex="1" parent="1">
          <mxGeometry x="2863" y="609.5" width="92" height="32" as="geometry" />
        </mxCell>
        <mxCell id="Tr0L8EBG7VE9bzAZ71TH-26" style="edgeStyle=none;rounded=0;orthogonalLoop=1;jettySize=auto;html=1;exitX=0;exitY=0.5;exitDx=0;exitDy=0;entryX=0.999;entryY=0.921;entryDx=0;entryDy=0;entryPerimeter=0;fillColor=#ffe6cc;strokeColor=#d79b00;" edge="1" parent="1" source="Tr0L8EBG7VE9bzAZ71TH-27" target="Tr0L8EBG7VE9bzAZ71TH-1">
          <mxGeometry relative="1" as="geometry" />
        </mxCell>
        <mxCell id="Tr0L8EBG7VE9bzAZ71TH-27" value="Write Timestamp/Chapter&lt;br&gt;to LiveTS File" style="rounded=1;whiteSpace=wrap;html=1;" vertex="1" parent="1">
          <mxGeometry x="3121" y="548" width="146" height="32" as="geometry" />
        </mxCell>
        <mxCell id="Tr0L8EBG7VE9bzAZ71TH-28" value="" style="shape=image;verticalLabelPosition=bottom;labelBackgroundColor=default;verticalAlign=top;aspect=fixed;imageAspect=0;image=data:image/png,iVBORw0KGgoAAAANSUhEUgAAAQwAAAF5CAYAAABqYxThAAAABHNCSVQICAgIfAhkiAAAIABJREFUeF7sXQV4VcfWXXH3hCiEJCQhCe4WnGLFvUaFCrW/8qj7a98rdff20VKj0FJoKcXdPbjF3d0T/rXPzQk3cokARXLm45J754yuc2afPTN79jLq07fvuQLXzsgMvQnl9m1wDkbQD+eUH7r/68bXSFpPKuasm7VOunqSVKep75rSIhZsmhUFu/3fwDx+B2OMlDg1qN+VmKp49buaSj+9pKkTrxen1qlXwfl+1EqnX5aSXr9+vd9qWTXaUV2Bro96P/WqNoSKLomh8mqX1dh0DbWzdrnN/d3U9jS3Hi1f8xEwLfAZhuN9HkO5uW3zS7lSOR29kevVGV7rXoPF6eVNboWIxvqGXnW8kRGMagsDA7UYKstAci1aQ+CaRMA4LnQqhYXdNdl4aXSFhT0yut1Ut/0c7BJq6ku6ZPpx9V2vW1jdfDXSVNWlH1dfufXFKW2sJ/+F4g21T4vXELjcCBjnuLRnHfW9Zy931Zeq/HModA9TCjM08GrUZGBwMnMN4WJwcKuF1Up/qXrTmHIa1c/GFKSl0RBoIgLG54yMm5jlKkxuZFKnUTUGfD3ahnK9HuFRR1A0IBiaqq0YrLeetuiaWKdFSl8vJDQudK0OUFqEhkATEDA1lHZKfgaGFWTiOxtn7LR1qU42OysevcuK8LKjF1LMbQxlrxE/ID8dswqysMrZB565qehcUVpHpzGikrPa0RO/W9ggPC8NQ4vy4MpU2SxpvYUtNjh48tvl0YRkSNYoWQav3gKqdKZOmkb1XEukIXB9IWBQYIRwkN/1WkfYz/gUO8PnVA+gh398GG0j9+C51083DgkOvi5nd+D+r6ag4KXTCFn1Nm7csaBqCBbpyjDiGsq5PBQ+cxC+xqZ4YslTcDq7G2Vm5rAsKcC9fj3x6PgX8YNfL6a/sNCQt2vt1Xb9wW5o4NcXXyeuSpDUiddDotF11SeU6ml740DWUmkI/DMIGBQYK+zcMLfjNAxIPgWTkkJUmFuhQ3Yiup34Ez+NfxOZZpYYQE1gVFEObDiID5laYAG1DnDASxjEazfyWgp/l1AjUcO46W8BU1/HDbkpWPjVbBSG3QC/Gx7VTQ9Y5h8/PwqPE+vQ54UD2NMqALcnHsMTFDK3JB/HD2171DuNaBRU9Q1QZjxXT7x+eYaEg6H42m1pbLra+Wq0wYAgqU84Xqgc7ZqGwMUiYFBgHLBxwvGA3ui6bSGmDv8/LLKwxu2nNqMYljjYeSzuyYjGs7/Mg13sQRSZW+JOE0v0HvEw5va9FYE5yfj5p/+Dw/H1iGzTBUXWjufbaWrO7/yYWXGwcv3ElE2gMELVWkqliSnV/0r0zYhBpEsbLHIPwvYZbyPNhHlkcBsI9Q0e/ThDA7e+eCWuHkFywXgD7TIUXV+9kra+flwo3mD5BoSMofRavIZAYxC4wIqnMT4J6AfntEPolRUHlJdiXMopZHSdjD+5pnHbspfhHBuBvk9sgPdLEdgdOhT3/Hg3OjLt84f/guvRP/DmIyvQ4ZGVKBbNoJFhzeC5iGs/Au99PBLHngrGb5yezE0+AeuKskaW0HAyg4uCegLJsGgyVH7TcxgqqSnxBvvSlEK0tBoCjUTgAgLjHH5v0xVnffoibOePuIELoI6ntiCibU8cs7JH74PLsZcayEknH+XNf7jrRBhTMxgQfxi9SvKR4xqKCLlmaoblHsGNbA7wkVsA7rj9K7z0bAT+GPUI2sUewEPvDMQv2xbQ6KK00eU0J6GhIa8/KA2nMVyjNqgNY6NdubYQuIDAACqNTbBu6P0I3/EtBmUlwjl6Ez4O7M8eUjRwCmF8rrK6t0aV5cr3MuZRliV5TR1c5pUVjULFjGXcyamOTWkRXvEMwZyhDyPw4T8QH/4g/I6tQe9C2TNpWriaB+vV3LamoaylbikIXFBgCAj7/PugwtoNk1e8hjNtB+Mv706KRrGtxzT0PLUNvdKj4cnpQq+dP6DEzA3rfLtjp6UdHDOOokfaWThw8E9KONIoPEXE/OvrO/DF17MxJXInfKmpTGYZVqyjnNu7mSZmjSrH0EDUN80ylKZRFVzCRPW1o764S1ilVpSGQLMRMLjoqZa4hOsVT3cahfY7Psdnd/yMc8Y6GfPtjc/Cm7sfq14OgugWlW3C8dad3yDK1hWvdhyNocem4dEPhmG8Vw8k+FDIMBjX0DTOwbi0kHHntZQKaidfznoX//fXf/HDO+GwYB6ZhKS2vxHfht+F09bO/HXhbVW13fX+NbTSqJdYBmvtbdl6y9IiNQRaIAJG+LC0wRF4X0EG3MtKsIlv+Y3c+lRDT26bhnPQy8A+wrf/H7yu7nYM4PQhnAIliVaYu7gzMpPpNvP6uqr8baiVTKdxWBnzva9nGCYGU/2LstGjrBgOLDeXnz3cst0mZV8gBH4QVmOg6w/65n5vKF9twaL+rh0vza4vTu2OoWu142v/bmr+2vAZKq92uobqMZS+qfFNbU9Ty9fSXzwCjRIYF1/N5S9BBIYoH+cPqZ8fpPoPYlO+N5S29gOu/q4dr/S+VttqI1JfntpxtX+rZTQ1vqF8tdvW3PSGyjEUb6gfhtJr8f88Ag2uYfzzTbqIGg1sYeivCVyx9QEDbVN7e8XadRFwa1lbHgIUGA3OSK4BVK6HPjQMsyZUGsZIS3F5ETC2zk+8vDX8A6WbZ9OwrCrUPKR+4cqvCs3jwk3UrmoIXFUIGPueXQ3VhuKqalkjGyNtdzmx4nzqBlT/RharJdMQ0BCoBwFT17O/ov25csQGjEaRLQ+P1eujqp6celFXZkJwDmY5cXA9thw2h36o9wyG/hbptbBdWruNtX9f+C5cn1fNzBpne3N99v6f7VV5efkFd/OkNUYDBw48d05sIcqYuEIsMqv2GVRflvK3SiLIKrZyVf+alKKmqRF/Pp2y+q381BXECnVI1MjHa5Xn61baoZ9PNAdz/kdfOWo5lWW0mSgz07WvRvlVDZamsUw1VK/Cq/VWt72qXVVpa9RblV0tR+mC2g+lvWqCqrqknWo/qms+/6U6fVWUsb0JjCy5lFSlGVWWVqIyS2c1qzSP5vb6oXZ+pTlqG+qkPN/3GpeqftSfr76UEqfXV0NJLjJe1x4jmFjynlJOdO7cGfPmzbvIUrXsjUFAXk7r1q3DggULLphcMdyyCnaEw0hvmHnw1KiBcOFHz0Cm6uiqAdlQMrluoKKKglKkrotB6t/RPFNSCTNXS3hNCYJjZ3cKkdqbPQYKaUz9lzlNjZaxH+n7EnD2h0MoTiqAkYkR2s4KQ+sxwTC1E+uWlhfKcosR8+dxnPz5AMLCwjB+/PiWB8IV6nFRUVHDAsO6uzNa3RIEY6sGjT6vUDeqqnWzgd8cJ1j7OSDxl5MIeqIPbAJ4bP7qlQ2NwqvNjQ5wDGqF/S+tRcBtXdF6VNA136dGddxQIjdbdHokHPZBrkAjfTQZKkqLv/QImDoO94GxNYXFtTDw2EaXXt4w59vXxv/aFxbK7eT0xj7QBaEP9IFTR49r4z5c+uewZom8z14D/GGWd35qdrmr1MpvHAKmlr7iHq9xia+GVKY25nDsxoF1nQW33q1pVV97anWddbIJ3TGzM4eZW13nzk0oQkt6GRAwhfE1tg/J5hrVWbO4DMj8w0Vej326GAgVG5lr7dm8mA5fI3kNLlyY8tBYX5sOsDW2ru5K8blSRJUmIrokqdndE8MqdzNnZFfkobjy0jvEkZV2V1MHBFm0gb2JDcq4ZRxXmopTJbGs+fILRxPi1s+6g6K07Sg8jAo9nyHNBo0ZpV9upk4ItPCBnYk18iuKcLY0AUllGfROcvn7dTFtr53X1MgUbmaOSCnL5IZSzV2g2mkb+l1cXIzY2FjY2trCy0vMAnQhKSlJ2U1zc3NDXFwcXFxc4OAgxxm1cDEIGBQYlsYWuLHVMLSycFEeVglycwv4oP6S9Be25R9qVr2upo6Y6z0Tv6T+jSOFZy75IG5n7oO7fKbCmQ9kBbckzflwimBak74Nv2duuOyDy8LIDGPdhyrY7I0+QYFR0iycamfqYROKGR5j4GBqBxHm5ecqUMR78VvqGmzK3X/NiAx5lrrbhmCU8wC8H7+QL4782l1t0u+YmBi0b98er7zyCp5++mm6iNU90n///TfErmDatGl4+eWX8eCDD6Jnz55NKltLXBcBgwJDTZpakoHXY79GYWUR2lv54X6fWRjhNkARGMb0utXB0h8e1BhyKwpwuOgsCiqLlaxOfLBDLfxgY2KF1PIs5Zo1hdAox37wtGyF7jYhyCvLR0xZCjzNXNDewlcZCKIJxJam1G1pI2O62YfC06IVPov/GdvzDsHX3AOzPSbC38oHVqxfhIeh+gz1x46aSrhNZ0QUnYaPuTvfjBmIpKYlmlKIRVuYEIfo0iRElqhm9hwWskCraDqtiUkR9hWepPBonOex2l21pUZxi9cEmqAYY2HSMhwqPIUAahoz3cdijOsgCt6zyCjPhrOpPUIt/agVWiGNv48URaL0XJmikYTbdMFB5pM3u2gqJ0pimCcHPaxDKFYrsafwOEory1iuN4KpnW0pOISuVkG8cg772XZHE1uEWLZV7qWUq1plhFj6oo2ZOwrPFbP808hnX/XrczC1hTcdK8XxPp8sjkOAuRdGOPWDi7kjBtv3wMqc7Si5CE3zyy+/xJIlS/DOO+9gzpw58PQU/hqdM2WZ1sjHWFsbqv1INft3gwJDSi7jQyc3NaLgJHLK8yAPsFga3dlqAjrZhyC9LAutzF0QWRiLd+K/4wNjg6fb3K0s4uWVF8DVjA9o/lksz9yEMIdgmPGtH2IfiNPFsbA0Nsdd3tOUm1rKOkYZDcI3CUtwrDi6WZ2qrDKqamPpiYNsb2JpOj5M+EGZmsiACOYArr++GIP9cWP7p3mPRWj+abSz9sVfaRthlG+EOT7TYc8BUcqpGh0WYlHSCg5m3V6gpYkF7vWeDndzbg8ytM/ahwWpy5us4cjA7GnXAY4UwL+nrMEWRZswwoHyE8iOz4UlNZp8Cus2FGT3eM+AMwdiITUPuUfH8s/go4SfFPyl/e3zAuFk7sA2uSClJF25N45m9nA1d0Jo1iF8nvIruti2p2Y5FG1yWiOAfZV6A7P2oy0Frgvziq75VdwiHKTwnO4yAgOdeyGV99+ROAws7Y3X476uri8oL0D5Lm0qqSxhvl+osbrCx8pDedl0cQzDxrx9zRYYycnJ2LlzJx5//HFs2UJ/sxER1QKjWQ/PdZ5p8+bNim2LTM8kZGRkQDS0bt26NbrnDS7LW3BAD7XrgTH2/XCH+yS4mTvjOB9EG2NL3ugybOdA+HfM59iUuRsd7YIpOPjWtfbnQ+KE1alb8Cqv/Zr8N2KKExXBsiZti9K4n5JXYBs1gEF84OSBejn6UzwR+S7KOJEId2q+6rgv7yhiixIxynUg3gt8Co+3mY3hDr3hwDekvEkN1Xeh/qiagSPf4I+dma8IPinHgw//O7EL8NjpNxFflIwQ23bVwIvA+CN1PV6O/FgZwKG8Jm/+pgYRGKLVSBuSi1Orp3AiNESrOUGNrJTCcJhTX/hYeuDzuJ/x6On52Jy5B93sw9CLwkZdR7EgVcMzke/jJIW3pD1VEIX/xnyJ7NIctLPxVTQDdfqZUZqFJ8++rbQ93LkHvkpagk/if1IEUaBNW2qVLujj1A0Zpdl4KfoTLEj4DW2svNDfrkt1faJdPBf1Ib7mC0CwC7bxx/qcPUgvyUROWS7ei/0W2XwBNTesXLkSI0eOVNYpRLt4++23Uannwa255V6P+UQ4vP/++3jqqaeQlpamfF566SV8+umnyMtr/D1oUMNwMLPDRM8bFAzlDb0j+wB+T1vHKQot8rj4OcK5H+bzwbTgAJFgz4F5uihGeetN9BiBEa4DEFUUh+UZGzkdKKmea8sDL0t1rfmQybfnW9+j5Ldjfj9rehtvZpBB9F7cd/C38EJb69boYBuEG7mm0MEuCO9S+zFU34X6U8Z+Szicf5IDSDfl8uMbN6c8H5HF8cq1DxN/VLQMdfkxl9Ot49SSZIpWWF4Ec3oWszA2U3BrWhCWFlkY1KnXhvL6s6+5bE8ENRyZ2p0piMZQlz6K8E4sTVOyncqPUtoXW5KMYNsAxBUnIa+iENI/cwoTWX9Rw7784zohRQ1NpiVxzGNN7hkJVpxmysKyFe+5TPPe9HtMmZbJgm+YTQAXxXVTs6N5Z5j6HE4WRSv5rJlPf3nWqIqLRrnYxJCbm4sdO3ZgxIgRyM/Ph6WlpbJ+cfDgwSa9MZtY7TWb3NnZGf/5z38watQoZW3HysoKa9euxa5du2BnR9OKRoYGBYasYfw39kvdg8U3mdxwGeAyz53uMZpvvTQsTFmuqM3DXfop12Q+/ULkhxji2BMhVv7KmzfAug3e4FpI7SAr2aLSr8rappSt+918g51gyzZ88M05Jz+BvfwsTl+DJ3xupxBqDR+zVlXl161P1hrq649+e/Xn2qKai1qtBmtqXLJGk1X1xpRBLguTcm5GfWtXHxipDcIFfgsmZ4tiMdyoH6cFrbG94LAimKTU3jZh8LJww8acvVyQPleDoFknjo2UNqiDtILamwRZvBacK6V91a3TH8oyDZV7TWHFdOVVAlPVVHT3SdfotNJMbMraLYsGSpmiRerqJpWN4u2VlvxVazc1a9Dlb+7/KSkpytkHc3NzbNzIKSLrLysrw4YNG9C1a9fmFnvd5hN8goODIVrZ/fffDxsbG0XgOjk5NanPDU5JpDR56OSmy/tTfRhkEUzWH2L4NjnLt6y8cSXIrkQv246Y5TYaO3Mj8Eb8AmzL3gdLvp2cTeyrH097UxulLNE+ZEcmhm+7jdl74U41X96QzQ0jXAZgbpubMNShJ+y4Jexr7gknMwelD6LhGKrPUH9E+NQXZL1Gtm072QRSczDHwz63YBYXIS91EIz2559AYkkKBrv0xkSXofDgushA+26Y5TmO07deSv0yvZC1o94U3LI42tGe51GI4wFqCuo9u9i26Q94WfwsoOYk61F78o8q61eyblTC9a4LCQbdfpsIWxNYEdsLpb1QexcvXoznnnsO8+fPxxtvvFH9V4RHenr6hbK26GsiNGQa8t1331WvZTQFkAtqGBd60GK56p3Ah7ivY1dFWMRxjUIWz6a7j8aS1NWcDvjgX7Z3KYNU5r2n8iM5506GKR/nfKrBN3mMU1RgWfvwt2yNx3xvR3FFifL2+7ngz6b0oUbaNRlbuRPgxMF0I2Z7TVLU+eyyPOzMOkAbEtqPGKgvsSzNQH9GYWnaWqUOfTw2ZO5SFgLv466RCFNp+4q0DVXpRLTyjV/VMlXQNndwyE7HgoSlmOUxFqO5NjOp1QhleijrDItSVyr2DOuzd7I93riNfb7p3DhFC1nLrWTZum5r6V2r/eyJGEZVtVD3GlB/V7VS/aPsNNR8r0h6ERibieVQ17542f8hBZssrmcsoUYnC5018dIVJmnk9G1kYRz6OnfDo7zn78ctRDyfo6aGt956S1nklDelGkSzKC0tVRbyZC1DPqL1iOahBR0CqqbRXDyMbj/2jCr0a5Qhc9L25m2UuBOlsdULWfqJ3Lk952HqgrzKQm6PJitbZmYUAqdK4pQFPm8zV0XjyOX1WBpPyYMv5frxrS9v/xhun2ZW5Cqahw/TykOeXJHJAZClp8Y3vWuywOnFRTlrIwuq1hVIr8hRDJzUqYGh+gz1R7Z+25u3hgjJVE631CBaiUxzTNmn5HJdu2VQtOd0TcGNW5cydQix8FX6LQuUouk0N6iYWhNbEcQJ5enI4VqRKojkuuyWWPLNnUXDuNiyVEWYiQbSkVvcavuln17E+3RJvLINqt8+waYN+3S4JFJZ1G7HbVYp70hxlKJhduNWa1J5BhLKdG/x1kwr6xmiWcj9lC3k2vXJfe1mFYhE5ktkPtEog2gvI/fjZNWibR1M2CmnjRV4577X61ySCJmSyGq/anehJpLFPRMTugyomiLJ/DwzM1Mx7JJ5uxYMI/DLL7/gnnt0a4mGUhkUGIYyaPEaAv8IAg0IjH+kDS2sksYIjEatYbQw3LTuaghoCBhAwJha4bUXqoyzrr2GX6DF12OfLtDdBi/Jc3ktPpsNduzaTmBcnl50TfWgorgcBZFNJ2W+2juZezoD5UXa4px6nwSLihwNj6vtuTXO255KX57XiCjnvLYgOhtx3x1BWQ4PdamrfVcbqk1pDxfnSrOLcfzTXciNzFDsGVp8IAbZZ9NRGlfY4qG42gAwzd+kExj2A9xhSj+Z9Q7CBuRJA5cvSZ8rC8u4I5qIhN9OoSy5EGc+3gvv8UGwa0/O1Wv1cBF9emYdTcXZXyOQsS8RhZn5aDezCzwGtIU4CmqJoTy/BIlbo3Ds+z3w6jVGM/X+hx4C2VVqjFm90YyZM7m7xSEv1sf8U22VWCUFlN/VEqHqar2/dZE1p+K6os/3WVdWdXa1YP0qJHFVIefTKZE6hypVL2DVszf3DZXi6ytTrbfmNRag18iadZyvW81bs2z9iurkrNWOqhJqJKsnjziJ0V96ZhKDGl892c+384IX9btT/b3pOeot5tJFSoMIhzhDlr9yjzt27HjpytdKqhcB8SkyaNAgZGVlKXYsFwqmvm10NgMXSqRd0xC4UghUv8CuVAOu83pLSkpw4MAB5ZyJzpjvwh1WLD2jck4hi5aOWtAQ0BBoWQiU5JciMUE39hWtvYGgMw1XNEBtsa0BrLTLGgLXHQKKVtGEhfZ6z5KIpAlp2xEdAzor5whORB/BoTP7FTNcJ1tnpOc0rI24OLgiM5fm2I2QWtfdXdA6pCFwjSOgnr+pTVVZx9JT5oy+Xn64Z8ZcJGckIYWfO6bejeC2oQj174AJQ6cqQsDE2AQWZpYwN7VQ5j7yMaXPB/ltZmqOe6Y9ACuL8w6Er3H8tOZrCLQYBGR8b9u2TfnUfuHX1TA4jXF1dFNc5iWkxeFM4glsP7oJZhQG8+54Dl7u3tgbsQdD+w2Do70ztQ4TrFi/HDn5OZg6ZjoKCguRnpmKHp16Y0Tf0Vi2YUmLAVrrqIbAtY6AaBYiKLKzdcaRmzZtQv/+/aFqGnUEhmgKh04dwLptazBr3K1oS21j2/4t+O6Pr7H78A60zQzA/tM7YW1ljYOn9mJI9xEICQzF9v3blFOC7373OnmdyxDeYwhWbl1+reOntV9DoEUhIIpC9+7dq3dMRMPQd6JcR2AIOrZWtli18w8s3bgItjb2mHf7s7hpzG1Iz05Xlkad7FwwsPcg9O8eDicHJ8SnxCnxGbxeQQb4ak9UTVhMaVF3ReushsBVioC89C/ksq/OGoY4sOnfdSAen/0sXBxawYy+FETryMvPpTCgL0BLawS1bQ8XTlve+34+ohOiqtSVmrsslZUVsDLX/A9cpc+F1iwNgWYhUEfDEO1gxeZlsORgf+quFxQPWLsititrES6Orhjcczjd7VkjPimW11/E+l2rlTgbG2skJidUN2Lv4d2YNHQ6Fiz/olkN0zJpCGgI/LMIFBQUKA6C6wuyQyrezYyeeOKJc1G5p+hqvqYfRJm7qDR2IkRUK7AKag4yp9GtnoobOjkhX6lsv4p9tppO8orOUdu9W32N0eI0BDQErgwCJQWliN2VhkOHDiIyMhLijb2+YG9vD39/f7rYNBBk4Ivb+NpBtlMlqIJB+U4/nbrI86n1PWqfj9W+aQhoCFzLCNRZw7iWO6O1XUNAQ+DyIlCvhiHTjX4dByLAJwinY09i17Gt1a2Qa/5egejbKRw5edn4e9dyZWekjbsf+nceiLyCPKzb+zeKSs77MhBtZHjP0XB39sCBE3txJOoQ7KztMazHKBp3WWHTgfVIyoi/vD3VStcQ0BC4aATqaBgiEHp37I+xQ8chLjkGA3qHo1dIf2WrVCw53Z09cde0e2gFmohWrVrh/umPKtOTB27+P2TnkWPVzR3jB09WGmZpZsUz9hW4adRsdAjuwPJiMXn0NEXgTBkxA46OjsgvzsPdtCrVzrJc9L3UCtAQuOwI1BEYFZXlGDtoPJat/xUbD6zB6dOnEOwfjM7tumPayFno4NcZZ2JPY/3eVfiWOyAh7ULQq2MfZXV1+dYlWLtjJQL9g2BjZYPn7nsFxibGGNxnOL5ZSv7Vg2sRGROJTu26Ml8Y/tqyDEs3LYKbgxvaevtzzbTh03KXHRGtAg0BDQGDCNQRGEL808rZHWlZPGDGbQ6ZYpiamyLi7H78tmYR7G3I4F1FrVFZeY4m4dnwauWD1KxURQvJL8qDE03GC4sL8Z8vX6ItBs+TsBwxHZdQXlqubM+4OLhQu8hXNAsxCJM6NXlh8D5pFzQErgoE6ggMGcAyuJ3s6PqOL3xragriAUq2U4tLi5W1CWNTXTYjeouyoyVoVk4GnCkkZCvV2sIGhUUFyrZrQVE+SspLFEEi5UgwszCDOO3I5zURJqJVONo7IZeCRwsaAhoCVzcCdQSGibEp1u1YhfFDJsPRzgnBgcGIiY9RNAs5V3I85ggtPYPh4eKJSUOmITk1GTsPbYeDvQOCW4ehd6d+iIqL4rkSU3QK6qrQ1O0/ugezRt1KoeKKdn6BOB51FKejT6IP10q6tOvBsyclXFw9XWOr9uqGTWudhkDLRKCOwBBtYPWOv3Ay6jieu+ffiE2I5VrGavi2CkCPsD6ITo7E0jWL8cgtT8LX0w9vLnhV0TwWLv0f7p42Vzka/yunLhZm5pg4eJpyDP6zxR8oR+Gfuut5bNq1nrskB7H475/RKbgLZo69FQt++wblFZpL+Zb5CGq9vpYQuKCl5zmx1qy28tQ59JUdEZlGyDVZnFANtOqLqxTG9yrjL8VqlNOU8+XR77BSBk/DiZWoLHRoQUNAQ+AfRaDJlp6yZqFsadYaryIYqi04lS6IkxxdX5QctaxA64tThYXkqs/ys764fxQtrTINgRaPQNNe1KZFxUWIPZYt9aFxAAAgAElEQVSI3EJt0bHFPzsaAC0Ogcpy0fob323TtLQ0uNq7KR8taAhoCLQsBGQmkWWb1ehOm7Zu3Vpn/qDZTDUaNC2hhsD1goCYOKSn7250d0xFG9lxJhNbMshVqgUNAQ2BFoWATWkBWiUlNrrPyuEzERrmTZjHNLp0LaGGgIbAVY2AmYz7Jixi1LHDoLU3uvm0wiMjeqJUflxkKOVW6p39O2J4e1/SoJ4v765B3XDbgM4Y08EP5XrxUzv5Y3JI64usVcuuIaAhcDkQqCMwKriiEdTOF6OGDQDtwavrFEHkbmEKX2tzuPJsiQQvmnnLd1f+FU5hT0sztOF1O1IPVAfKiDIzCzxz9/Tq4tztbfHgLRORkluIrPwi5jWCl+S1Mke/7h3Qu3Owkr0Vy5b6nM2qnPYwTurQjztfkfZNQ0BD4HIjUK8/DDGwqn0S7Mawtpg+YSTszI1RfM4Yr331C956+BYkZeXjTFQszkbHY9LIgfTSBeQWFGPOe9+horwC5pQk327ci1ljBmNMSBv8dTwGT8wchS37jyK8WxjPppTCzvYEHr51EoryeNDN0gonDx/BWKadPnEk7Cmk8ksr8OynP2NYpwDcMKgvrI3PISmvGJ//8DsOJDd+hfdyg6mVryFwvSNQR8Mw1OEBvbvizImTGPPcx4g4GYm5k0fwnEgF9h0/gxd+XIl+fbpj7eZdeGD+V3Cwtcb4nmHVUw2p5NDhYxjCOC8HWwzoGob5P/6pLJ5U0Nrz3ikjsXzDLkx4+TNkZGQytREG9u2O2LNRuP+/XyE6Phl3jx+CR26eiE8WrcDo5z9GaWEBxvfpYKi5WryGgIbAZUCgfg2jnopMzM151L0QckI1JiUT3YLaKtuxZ5PS6RSYUwo3Z4SNG4oJw/vBlOdHTBUD8vNh/e7DuO/mSZjROx3bIk4iKjNPd5GJ3BztEZOWyXMnpDPIkyPv5Eah0OnaNQTdOrWn1mKMHYdPwcrKAocT02FOHxulRcX8bVlPS7UoDQENgcuFgEENQ8y2A+2tEGxnqawl5KWnw7tNa/jaWmLywO5YufOQbnG1asHy1JkobNh5EPf850vsPHYWm45Fw0xv9XXF8VhYcy1i6OB+OHHsZHV/JMmOo6cxObwbfG2s0DE0WBE1yQmJ2HboJO5+9XOsYF1/7j1K936RuHtkP7TmWoeLpweORp2nNbhcAGnlaghoCJxHoI7AkIjMrBy42Frh17fm4cf5j+ORGaPw6rLN9ItRgU+euFOZhnz611ZExcQjJyePRAPA+7+uoSMdF3z65Bz6uyhFCuP1g6xtvP3jH7CsLMOiPceVrZykpFSkpmbgX9/+QcIkY3z85J3Ysms/klIz8cqyLagoK8Xnz9wDP09XREQnYtZb38LP3RUfPnkX9kccx9c7j2n3UkNAQ+AfRMDoSfKSiOHWzszzhluyN1Kut0MiWyDmHOCyRSrzDNEKRHuQ3/JXphAS1G1Y9XrtfijlcqtWFkIlyHaqcsSNP/XzSpxYlKn1SQVSv34dUoRpVVzterTfGgIaAo1DwJqGW05J+3Hw4KHm85KIxiDrBLWDMmhV6SBpag1YVRDUzqf+VsqtEhYSpz/g68tbuz7JU186Q/Vp8RoCGgKXFoG6UuHSlq+VpiGgIXAdIVDvLolMBe4b1BXdg9pg34lofLY1AuZVnS7jteGBrTElvCtSs/PwwvItMOfahqWZKZ4eH46tR8/ib9pamFRpH5L+tl6hGNo9RNk1yS0owhd/cn1C4of3pndxC/y4dhf2J8l2qhY0BDQErmYE6mgYMsBn9euCqaOH4PDpGPTr1wv39usAW05RXLhb0tXDBU/MmU7fnomwcXbGD/93M0q53vHi7Ino0683OnUIpjDQzVz8bSwUB8IjB/dFMjkcI7hYeux0NHKLS/HgTeNhamGBLBp5PX7XDP2ZztWMl9Y2DYEWjUAdgXGuvBJ33DgYHy9di482HkQceUnaB/ljbJd2uG/aKAynteUhCpJP1u/Dv75Zik4hAXCxs+EuyWocPR1ZDaYjt0g/fm6u4pbP3cWeC5xA2zbeyC6pQGxhKQJ9vbGQmsWLSzagJzUZXzenGnYbLfquaJ3XELhKEag7JeEAb+PujPi0LG6X0rlGXiEsXVph6cEzMD8chafG9ef0pELRCMyYNjW7AN52VoigQZX+qbfswmLc+u/PxDcfIihgZCoST2c9syaPUhYuk9KzMKxzIHxdUqlpWJJRzRGR3E7VJ3m+SjHTmqUh0GIRqCswuPaQlp0PD2d7VEaegwM1BRNykpRw2lHMsyG5tLA0czJRtIEyGne52lsjs6iuLw3hJUmhkLDgVOaln/9GTm6BsvMSEtgWXQPb4JPvf8fjt45HWKAfilhmSmaOJixa7GOodfxaQaDOlIT22fhp9TbcP3EYQl0c4BschJiYWPg62KCrnw82HY1C52B/dPZyxfPThiM2MQXxPIAWQqtQU+Y150lVf54wNePf0TTtLuEaxq/PzMHcUf0RTCHk6+eL47FJGDmoF1Zu2o3dh44jIjIeMdQ49HZsrxX8tHZqCLQoBOoIDJkufLpqGw5wgfKrZ+9BTHQs3l23H73aemBUj1BsiUrGF4tX4r1HbkNIaw9M/u/X1ByM8N1rj6BPcFtM6t8VbzxyK6zNzfDQhMHKtdvf+g5Du4XgoyfuwPpte/HF9iPYe+AIZowZhAnD+uH9b5coTGla0BDQELi6EajX0lOaLLslMoZVq02x0qxkhBhbiV8d1emNakhV29mOxEtc7eti1SlbrsqUpspBjxnTatrF1f2gaK27PhFouqWnjFRlANccsooVZlWUDG75qg50VYgIhKpeIINeP0i8xNV3/UJxNQrRfmgIaAhcZgSa9qo2lQXH/Pjj8MwpuMwN04rXENAQuNoQMOKGRo3zHg000DRdjq23coIPt1K1oCGgIdDyEMjKarzXOlMfHx+dR76Wh5PWYw2BFo9AcUkxhMyssUHHS3JW4yVpLGBaOg2B6wkB65ICuCdrvCTX0z3V+qIhcNkQoE/vGhbaDVVUxw5DdjDa0sDqtalD6ucl4RZJcDPWOyZ3b4/w1o3nb+3k7QbZyn1mwkA4WqpnZRvqjnZdQ0BD4HIiUFdg0NbCg27wxo8eKm63FJ4RD3KBtOXJUwdabwa7OuChmTfCm3HiW9OdnCTuHNCy5SppA+jz05lH3SUI34gf8/laW6Bn904I9fdW0ltUbcG2Y1oJklfSSV7Zig1wssP7j92Ocl6LTs5AGc3SrWlFKmnkI991XCY6jhR/G0s4VnGXXE6wtLI1BFo6AnXPktRC5Me3nsbuiBPwcnVEVKL44EzHEJINld00GqFBAUjiuZPTkTGIiU/ChBHhMCZtgJxMveut/+HuYb0wtH9PZKRnwtHVGZEnTuG1R+/AL8tWYWVkElZ8+jL8bn4C828epZyIFXPy6LgE2Flbo11bH9zVvzPumnEjtp7+EHPGDkIoTdPFBuTAqWj8tGYHvnr+fqzZHYEufl4oJeXB9Pnf8GCcauXR0m+t1n8NgUuPQB0No3YVJaVlWPz3Zrz+v9/QPsAXu+kRfC95SR747Dflzb/32Bm8yMNlvXt1xZ9rtmDcC58oR9qnhHfHnZNuwIuf/4yb316AbB4+ExMRfRPwcxQuvtQmhg3oiXvf+Bo383TrvgPH8OEfm5BCwfQ1j9CfozWoGSkOJg/tg3tZzmMffI8pNCeX3WNbSwt88dsaTHntSwTw6Lw3D8JpQUNAQ+DyIdCgwCgvL0caT52KkxxTE5PzJ0rlVc8QmZSmTA+seEQ9k0fhJaRm5cLNyQEWPE9yNj2bHCVARm6+Yh8iFAJici5H5yXCkdOaEk59UuhIJ4/exr/ef0YpTwlVfyzplUsOtSWRVvF0frFyTsWM054c8qSk86SsCQssowFKfX5IdQVp/2sIaAhcCgQaFBi1KymjOz5rvtnbVK0/qNcz0lLRLcQP7d3s0SusHVbvOoRoTmFuG9qT6x6O6NcpSNEuiultqzXXQca08yYRkRUOpWTzCLwRpvXphP50pLN9/iMoFIpFMzOYVy125lPYnEpMw+SO/rilMx34kI+kvKzsvESp3Ujtt4aAhsBlQaDOGoYcAxP2seOnzlINMMaZs9HkPy1DuXE5znKtYkd8Ogoz0/Gfe6cqnKrZ2bkKL8mHS9bgudvG4Y0HbsLnS/7GQQ7q2fO/xvtzp6N3e38sXrkJGdQ8NmzaobCjxXExU+gTzTktmfLix3j3nimwpObwwPvf41RCKk5ExeHRMf1xmnSJwr/6/oJfccf4oQq14kff/YZitkmuqeH06SjI9EkLGgIaApcPgXpPq8qyoZxWVblIVDoBiVP5SKRJMmOQQ2pVM4dqHhHZ9ZBTqRKUU6z8LvzrqjctOekqQkYuVZ9mlXkK/6knVyWflCNs8lK/2iYpU+VCEWfF1Xwlet91NWv/awhoCDSEQNNPq9ZToox1dSDqc4+o1Ie1+UjUIhrLI1KdX5U0an36v6u2XrlqohSv36Ya9VX9MNQmNa32V0NAQ+DiEWjyGsbFV6mVoCGgIXCtIlBnDUM6ItOB+4d2R49gX+w9HoVPNh+swUsyIrgNpg3spvCSPLt0k8JLMoxxE/p3QU5+Ib76ezticnU7JlKeTEHGtPdF347t8PKS9dVYyTTjtj5hqOBOzI97zxM0X6tgau3WELjeEaijYcg6xc0kKZo0chD2HDmNPn164L7+HWBP68pWtNLs5umCeXdOx8HTsTC3c8CPj94CE0tLvPLgrYp3cBs7W8wlHYHsjAaR+V0Ii4Zy1+TB26egf//eNYSFv7MD5t13C7lM2l/vOGv90xC4LhCoIzCEl+T2seQloUHU51sPI/bUKQTTonNU53aYM+UGDOvUjrwk0fhi0wHMW/A7OtJC05Wm2Q+9swCfrN6L0yQ4EkMrB2srvPvUPYpNxVnaajz5wUIUFZ/3Lu7KLdPn50zF8nXbUFImRuBa0BDQELjaEagjMMSqqjUd6iTQ4EqMq7I5xag0McPv5CX5YMlquNpZV/OSmDNtKj11OZkaIzotE3u+eB63TxmNtVt2I4e8JLe9+rmyWJnA7dTaJMp33NAHUVExyMvIqDbQutrB0tqnIdDSEagrMKgRpHFtQuEl4WZmNS9JZSVyaQ8hgqDCyFTZ5iwlL4kbzbGL+MPWwhw9730VH/6wDDPGj1CMtFKYtr7gZmuNyTzc5mJvg55dQtGNdhoDAryVbVYtaAhoCFy9CNQVGFyr+IE0Aw9MHI5OrRzRlrwk0aQaaOtgi27+rRVeki7Bfuju0wovTr8BUQnJNAE3x48vPoCebVvBjlMNmYbIQbJx3UMVweLJk60ybTHhVmlHRxuYcJH0i//9jL0HjyOOvCYJKRlIVoiMrl6gtJZpCGgI0O6qNggydfh81Xb4kA/1kyfuwppdEXhv/X7M6uSHgEB/vLp4DT775S+88eBNiE1Jx+TXv4FRSQm++2M93nj4FmWX5N0ffoc1TbvvHRuOZXuPYc64QRjdv5siSD5/6UEsXPIXPuX6iARj1mdpZ4czJEPS5EXtu6H91hC4uhCo19JTmihboTJFkEEufvzEmQ2jFAtO+V5eZcGpGkwJY7vsiMior22JKcfdhdNEDaYUEqpqI2WJGlJlp1WdRvuiIaAhcPkRaLqlp7zWFdPrmu93ffNuGepVyZQphnxXeUhUMSADvvqUKa9LvAgO+auSF+l3X82n1Mr/zosT/VTadw0BDYHLi0DNcd9QXTpekrhj8KS/Ci1oCGgItCwEmsVL0trTFfLRgoaAhkDLQkAOhGZmZja609W8JOLYRgsaAhoCLQuBEhpTJicnN7rTGi9Jo6HSEmoIXH8IWJGXxCM5qdEdU7ZVZdnDvGlrH42uQEuoIaAhcPUiYCHblU0wgKpruNXIvlnRp+b8m24wmNqd1pxupBdobJBd2p6+HsopWcXpTgNBknSh8ZikfWb8ALQnV0rDuRoolJelvBcnDsT3j8zCD8rnJjxFbpQrGcTh8du3jcXIAM/qZswO74Iw2spc6TC1ZwgGtWl1pZuh1f8PIdB8gUG/nuNGDlUGqXCWuFqYwp9+PuW7GV373TJqAEZ3DuQ5ExNaepoj0M5K2YqVE6/B9lYKv4hs3UoQ3pJge0sEBbTBgL7dyWtiUs1t4s5y3fhbUrZhuhAHa7iamyqWpO8/fgcCWefZhDTkcS4maaT+9izfndalElyYVnhVhPPEhw6HGww8fDdyaH+cSMzAlj0R2MpPxIkopU2t2BYJtqzbhxws0h4JdvwdwjoFCzfWJ+2VOOmnfGxoPSv4yIlf8VAWyj5IW2XBKZi4iISX9km88LboB7GHmdgzDL5BgejQJaz6Uu/e3RBAgSl5pE4HnudR+yyJfImDJesT3AUzwV2CG/+25+92PEksRnqyFS51SzpP4uPEF4G0q3Z7BMfW7K+kkzxB/CtpunftiGDSPGihZSBQx9KzKd2WhdIy8oF8Sn6Qk/GpsKL4cXZxxue//o2ZNwxAcmoaXHnWpN+AvijMycZ7PLz21G0TIVs554xNsJy0BEmpmbj7lkkwKiuh31Az0gqU48W7JiODh9pe+WkFnrzlRpTm5WLnsShMHjdc8TJeTCfBf67dpnCXPHbzWHRo3w5pC5djrLMtBpEHxeJcBTKKy/DlD8sxlSdvbW2sYckR2sbHAzNe+BBZBs646Pd92+k4rOKJXMWijIP9pckD4eDugUe/WIIpQ3phRO/O8HRxRPgjr+OhqTdg0uBe6P9//8X/0Vxe+mrn6oaQtl6KM+N1dIjs7GiPrJQUREQl4Z1n7seMZ96mD1NzvEfr2G+Xr8Poof3Y7nJkF5fj6Q8XIq7Kn0glRcvdE4bh2a8X4993TcEHyzcR8zLYW1tiwsiB8HK0Qw49p//+9yaSTw3BzJc/hjXP9Sz877/wx+Y96NUhEBa8T8eTMvD6wmX4dN6d1dwxC/9crwi2GRNuQG5unnLv1u0+hLzsbIwaUrM9c6eNho8H2ejysxERmYhBFOwZ6RlwcXNT+Ga00DIQaLaGoQ9PBSkIjp2JwR3vLuTbPoXMZTZYf+A4fuJAqKCKn0FHwTPfWEACpDBk5xVgwsufYf2WXejWrROG8e2ZGBePSf/+AscjY5VixSpU5S+Rv2Ik2qdXZ5w6fhKjyXuydMV6LDsciZT0LMz9+BdU8myKvIkfvGk8Pv55Bca/8jmK8/NxI53zmJMaITU2Frexfmu+Pdv7elVbnYqm0oFtlTdn7fD9c3OR8vcnSF35Cb545GalPefbRJ+nxcUoLixC73ZtMIxnZn7dvBfD6AndwcUFm49EYvPOA3iBR/q//301gmhSn56UDCtHZ3Tx98KmvYcxfkB3TB7UAz+s2Y6TkXF4/5tf8DCdJpfR9LWL7/mpx6QOfjhLh8kVmVk4HZ2A+0b3U6ZNguvW7azzqffQvo0nTmQVoJ2HK/oE+eKWIT0RGZcIdxcHZNK+5vnPfsbSvzbQSXI52lJoLuRZoTe+XERHywno1Kk9du7ehxmvf026hkqWW4kTZ+u2x5pYRZ08hZve+Unhm3mJfDO3vbOQ5ecp2pIWWgYCF6Vh6EMUl8Hj8HwbywOn8Jfwosw45G86BYaMejdHByRl5CjZ5MyJqVAJWFignGdRJHESD6DJW1l0++ptXimEwdTcAkVFxaAOgm8PRqKVOsirrhtRY7Him/UYB5eo2mWcolhy2lTEt3E+B7Y0pIyevcwpNGTqIINuKjWFKcP60KtYJJ7+3+9KPWq45dVPsYqexpQOUMN4cWI4v+hWSUyo6ovavmj9Ttwysj8ORiehLDsLHQJ80NnPE/fGpuLnx2cr9dlREzhnZoFtJ6Jx8wQe5KPvj/Xb92HO1FGkazDH2Oc+xL9njoStoyMP5XFA0x5GDumpoWenYPQJ9kWnZ++FEavvHhqAT1duRxE9pGeIsR21rRKeInYgd8v/qDE8MWssnB3s8K+PfsDOk7F4btYNmP/wrYimu4L3vl2Ke9mvR6ePhKPTMPy2eivNcM2QR94Z8L6lZGYrPZxMTGydnGq0p5Be2nPoTZ4EMbDgfYvkfTRhahFImsQ4/9xc798uiYYhINV+y8hvRy586gI9gHMQrKJqPpRv41Au1nVsH4B8+sJISk6Dk5cXOnA6Mb5/V5ZjhERqDoHe7lwTsUI7/7aK8MhNS0Mbfz905AnaXW8/DjMKBxFMQc52ShVG1DL2kIXtvtEDEMRpkKunJw6fja+qv+4fESqfrd6hvKGfXrCsTgIrqurGtuYwtyWJEtckMingLK1slHWaET24lsAO/rRlP8bwUF08T+xGkTelb69u2HrwJFpx8Ao3y+v/W4r9ZIqzoeDam5COruSW7c0Bv/lEDDIKShCdms1yizByQA98s3QNPlm+gePRVBEkEmTNp2fnMNzzn88RPu8dDHjiHRw4E4ebewSjFacinYPaoj81FlMK3aOR8Vi4dienaa2RwbbuZN+/e2I2tkacxqNvfEW8uE7ENaJ7Jw3HK18sxrZdB+DX1hvnCvPh50tB5+WKsHa+giTb07NOe6oFOAVHJPs7mzSYYa2c0Z8CTZ/Nrg6QWsR1hYDJgP79X4rPLEJ8kazFNz6YcGGzXzsv/Lz1APr4eWDfyWjEZ+Zyt8IRqTzFWsApwXjOy3ccOkne03Ls4wMcyWPs1jy6NmfiUPKKlOK1n1dh/ZkEDAlujWkj+mP9vqMoLy7CK79vxIQeoejXOQgn6N0rLSUNb63bh6EkSrpp5AD89PdWrD9yBu0crTGBan1yWgZ2Hj2Dd+lLdBb5WCcO6Y2t+4/gs40HEMr2pPP6oaRM+tzwwrYjZ5FMPtgqxYRvbZ3WoPZcUAgP9MZ2li/9UdMdTc7EyE7+GEiBt49+TqWdKw+cRGdvV0SdOoO1J+IwoWco3vt1LWLoTMjVyoxt7YfDVPs9KXiMiEFKWjrjzfG/DfsQ6maH5KQUbCVumVzruX/yCDjTOdGOvRHwa+OF9RzoIV6t0JPYvv/3TkVrkkXiQBszEkBZKP5UrawsMYnTjx9XbMS2U7EKO10HTk/i6Jho09FIhQv3XzNHYRSF2p5Dx/DF+r3oxIVS4XexoUe0b5auxYajZzGWJFJ9KOBSuG4Sz3v315Y9uH9KzfYkULALjsdSsrBm3zHcQ8Hct2MQ1nDqlUQXBSco/LRw7SFgVlEGq/wk3HffXGRlZVFbPe8VT783FnzhOFHrNHhatTFdV3lBZP1AHmbRKmS7UwaZDEOJl10B+aFq2XK9nBGi2ijXqtLJqVWuzysnYcWaTHyLylUpVZJJeuUEbVU+3e/zUxeVH6U6DfNJnVKfFCTpVV4Vfr1gkHT6fCtqYilbgngik29yqE7SSt+lfH2eFOX0LlNJn6S/chBP2iJOieS7XJdQffpXylF6q8OumteF8foUCsrpXklTlV+pg+VZ8hPk5ojXHp6NVz79Afu4cyRJpH0SpGwpU22X1CP5Hh3eA27eXnRPsAHfvfoIHiB/7a4zsQp3rX57JL2Ko3yVvkqcYCE4K9e1cM0h0NTTqhc1JVEfZP3BpT48UrBcl7+qsBA05bvEq8JC4uS7kpbXFNNTBhlUEi8PudrI6nS6JEpaSacep69dlvyWMtX8Kq9KVXaDf/TL008k9ctHylQHtKRVy9cf2HJd7ZP8lW5JnNoG+a6WoWKl9FUvXurWL1PpT9VHza9iHMyp2vPcXfphxTrsiEtVmi11ynX5qHWp7VL7+MXWCNhxq3U+d2vEp8luCgsRgGoetT36OErZcl3KkPKkHi20DAQu2aJny4Dr6u3lYU4VJv3nK53w1ZfQDTS5kFy393++RKe5KdqCNvwbgKxFX262wBBVdyS5RmYM6YGUrDw8Rb4R4SdRQ1v665w7Lhw2nGf/wMXFTdHJeH3aUG7ruSvqtGy1vrRoreInVD/IgujcCYPx0DfLlWhRqIO4uHb/qN6Y9+MaCJu8FupHoLY2Un+qurH62l7dq1qMhsB5BJo9JenOVfV/3TkNO7k4aMTdg58fu1VZdPPjLoIs0M2dMRrnTExxKi4JT947i5Nnki6PHYZth05hM3dLdh08QQOscsXfZytu1UmQd9uUG/pj1pSx1S00467B/AdmYVB4X26b1rSC1G6khoCGwD+LQLMFxrCOATh4KhrfcA785LfLEBboRw/iNnj8zqkI8XBB15AAfPXXVrz1x3Z4Odmhe3s/xQbCkRaPHULaIZmWmPm0IZg9dhBmDuik2EXc3L8T2vl6Iy1Ddz5ftIv7SEewef8x5NGWQgidtaAhoCFw5RBotsBwoa2DOdfSlYU1zjGEn8STdhPPfv4LDtMM2Ys0BQkFpBlggmQadflTiKzceRBxnL7sJ2vas/fMwgAeNvtw+UaSIh1EFw9n3DCoD576bJGyBSDCogONmEb264Zf1u64cghpNWsIaAhUI9DsNYwcCgMzR53VZFkVP0lGYQkyaWEpq+zp3NP3pDVmDi0B3UmJmEYrzvu+/A2gSbXMmTt0DEF32kXsjElWrCZvGR0Oay65Pz1lqHL24+WpQ9G/T3ecjU3AUzNvQCtnR0zr0wFfrtuj3T4NAQ2BK4RAswXGRp6XeHVoOHpTSxjetysi45OQQIOoEZ0CEcGzCAdPRmI6OVpPxSYhk4LkYEwSdr3xGF7+egny8gvQPbgtlq3ahO40BS+lyfcf67ajLe0I5LDVGJ4W3Ude14jjZ5VpjITePbviZHTiFYJJq1ZDQENAEGi2wNgWk4JPFq3Aq/dORwytAyeSn8ScGsIkWlpm8hTjZ4v+wgt3TsKArqF495vFyC8oxCM8jPUMT5ea0aT7HZ5r2Hg2Ec/S10QhT0d+vOUwdsSnk03NCFMjjuEPWk7qhyERx7EvPk27axoCGgJXEIGLsvRULQllIUTdmhMOEtX4SrZeJY1qJCTfxVpSP061XNRfTHx/CR0AACAASURBVKnPIrPaavQKgqVVrSFwvSHQVEtPsVzmwmRdXpLGAqNaLooQkCCWf+p3/f19Q3GqmZB6XcqQfPq/deXWjauqUvujIaAh0GwEmmaoZ1rI7cq8uKPw5C6HFjQENARaFgJGdDbVFON+U+Ek8OWpyLbeTZM0LQtWrbcaAtcvAk3iJfH29tZ5oKo9B7h+8dF6piGgIVCFQDGPsycmNn73UVmf3HU2C1vSaWSlBQ0BDYEWhYBVaSE8UppAZCToKNaaTTjh2KIQ1TqrIXAdI9BUXpJm22FYmZvh3zOG418LV9YLpwe9R4lz3lQabTUmiHOZvvSH2bOdD95ZvbtBASbpu7dxxy5aiv578iAs2XlU8ed5qVZixEHMnf06YmzfzoolqhSclVeIuZ/TWvUqCDKD9HKwxbtzJiqtqaRPTmN6QRP/qV+t3Y1RPOvzyvKtDeKoduUFWtiGij/VqnD0bCyOxaXQL2kFfjt4unrbXL3ew9OZ54DC8QO9h93YvT0dDJfh+d82GqyvlADe1b8jBnUJhjiN/mvXYSzef7KOv4/qBmhfrkoEmn2WRBzujhk+SNn+bMcTqq146jSIHBzCVWHOB/fWUeEY0zUILvSH6VPFJyLxHvRXGUZP3e3Ia6HykoifzA50t9fOvw369e6q8H+IR28JcprVg99FEMhJ2E70/SkcG1YsV3hJhIPkRGwyckkdIEqSlCuewL2qOEiEh8Ob34N59kW4OhodKJG6kwckt9IYa+iybu2WvcopW1s6AFbLlvZLu4WjQ/omQeq24nfhIpG+WvNvCNNIvBPb7MqPcI8IbsIXIu2T4E2MLJlP7aPwq1woCB557PParXuxbsdB9O3dHWv4d8uew3B3c8HgAb3IeUJcq9oj6aVMwV5tv3757TuEIoLOc6Q8+ew+fApdO4WgQ2gg2rN/wnEiQfrkQH+n0+ga0NbWFj70qRoQ0l7x+K7ytEg6uaf6Wut/6Yx43IiBymnlncciMWfGODxL9weCofRZ2hTqaKPwt0hwpoWv/A7k/dW0XwWSqyI0W8OQ1osJlvCSfEiX/KcSUnkIrZI8FS748tdVmDq8H1Loi9OZB9L68Wh6Pt3kf/DbGjw9exIqy/i+obfqP9dvQxL9fN5180ScKymmd21znKPn7GfvmFTNSzKPlqGl+XnYTT+aE3k83p4PVPk5IyxbvQX+bbzx0IxR6BQahAzykoxztUc4+TLET2E2/fWrvCTiv1La5sf001/4oJqXRHHnRx4QMR4x4UAW93X6D6cM6ng6JP50Nb2Hy4AxM+aJ2g4ID++Dh979FoGtW2HJvx+mKXwsflq3C1s5yH587wW8/tECHsU3RUD7YKTRj+eg7h0UYXaSgi3qTCS86dh43jdL8elLD+N4VBzueuc7vPPE3fiFfbrtxqFASREKz5ngo2+XQCxqDYV8+gn9atcJxVv6E3QV8PneUzDiItZoOil2pIf2F+6byR0wd/xCWoYU+uOcOHY4LIzZZ2NTPP/5IpxJy6rWyEqpSeyif9GVe07rqmNfwwf2oeZyDgteewTPff0b1tE/6yO3T8IZ0j307SUOm4GRPEcU1NoD40YNxuSJVphBXhRxevwteVHuevkjnKK3cvH/OmJgXzz15hfYRE4TkZaFtPy9Zfo4/LbzCL554QGspLDrxGMG4v19yutf4c2HbtY5Q6ZA+ZvC+tvN+w3BoMX/gwg0W8PQb6OomId51P2uD36kR+lU+PMttpH+LhbR7b08cOlZubjprW8xtEcHZObkKRwk68hL0qVLB8aFIYG8JFNe+xJHyW0ioQ4vCcvo1aMzTh47iXHkNPll2Wos51mW1IwsPPDpr9W8JA/MvBEf/vQnJrKsorw8jO0dClM+rKkxsbj97e8gnsCFxkDKr+BnRKcgbPvseXz3zN0Y3jEQs/nWrB0enDYGKWs+Qyo5Sta8O0/xkC35lcA/8v1/K7di4oBuGM8zNTsOn4SHmzN8vDxQmJ6K3YdOYP7nP+HNBUvRs0MwNpCQyd/HE0PaemLtgRNoTXKgtp5u8KHjoF10yPv1T8swj8IojQK2Dx0UqUE0FdEWVI2hdjtr/zai4L2ZmK/btB2+9AouAzw+KhqvfPIjzsQmYs74ISjjfVODFzlMFr72L6Wf8nnv/mnV3sDlHlb1mERT7D+nmjv3HKTD4kNYSqqCHfSMPuvNBeRFcUF/nhG6jTieiUnAkRSdmwIHGyu4UkvZlKCbMsoMb29sCtq4OSn3Qaa3X9Br+qz538CX3uLHdAtFmH9r/PvTH7F01WYM6NOtdve031cIgYvSMPTbnMDTqPIW1eclUV9f4l1Ljqy7kC8jhcJDQi7fMMJLUsm3Y0WpjpckmddC/byVgVj9iMrTxWBKlrBinnQ1ZjnfH47W4yXRtcKIgsGSZZ3gQyqep8r4prWkp+Ni4SUpIu8GQxkHkTjkkYdfvGxm5+aTrWw+RoS1xZ1jwhVhVzt8tPgvPP/RYjaAspWfWf1IMVA1emTNQFq3bNcRPHXLOIUP5BNqVx2C28GMmtWOLbsxgd7QXextmdUITvQXcoiDxsvRFv14SK84OxM7jp/DnDGD8DuJkKYO6IKOHdpjPLUtcf0ffzayujldfNzw6K0TKaAqFeEjtAUXClnCIUKtoZyfc8TDmvwoHcMCEBrsr7jh232EbGVV2Eo5ieQZeeOLn/AXtRQlsK9vzJ2mfFXuRZWQlD7rh+oiKHy+oSPheTeNhZOdLR778HtFWEvI5r3O4VpWH3cH7CRnixQX4u6EBLo9EPxyaTyYSVeB8r2cwkhwciWr3KsP3qy0NZnPlhauDgQuiYYhXdEN6/Odkt9OdjZVEVW8JDsPkf0sFJ1bOaCTwkuSjkS6r3f29EIXTidq8JKQoUv4RdoF+CkPbE5qKnlJ/NGNfjN2vf2vKl4SY4S5kZCYlRnxgd199DTmcuCHyVyYvCQR5OowFES4HeAJWnOq6Bs53bn5re/w4k9/10ku6jS95Or4SbieksmFT3cne2W9ZiJ5VJTAQXmQdRlzSvVXxBkMCPVHPzoMWnE6XtEqfqBz3Y27Dyu0if5cV/ht0x4MGdCb05VMFGRmYOaIflhAN4bCT7Lj4DG88+MKjmVjWFG1V8N2Tk2m/edLzPjv1w0KizqdYERyfCL2kiP2uQ++x8aIU1hHDU098yPpZeBbct1A4WHhhycElWIkPiE1C2FkjAuiI6SedIykKlj69chU7nvyovi38UE6eVEO8mSxuvEmGsoGsrQ9evtUhUclPNAHd3A6sm3Hvqoi9J8eI0RQW02lkHh9we/4Ztk6bCQ1hBauDgQugpfECH38PbFo20H08nXHvlMxCo9HkJuDsnZRkJuLG4f0UXhJZAV9f2QCIsmjaknu1DvGDYE4n311kY6XZBB5QCYP64v1e4+irIicqss2YVy3YPQm78Xx05x6CC/J+v0YHNwG0zm4fvp7CzbwIfLnoL2RlIOJqenkJTmLd1ftwIw+HTFuUE9sJR3h53TME8L2pFXxkvQjx4fCS0IzeL2XqyLs5OHWjxOD2TDhNOGDuzcqsXqB9lRmHrp5OWMkuT6OkeLQgXP9n7cd4sKmJTKzc7CGREZSTyT9eKwhb4ltZZmynlNA7Sid7QwmDeI3a3dhbJdAfEmPZHakMzPnesePG/dwShaLu8j3EernQ+7YregYEog/uJtQHWSk1jNa5S08gDSNv/BeGHFwunAB0YtTgBWsX7hbhP1tPrlNBga1wQzyupTy98KNe2uU1dHbDcfIARNXdURA+h9M7LJk12XVdtw2vDdC2K7dESdo6MN1FfLjiq+TyKR0srtZYAeFUSl3ajq08VB4UTaSF0U/rDh0Gq3Jz3L3hKHUroKwdN0OvE0GN1kcDvGic6V9x5XkvblT9ueOCMTHJWAOSZekzvU7DiCOrhO0cOkR+Ed5SdSTqbJYqLqxl1mx+r5QT5iKBq+qMnJd5v0yJVDzSH7RIuTBl/Eg8SpvhzqIJb/ECa+HHE6TOnT5dPXVV5bkUdujplfTNQZ6/bz66TkmRavWTcH4Rd7UymoAvyvTMrnIIHWp/VX7Jv2RdqknciWppFff9oKZ9E7KkXoa297ap3nVeyLlK23lR8oT/PSxVxpadU3VCNS4qm4oWMu9lr/SfvmrXlMxtmLmkFZOePmh2/DSx9/jQGLdKZNgIWsWEtR7KN/1nx/9duvSalQGCmCXKTT9tOpFNER9yPUfav05jnqSVR4wNcj12q7sdfmrUlX9qW+gSJyOtVVXmqE050XWeUElOepLr9e0Ol/1+6J/UX9gqRgoaetpe43+6gGhj43+1ED/hG9T2lvb87eaV6pUq5V261Zd6nS1evqgf0WvuTWmL3pdVZJLHwNdHfDk7An4fvla7KLfkvq2Quu795Jfv5/67a7dJ/22ad+vDAKXbNHzyjRfq/VqQeAIqRKnvf4/ZfDXJyyulnZq7bg4BJotMESlHh3qh5lDe5L1OxfzFq+DuR5niJ+DDe6fMAh25CVZyDnwhsgkvDlzOHlJPBR9ViwSn/9pFXK5liGhF9cF7p4whHvvlsrvn9fvxm8HTmFK10CM55blmfhkvLliOyo0XpKLu+OXMbe+pnQZq9GKvoIIGNK6G2xSD/KSPHb7FGwiBUCFmQUWVfGSiGWeBXXfudNHg7ZTin/PJ+6eqUxUJ44agvV7jmI1LSc3745AUWk5fLhA58lFvw7+Pigxs1KuyedMXDLCvNzIfTIdG/ccgYNbK8yk8NCChoCGwJVDoNkCY6jCSxKF73YcxVPf/YGQdm0VXpKHZ08mg7szeUna4Wuyqb/31054OtmiR0hbxaFvK7KYde8cgkyuohVwz/1megufyjMbjjaW1C4s0KNLCNxp9HQoPRd3jx+M7dwq7U77gQQaX/1vz4krh5RWs4aAhkD15kWTodDxkoiPb85ZOcdIq+Ilee4L8pIkZ8KTZwwSq3lJcuDn7oIV3B6L4p7+Dm6BPk1ekvC25CX5YxO+3HwIkTw4FkMzcdEm2rXzw1cP34QAOvYJptnxJm63du4chmfH9m1yO7UMGgIaApcOgWavYWRTGLg60WqS6xFl3Et345pFusJLUsqFL/KSiADhYSfZq/cgL0kqLQnv//p3gFaXsvrdmWbh3WjEs4Ocq3Ia9K/jsfglIhJm3MvflZKLdfMfxWoKjzOJqfjl4Bl09POCq7v7peu5VpKGgIZAkxFo9pREeEm6Bvkplnuv8ACYEA4lZudhOI1ynKwscOBkFGaEd8PNfcOQXkBeEvKT7CYvybiuwQjnEfYePHNwMCoJPWkK3pFmwg8O6Uat4hZ0a+WIp6eNwKYDx/DT6m2YOrgn+tIs2t3XF9npdff2m9xjLYOGgIZAsxFotqVnNC3vCugP9HGeJuWJJMx6/0eFMvFhrjucjU7g8eiTmDK0N3qGBeL975fhRGIaDp6IxP9NGYEBXdrjw0Ursfp4NG7l+QkvG3O8uyUCfThFuY1WoDFJqbifLGnxPE1pQ1Oje5knMi4Rzy3dCJN6LB2b3Xsto4ZAC0dA39JTfKpYcpfSxsam3o+1tTUumpdELPNkHUM1uBFrQtWwSbXElGuqEZBYDEpQ4/StKXVWkbr8quojyaUcndFRC7+7Wvc1BC4xAvqWno0p+qJ5SVRBUSUHFNNh9bu+RaQap2/VJ3GqIFG/1y5POlFfXGM6p6XRENAQaAgBfXvehtLSpF/hJYk9Ai8uTmpBQ0BDoIUhwEOE+kcpGuq9aVZWFvxae8KvoZTadQ0BDYHrDgHZoczIyGh0v0y9vHQeqLS1xEZjpiXUELhuECihs6a4uJrE5xfqnGL+v+sMeUkyNF6SCwGlXdMQuB4RsCQviWeqYb+xtfusGG7JQqV2wrA2NNpvDYHrHwFL2Y4UAdDI0GzDLXHc+u5s2mAYCB50z+dOP5KNDbId24fWnA/f0Juem9Q9FcO5JUk3epmWtC9NGYIwT9fq3RnDuRp/RXhJbuMZl8VP3IYlT85WPl/QMe7VFgSHvv7eeIf3wq0JeF9t/dDac20g0GzTcHFtP3JoOM59u4LcINbIpct7J3JslPMJjqHZ+Gz61kxLSMIfu4/CmofO7MgtcjqnUOGdcKVLtxL6wTyTW0RPTucU7gnx6N3OrzX69OwMz437FPPy1JIy5TSr+IRMops/4RyRchLzS5BHH54fPHYH7nz+PRyhP82sgiLFMY/42pSyMopKEUdTdeHRMOe+rOQrKq9EZJ7OIXCDt4d1dukcivSSSjrz3Un390YoZHvs6BzXkf2Mo/WqOPbtQP+hJWxLZH6x8reLix1OZxcoh3TsmS6HefzIPyL9iWPd4ilT/IQm0oS+E72Ap7GdScVl5EyxRBrjvGlOb09hnFNSirN5DU8Ty2ls8+TsiYjiWZxJPdvjC7ollCBcLK1YVmZRmYJxArEQDhQvcoCUsp0neS+qvZ83CIaWQENAh0CzBYZkV3lJ3nvmXpxOSIMJ+UDc3N0UXpJJ9OeZnJLKU6gW6B/eDzk06/7o9/V4lrwWpcUc3HSYu3LDDiTywNkdN01AZVEhjC2s6CqyDE/dPrGal+Sxm8YovCR7TkRjwpihsKUPTZiY4reVm+DL3Z17p9yALnS0m0lekol0LtyP7vRNy0uRy92ir39cjsljBkN4SUzpMbydH32Ckpckk8JFgvj0OMfBKpwjOl4S+tes5RU7gbwaX62jX03xGl6Ll6Sddyv8TF6SQ6RHWET/HVsPn8a37zyH+R+Tl4SDPqB9ENK5Ah3OE7jiFk/OxZw9dQY+dGY875vf8OELD+FEdDzufPtbvDVvDnlJtuLWG4eggn5NS4zN8Al5SbZEX3h+OZwOdROy8rB//yEEhgQDFBhyKvijp+9FOb2xpxfwbA8F6KukOnj6zqlwoCPjUoqzY8dO4dXfDTOVaQNEQ6A+BJo9JdEvTHhJDp2MxN0f/YyzCSkKL8lmOv9d/NdGRTtIzczGLe8sxDBykKRl5ZCD5CusJy9JJ55AHdIjFImx8fTW9A0On45Siq2Pl6Rn907kJTmBieQ0+f7XlfjjaBTS6Kb+IVIXCk+GWJDOnXEjPiAvyRR61i7KzcOYXmGKFpASE4M73/0eFtQ02tMJr8pLckNn4SV5AQufvQcj+f12mrLXDg/NGIPUtZ8hbdWn5CV5wjAvCc/NjO/XBTvoJNfD1RmtSSAkvCTb6S/kzS9/wbsLl9FMPggbjkYjgE6EhtDZ7Zr9x+HTyhV+5CXxdrbH9iOn8dWPv+O5D39Q+taL523UIIxror3IRzhK1DC4ewiyk5MVkqTh5H1xIwdIeGgAHKlJTCCHy5kTJykPjcj1QWFCLefNrxeT+2Q5bho/jAtXOta12n3WfmsIGELgojQM/UITySkilp0iIExNdC7q1etCXiTHWoW3I5UH1CTkctqi8JKQb6SiTMe/KtfI+qGYitbPS1ICI5bz89HYenhJjGDJAXCKx+fFX2YZ364WnDYVc6pUUKRT7YXzQp+XJIv19f+/1zEslLwk9NZdHy/Jh4v+wgsqLwk1jPp4SZZz2vXULeMxcaAdPlqyihQKOl6SbRSKU0eGU8vilITgOHBdJyIxAx482duPHtFLcrKwnS4+5owdhKWb92DmoG4ICwlCBTUw/7bCS3Levb549X6EdQgvyVvfLcM+8pKIyU2/nl1gTO2pO8srJRfLvFmjsZO0CTn51KJ4L7LzChRHRbacmnUMaINn75mhALzv0DE4U2vKJ/GbFjQEGovAJdEwpLLa66zyWwh8dBd0vCRChye8JN09nNCZ/BZ5nKYk8KCZ8JL0pEt/ccUnqnsC+TqC+BZWuDUDzvOS+Ab4o5e3K3a/M6+al6Qz80kdwkuyi+Q8948diM58CwsvySF6+zIURLgd5FvZnAhs4XTntne+x8u/rK6T3FTe5vbk6hBuEj1eklC6759Ui5fESHhJDp9B/zB/9FV4SRLQnTSOi1ZuxJZ9R2BBARnkYKXwkgwN74VU0h8UkpdkBmkIhJdkBGked1JD+XDxKhIrm8CKp37VsINMYTNf/xo3zf+fIixkXWJSrw6Ky8LB897F8Gc+woRn3kd/Oic6KexzZBDr1doN7YMD4ERSpT1n4pFM7e4/X/+KD5asQQIPD2Y2kii7DihaRItFoNmnVeWN2ZN8JIu3H0IPPpjCS5JAzo5AV7KbkUckj7wkYwb2VHhJirmAd4DcHlHkJTHnGsWtYwbyrV+C1xavxoaziQgP8MSEwb2xjkTCpQX5+PeyzQpvR4+wdjh26jwvyUDO16cM64MfVm5WeC/aknBndL+uSGB9wkvy3qqdmMppyJjw7thCXpIv6JgnmARJaakZiKBTn96+raj21+UlkbsvAkRf6MnbWzhN0jmdqs1L0sXDEcNJi3iUvCT21NEWbY9AewcLUkJmk3/0FPqwHjnuv5bfrctLMHloX0XLEX6VQDLOf0N29dGdAvAleTnseBrXjKRBP23ahyNcC7njhn6cNnnhD/KShHGw/7n7yPmHU6zr5MMgU7Bbw7tg2Zb/Z+88wKo61i68VARBRAWkN+kdEVSk2HvvGntNTDE9Jjf/Te8mMTFNYyyxx16w9y4iFhRBBelSpIMgYvvXbDgGj5gAeoORGR8f4JxdZtY+e87M7O9b70lc5DqQ8Bi5wRFUEy4qF1zNQEJaJp7pEYB0kVVM/u1s+qqisBBTyPpo4WCFOTQuyiJwSL2jr7V3Qi1tePls1cpI8EjZqiqGhMgyVQ1VSj/OpacWj/zEjSiK6oMp3hevi0e/qn3E/uI+ENuK98XrCueDRbWf+Fl+O9XfZZtVeCyxjao+qu2rMqQqv6/qPOJn+bqJtojkOLGtet3FucRrKh3E76Ie4n9F3BBxbCX7lxuo6v5X9S2f6Sv2FUWcQyAKt3/5Gj4im7Q3R20Clfju4s336iK2K58EWLar/FELFahqtupffR7/Vj7Vh678QVQ3hPgp3lf9rTqY6vXy+4jfVduqXhc/xf/y+5ffThxPtc3DjiW2Ud9fVY/K/FSvu2qf8nVTaSC2Va+76vzl2ya2E6Wi/VSvq9pdvl1lu933Q7Vd+RfF8QXf9veNu/HKM73RiIugP67fq2yi0l52FhWpKV+rjAKPbdGzMieT2/xzCiwlvnHx4fD7RnL/3NnlmZ5WBardYYhIyN5c3BvZpbXCJXn9j133cUlsuWD50oCO5G5qY9G2wzhMO74Sjpc/HNQRTuRvbiIH9I8TkcoTDVHEe1OCPPno1R3n6dj1Cd216vM7caC3I58+tEQ0sQNfBh+WXJJKfhJVo4lKbi43kwpUSoG/G/U+9CCt+ZhPcEl2hJxFcR0NrHpjrBJB6MyOogHn0M8P64UiLraF0ZZPcElEh/DNhP4wszDD1sOn0KezP+M1GjHCUQvmfPrwTEsHJXJ0M58guDo74P+GdIUjw73fYLDR9iOnoaNvgBHcRhapgFSg5hSodofRycOWRr+xWBEahXeXbIYzn/EbkUvy/Kh+cKSpr7ezHRZwZf7H7aEwYSciHjP2Imn91PlLaMdHq8s27cFlPlUZ3i0AA/zc0JpPRBJjYrDy1CV8wqjNUaSMT+lLLklEDPzpAZqefAULQyWXpOY+KvLMUoE/1+mqrIV+Ix3ySMpzSYpgwuf97/22BhF8hGlCLkkq8y3ESlsaEQPNyRjRYpCWprYOH5+e5+hkiMIl+YmP9+bTALiephZDmUsU5MBVBoFpE2pkZ2EMR0tj7GT8hoe7M/4ruSRVvk5yB6nA41Sg2msYuYwkNGzKDFFONQSXxIjRixlFxchhzIVItBJgIzMmVClcEoPGSGIshFid/2HrQYU90tI3AZ7sMI4llHJJ7twsYTCWlhK2bW7QRIndSKFr+GXmX6w7FwdvogkMJJfkcV57eSypQJUVqPaUZF8Zl6SdvTk+YThydMIVpDJIqJuXE/QZoSiQAiLUeWyABzKYyXmIgVWHTkfhizF94M+OwtveGhGJV9GaTFUvE32cjLwMSzs7+DOw6d1RfbBy1zEsJ5dkMLkkQQwQM7FpjpwMySWp8hWWO0gFHqMC1Y70TGAKdwEzMV8b3lNJ/ho1a4WCTHyxdxAus/MQYdoD2/vChyHgs5h4lchpyRpORYb7eaA3ozMXcg1jCzudkexQTHXq47eQSJg1qKcwSKIuJ+L/VmzFFSZgad+5hckDOiuRk+9vOCC5JI/x4stDSQX+0UhPJYqR/8sHLZWP+lRFRJYfxpSPkhT7iWOIovpdFRVZ+rC1LFKS71cUpFS2q/whFZAKVFOBqkZ6PjKXRNUZqN/4qk5A/FS9V/419ddV26hCycvvo36Oamojd5MKSAUeUED11fzAGxW+UMolSTgnuSQVyiNflAo85QrcrSKXJDc3F7bW5rAri7h8yuWRzZMKSAXUFKgSl8SUvhHC9Kb8FEAqKhWQCtQOBYqLi5FAR7rKFoVLEnI5B4cll6SymsntpAJPjQIKlyTjaqXbowRuiYVGySWptGZyQ6nAU6PAP8Yl0aF/5g8T+z1UOFPmlRgz0rOyRTxOFXyN13r4VZpL4mtjqmz78dDOcDdr9linVSIbd3ygF9b9ZwLWvztR+T9/mvDDfLLK2DYu+D9mAN8uc+Lq5WiOob4u8DXVx+TOrR6oLIPv8fOkftCkk7gsUoGqKlDt0PAGNNjt0r4t7i7YpLA5cmk0q0+jWWHeItgf43q1R2ZKCoKPR6AhOxfB6LiQcw1GzExtxo6kmJmsFxn8JbwpXbi/Ng1p7ZtbQLiDW+47qXBAUsnssCHD5A6PmXzjFpzIHNHj/lfIMxFcklnkkkx+fxbCoxORTbs5wSURPqDatLzLpF9lPCNMzRh1qsnQdT1a113nOaPziyqnETsiTw9npF4rweGDR5UclyK2sTFvtKasgzh2fWblehnoKoyVaNapmHXyJergQlaBUpfGbHMuQ9ztm+gqJsAJZIFo1QahHQAAIABJREFUsFurR5PkRNbPh96j6fx5he20JXNF/G7Jn41Z11zyRC5Voq6OdjYYNaAHQi4lYif9RB1p79fY2AShF+MRTc9SUUzJKBHHvUZD5DO519G1vT+0lu+gfQBgT00v83pZ8pqIdSwtahXD61LItggOjL6OJq6V3EYkr505r4XQUpcYA2FGXMDX9bXrI41apBHX0Ii6O1B/0XdFcXuhhyxPlwLV7jCEDOIDdpM34TfvPIsYcklA929jE2PMW7cD/dq3QlraVejxwxrYzh9ZZJTM3rQf/50wCEX07dRgstnOA8eRwhyTcSP64da1a6jfsCH9Lm7izXH9kcUclI+Xb6FrVE+FS3LyYgL69OhAi/06Ss7J6q37YGVugon9O6GlpwtymOE6iObCbdjh1GM9Cu/WU+z0B/VsDx16ctRlroqTvQ2GvfcDslRcErHYq+KSaNZTvqXVuSSp2XlYtP+8wi4Bb4hRge4ICvLDtO8WwY5ckqWfTMOZ6ASs3n+CXJJLmP/1fzDj50XQZmdh6+SI7OxsOoQ7KYFpsfTejLkQDQuaGb+1YD1m/vcFXGJU7IRvFmHGm5OxcuchjOndETcLC3BTQwuzF6/FwbjSm/5hHzvxcGvV1t14fXR/xH81995m3nbm6NQxAAkL1uCt8YPYSWuhbgMdrNgi3LfuooSd3YzJg9i5kvESEoH3JgzEgePhcGWo/q5DJxDBaNuJz/SHDr3JGzVtiq8WrEZ7X094OtogJSUVTg52OBlxEebNmiKJOT9vL9qEmS+MUJzaxWixsOAapsxeDc2qPeZ/WDPl60+IAtXOJSlff8ElOc3cked+WaVwSZrr6+Lw2UtYu/2A8gQmjTCgcd8vQ5dW7khnuPewLxaSSxIKd09XtG/pQi5JEoZ//TvOMF1eFIVLIj51LHfLfvdp6YFLkRcx5PN5WLByMzaT75FBg95X5m24xyWZOrSXwiUZTmftwvw89GztqnyzCy7J5FnLlXUap3Jcku4tnHB0Lrkk/30OPb2dMbGL3wOX5WVySTL2zEXGzjnY/b06l+SuUteF2w9hAL0z+zHk/Wj4BRiTS2IhuCRcTDp0IgIzedOKevm6OmBvZBzsCWDq1NyEXJILvOEMYMdMXrOmujhEzX5bth4fz1mpcElaOVrfq48gronRi28zPTQsxyURI58bNFw+cy4KE+iYririW15o2JMGRAK1MJi6fTVnOc7EXuEmdfD+oC4oIU3uhZ9X8hrdRh26j7+5YANCT5yBhaUZDZtzsWTtVvqC/oHzNCfu2MqTo8fbiuHysz+txKVkslAuXsYvq7axrSbozpwiPX19/LxkA+Ys2wgLKwv4mBk8oKd84d+twCONMMo3PTW3jEvCT6owoS1fcggVEuPUpsQOZAhGCb/hrtFFW0MMbRUuCeljLJl510p3Ex921YpEWXyIBqc1xeRuiOOsuZgMo3IW/GInMYXR4jYx7JxEtqxIlRfp9H/FJcliGr3/tC/RycUaE3oGIDaFoyS18oPCJVl1b4TxTADJKaV9GVEAdZWRQ3BoZCmXhNyVH3gDebFjqK+rg8NnQjC8dweFCaJMUcglOZeSTd8QHfh7OuEmuSRHou5iErkkAj0wtlMrODna4xbJZ3bNze/jkribGWLayL5s/h18y9HUKfJNlHaX1ffXzQfxC2lnxzniK49AbCSmdOwMxIrFEbEPR2eitHRzQGJqOk2OSsEk+UWcqnHqJ6aUwjS4nVtzdOzgr7i425EYF8bkwJvMGRIjP1Gu0fW9kNOtm/yyEOhHHY4sTJll/AbJdqJkpaVLdzRFiaerPJYRhpBEfeQp/jZs0ohviN9KuSRbj55GJ5rntOE3j5eL/T0uiYGZGdpykU7FJUkml8SJ38Ke9NRQcUlyOaWxtmc2q6URTsycDg1+QAUzxNe0qXJywSU5du4ik9/aw4d4AMElOROT+NCrJZ4MhdP2jzMRHCYiYSJHIJ+u3vXA9qVckgbQ1ON/ztezCopgTEqZB9cuBnFUoRSuYYTzm/uuhga20vAn0JVcElLLtpJL4k2o0dodh3HsTJTCJXEhFU7hkgTS2pDTses52RjeuS1+3xWCTm1aIJRt+HX9bq5zaEBH+89F42PM7B09YyHGcCSm6izKVzaOmcKz+O0+YXBPaJVb0Ay9lAxHG0u0sTDEL1OHYnqvAKUzHv/FXOg10sX7z/RQRnHqxY3ZxIU5OZjLutxkp9JYWcBWv8p/7nWcGIk6HIH8QHTEzKWbkcL1l6ic0s5F/djy73+vAtXOVhVDfR/ySNYcO4uW5galXBIyPu04HVG4JLl56E6HraNnLuJ68Q2ciU9BPOe6Yn1hZI9AXOM6wmerd5NLcgUBTHfv3c4Xu0PP4Qa/0T7ddAg9Pezg7WKLSA5709Iy8M2+0wjisLd/h9ZYuvUADnJob8Us165+XkgmDCmE34CzdoZgIJ8QdOPUQHBJ5h0+CwfW5ypvzHPpOWjF+h5lmv1VenWUDVzuXTlxK5S/HUTArBMZKxlZOTiZkKqMWkS5RJcwT04LOrbxUjgiDevexerj5+DYqD45qjnYezaG5zFETEIy9pyNRoObxRjAFP0Ctjedazp2Fkb4fU8ourrZYP72o9DlGkE9rsusPHSKqMgEjOvaBg7sLDftOgxXR8KQmOGrKsr0TO3etiVQKYfrLOEcPcSQ+2LIlcyszGzFA7UBe8Olx86hHrm1UwZ2RhavyXt/7ERQc2OsoknwEjJlpnQgPImkNEOtutgWHo3m7BiLOHLYSuvFdpwuenHNYl7wfvg5WeMCdcjksYUejgZ6SExORQYXTE0Im958MgqneQ1e4nn8aXGw+fBJRHHEJkZWsjy5Cvyj2aqqzFTxGVZ9LFS/i5/ivxjCqL+v+rv8PuW3Ea+r3RfK8VXHVN3c5bep6FiqfdTrVtnLpzq+an/VfuVfL6+BeL983dXrrNpfvK7aT7xWvu3i9fLtUz+36hiqn+p1LP/3w45b0bnLb6v6Xb2dqrqo2qX6W31f8fdjG7qqN1j+/VgVqHq26iOcXvWhKP+hLv+hKv+76jSqm6H8aR/2mnrV1Lcrf96HHb+iuqkf92F/V3R8sW351/9KA9W2FR2n/A1V0fHUz1PZOj6sveXPV9G5K9rvYfVSr5v6vhW192H1l6//uxSQXwT/ruslaysVqFEFqt1hiAjL7u62WPzqSHw9tg9KuOBXvtgxWGnWpP5YwOjIdrZmylsCNfDfIZ2x9PXRGNrKlX+rBr1/7unJBct5Lw4t2/4uXusdwO1H4blOvsr+skgFpAI1p0C1O4w2XEB8dewgbDp4klGXwJo3xylcEjcuMmrz6cXzjF/IY+TiUcYWvFXGJfl20gAlsGv9nhD06tgWduSS2Oo2gBWDu0QRMQWDiBcY0IsxAuyQ3ujXEW19vLCW3p5BAa0wsY1rzSklzywVkApUf22qo7udwiVZfeoi/rtsMxyaW8K4sS4mj+gDe0b/tXC2xcKdx/DLrrDSuAOX5iStt6Q58GWSz1soEYeCSzKoS1v0ae2idBAT2nvD0sQIGVyJFzEBnUhBW8LOYtXZOFy5HIuWrnbykkkFpAI1qEC1Rxj6zDP4k0vCoCs+dxfJZu/PW4vz6eSSNNVDGkcYYoUwnY/9bExLuSQaDBzadvQMXh03BO2am+JnBhzNP3wOvuaG6ODvi+m/MkhKPDdgMNAhxi6M7toWbRlDYO/siDoMJ5dFKiAVqDkFqt1h5JBLcqsuU6l4b4u8BIVLUlisJFuJSMOrjNoUXBJRRARgEvMoBJfkx62HsJHP+09diocH8QGFDAoSSUojewShCSMivxzXB3q6upg5pie+ZO7JmchovDyiF5KupKG4UAYC1dxHRZ5ZKvAIj8v3nYuFNwOLOjlZ4rORvXAxPhmp7CR6MCfDQOGSXMYzDAoaT8ByOqMjDzGo5+CpSHw1tq+yCOrtYI1zCenws7OEt4kB/tiyj3kUG7B+11EUXr+OHQz8GRPgBTPjZpi7difMma8g0AWySAWkAjWnQLVHGCFJV/EDk4xee6YXjDg9GcKwZZH63JUJXQKZOJs5GHbmxhjEsOeZ81YpzJKxPy5XUr5fI6ho3uotzMRMhb+jJVoz8vDM1TwEM0dkA0OZj4edwb6EDKw4fIYJsMWYzkzK4D2Hsep0TM0pJc8sFZAKoM7b06ffPRaTjZBsrjdUo5SPBhS7q0f9idfKB/L81faq0//dMapRTbmLVEAqUIECVY/0FHczH2feve+2ruDIf/NS+RAJ9XAJ9b/Fof5qe/X3K/r7b6oj35YKSAUqpUDV4nI1CguLUJBwVnJJKiWu3Egq8HQpUIfhC/fPAf66fRr5NF+xp9+BLFIBqUDtU0AES2ZmVh5yrmFiYkLTlAfTpmufdLLFUoHap8ANPlSIi4urdMMVLslxySWptGByQ6nA06SA5JI8TVdTtkUq8D9W4B/lkvw8ZcBDm2PGvBKTKnJJAuws8EYv+kiWGQA/9OB8Q0STtmpupmz72fCu8DB//FySie288etzA5VIVlV5u187TGnX4q+q9j9578VubfAsM3ZVZVSAJwSDpKbLhLZuGOvjUNPVkOf/hxSotgmw4JJ0DGyDO79tQAtmqOaQG2JIhsUthnkLRsd4emtmXknBZlrYN2SwVmOyPM6T12HMzFRjZqgKLolgXQguiRsds3Vo4W9rQ6dpb3fY7AtTMleTmYtiy05HMDASyekQzBFxnCTmrVy7Vcolee6DWUQQxDGXpVCxg/NgXcSxrhbeUPgoFrTX1yIHRLA+injOC2RuVKqwI3J3c0TLlu7od+g0tkfGKzyOiSP6Y83OA8DBMwqnw5Jcj5LbdxHBRDqRrWvDtpkxkC2brBFxLl36azqyfRq0NEwklyStmObEDHDzNNRTiHMRmQUopCeoE9vWlKHxeXz/Arcr77Opw2P07doO1xl2//uBU8p5XJ0dkMnz5DFEXzBYrrCtVjQXFpqKYsffc1kHgRdoSs0FUyUim1wYXgsr2vqJkH5hN5jLc7vRikCX+qRdu4GGdCc/z3oLJom4ToVl+1nx2mrRwqAR9T+Zkaf4rYpAPQ96s94UIfsnoyslq9zo361AtTsM0WwRS3GLN+FX06cghv6Nd4rp72hmigXkkvQO8EFqmgUds+sjqH0ArpJlMYeJZu9PHIwCIgDqa2lj9+FQpKRnYuywfrhRkI8GjRopXJLXxvS7xyWZNqKHwiU5TVhRz27toV3nLhro6OCPzXthwYS20eyYfFu4IZdO2kPN9Pm7B+rcIFSoXn0sWBGMgYJLIsx0ubjj6miHoQQfZfEmE+WmWOz9Gy5JRGwSWns4YlNEHCb2DCSvIwElvMns2Am8PXGIUp/bPFfm1XR8uXYfvn1jHF2/eX7m2azZsAP2jrbwdbFTHLTv1KmLkTMW4PsJ/dHUQJ8gpDoQMNylO4/iuSGl/JXb9bWwedterAm/rNRRjKBe5nlPnLsAfdLkRrT3wbzdodDW1IC7lwfaskPTNzDA+3NX4qtpY9D1jRkopIfqF29MwkqyW8b370J/1VwU0YJgRfAe9OsaiGaMxBXJfdtCwgmbSsPY4f3oDl4ATZ2GTF++ixdnLcFP/zcVuTQBFq+tD94FL+fmsLazQx7RCdvp3zmOx82gMbORsTHOnwlX6irL069AtUPDy0sjuCSnoi7j+TlrEFvGJTkSEY31BPMILkkKXcAn/LAC3Vq7I5Wp6yO+WoR9h4/Dzd0F7bzJJUlKwshvFytsE1Eq4pJ4t3BXuCTDv1yAX5lzspXf+Jk5eXiN5LU7tL+/xd7rWd50s9hJjPpmMQrzyCVp5aIkvKXHJ+DZH//gDQo4W5kpxxfQolIuyQdY8t5z6EPD20nMjFUvwnncxcmeECMNDOnUFifI7ajLG797C0ea5d7EGEKI3vlxKbpytCVwAcnM1B342Tx8v5BZuwyf7+rvgx+Wb2abf0cL5s90YOfTiqOol79bjCnfLGTHtw8vDOmOXSGnyWZZhCuxsYQxedyrhsArDOsWiANHTyJ4NzuWgV2Vm12Do6akmMsY8MlvCgzKk8dOJCvkeXYubR2sYMZRQ2hCGiyMDbGMNgPzyXK5kJQOA/2mCL0Qh1+Xb8LR01GK0e+VxEQ8w3NfTkpRMAMpHK3MX7ERXy9Yy/eS4OnUXGGcpLHTH/f9CoxlO9ewLmO+W4or7HCq8hxfXV/5979LgUcaYZRvalquwAOW3uyCU1G+5OZzmMwbtDGzULMU9ojgktx4gEuSVVA2XeDNXxGXpIRcEjFU3xCTRi5JqemO6jwKl4Q2/rFZpXwUwSXRVHFJ+C0uyi12LBoc3ouRUR3+y2Tavf+0z9HR2RrjevgjvgIuSS55Kw2IIphOM58DZy/iNo8rimCN3Cz7PZFZuuJG0yeXROF7sBynS7kWp0i6HN1kFfH8HGEIu/6mug0VvkcGpx7iEdVmtuUd2v2n0HFd6FfCaUeDxn9elkmtnXGdDJdXRpdybAt4rJHe9rjBY4mgO1FyiYnU46jrmz+2YvZbE9HKzR6/btiNy8npeP3b+ZjSpz3qkXq2bddBvPPDYrw2uAs6TR6GY+zU67NDul1SmhaQmpUHWwKYBnnZY0CfTsgjtc3eyhzh5y8q16+4rG1NGuoo2cjiKou6VS1WUKmyLP9SBR7LCEO0Xf1DI/42oieGiksi5vCCS9KRXJJAunV5udojPyMDySn81iOXJIieF/0CvJUbOYnfmE5Wpmhp2LgclyRd4ZK0I5IgbOZbRC2SS8KOyc+CdC2eTHBJjp69gJd4c7QhMlFwScQ05mFF3JxneUNpcghyhNtN4Qjk87V7Hti8Ljf8ckkwJnAInp7A45U19PilJNjyZmpLH4/nuvqRwpaD9ftC0IWmPx1tjPHT1OGY4u+mYBR7+zijj5cdU/lvYwszduuxc5nQwRe9vBwR8u0bWEfXspGd/dCW9TawtETqFUEnKy3Ors7YsvsQ+nw4R/l/8EgofIiGFB2WtV1zBFBLP0KJDoVH4SRRDokZuXCytcIfPGZ/jug6t/bED0s2IoXrSfZWJvic9Vq/5xg2EmNgYmzEaWMG9Mhi9ScqomdbL6WjFpCjHHaUC5glXMBRVINyfBTRqx0k3W14x9YIEHwZd+c/O/cH1JMvPG0KVJtLIhYYW/BDtpZMjhaECZ0kDCiFC27Nm+ooHJF8MjC6kA9yjFySIoVLkqpwSepwLWFYN3/k81vx8zWCS5ICf2sj9AhoiV2hZ1HM9YrPgg+hm2tzeBEGdP5CjPKh/mb/aQTYmqJPkA+WkEtyiCwNc20NdGrtgSR2OiGRsfiBXJL+LZ3QuY0nDp44i/lHzsGe4KCr9OIQXBIf1lfhkjDdvqIOrvzFFVwSwTRJTM3AbjJQbBtrY8WBMDTkjtfYntWnL6Fu0TWM6tWOowZtjOWUK57b1ispVl6LJzP1qx2hSI1PRHfq4E2+x6+rtyMmNRPrj53BcxzRtCQK8dXZqxAcFgFnoyboSx5tXNIVfLr5COqJVUmWDq42WHvwFLI4IhN1LuLirpmxAS5wbUWgDvtzn13Hz2AlOSPimog2ZnDkFBwaoXBKOrvZoif5MLnXCjFj/X6FMfsMbRDNjAywLHgvlpyORgc7M3JT3XGa2cOiLW+RkzrQ1xk+HKks33aQ9eR1iI5HFtGUZ5KpBzXs7GKD9kRfHgo9o1zvU3xdln+fAv8ol6R0aP9wkR72fkWvq7+m/rfqLOqvl95W949w1Ld52L4Pr3nl36nM+R+2jThL+Y7rYfX+q9qo9hGdha9xE0wZMwibd+zHxrOli6ZiX/Xjlq+PmH50aO+HFWu24s1nR2AL3dDmbD+iLMiq6qe+v+qY6vX/q3rK955MBaqarfpIUxL1b2l1SR72fkWvq7+m/rfq2Oqvi78rek29Lv+rD3dlzv+wbSpb74raoq6HLh+XThncFZHnL2D1mft9Qyo6j+q1P9ixpHJU8+rY/jhFg6I5O44q0OrydVbfX6VlRa//VV3le/9+BR7boue/X4p/dwvyuYg6+edVyo0ubvjKFk1Ofb5Yv+/eKESz8rtW9hRyu6dIgWp3GCI+oB+Hs2O4HpHGOfO0JVuhyScBqmLPOIVXh3RFo4baWBB8AGeuZOLrCX3RrGljZZMiPvGYt45rGHHisRyfDvCj/mqXVgikY1c0FyP/s2o36nMhcwgfjQ5u74tLian4dMN+xn38eY57J5O/KAo8yr3+KPtK+WuPAtWekviRov7KmIFYzRX33Bu3sXb6eCUC0YsRjDoKl6Q3SeeF2H/yvMIlucHORFDMF6/fiWWb9vDRob4SHSoiCm0YRTg1wB2eXm5Ytnk/rKws8NXoPnA2K2WfrCRqoF7DRhjuLUOQa89HU7b0SVSg2h1GR1LPRKDVes6X31u+BfbWFqR462Isg6fsmjVBCydb/L7rOH7dcwrNGjWAp60Ftl1OxcqIBHTu0BZh4ecRysCm/p3aoAeJ67toKvzxvNVYf/Iy0jNz0ZBGws/268CnGtHoEdgSuZkZWBh64UnUUNZJKlBrFKh2h9FUcEnq3CmdM1MuwSUxYt7Hh/MFlyQHxqSa/cklyVdQA8Lbp7ODBepp6+DbDfuUXIRfthzCQnJJkvi4UAQ4pW35GW58jPc7A4+amxnB0cIYa3cdgxOjLd/vG1BrLoxsqFTgSVSg2h2GOpfEmFySq4JLwtgAhUvCyE9zJi+JIjqLNEYRipN18XVFSgLzMTh9EUVwSa6LpC19Pegzoc2k14sI3n8c3781CcmMIzjA8OWtF5OQFB2Nps2aPYkayjpJBWqNAtVe9Nxz7jK+6twO3VysEdDKE1FxSUhjuHBfXzeEMXtUTFdGMpoxjrklaRx9nGJOhogV0NY3xIVz5+8J7G9vhRsMOe7cwgGOjGpcRvyAaTN9skmKsXjbIXz/6licOX0eps1tkUBcoixSAalAzSlQ7RFGaFIGvl+ygYlT3aDPvI6hM35XphgdPOyITNRSuCRWJobo284X385byczQ0hFFUlIyohJLn4yIZre2N4MPIz0/33kC8XEJeG3cQIKQ6qP3Z78h9HISFm3chZfJMUll4tMnW4/VnFLyzFIBqcCjc0mkhlIBqcC/V4GqRnpqlIb0PTqX5N8rmay5VKA2K1C1CByFS5IfHy65JLX5MyPbXmsVqEM3u6qE/GkUFBTA0c6m1gomGy4VqM0KVJlLYkyLtVIuiSqHsTbLJ9suFahdCgiLyMuX/8xs/rvWSy7J3ykk35cKPMUKaJUUwYxR1JUtShyGSG6sSoZjZQ8ut5MKSAWebAW0RWAF46MqW6odh6FD/4U5zw166HnMmVdiKtypK1kEiiTQwRJv9QmsNJekta05t72DL0Z2h6eFkZKi/bhKCaNVJ3doiXnPD76PS/KfgR3wHF+v6TLR3x0fkscizIxF6etsiRF+7mhDy8Cp3fweqJ7IBv5t6iD6nlY7Vu+BY8oXap8C1e4wGtBTM8i/lZIf0pIZqjbMLRGOTy34uzaNdif06YD+TE23IGZAMDeEz6bIYrUjxyPAXB8tmzUuNWph7+Zl2AiBZk1ha20Oby9X2DGk3JJ5KeJWENmstgwEE4szngaN0I4entZ834jJabNen4DWtLY7Qcu4DEaZ1uM23jxuII/v0FhHuZpiW0eGrbdi3dxouVfpwh7M1cUBXt5e6O9cCqtuRMPc8UP7woqJdqJuoo6iLa1NmiisEVEED0TUUXUuPWoh3vcnAsGszLhYbOtHW0Oxry4ZKqK4sm6i3h7kfYi2/l2xtbHE2MF90It2AKLTsLM0gZN9c6TmFSIyLvle/URdWjQr9VZt798amqxPI3YarY0bQ4+oApFd7Gmgp9RR1FWpC60JxH5CS1EEa0VcQ3F9vXkse7axDetvQS6LKE14nLZsn2iTYKjI8vQq8MhfN4JL8tmbk3A5JRM36XFpZmGOBet3oHtbb6SmmkGHH6Z2HQKRmpiMudsO44NJg5FDw1wtJqDtOxqmcElGDe2D4jxmqDZpSr+LErw8uu89LskLw7orXJIzMUno0SUImuyiGuk1wrKNu2Fu0gzDuwegdUsPhUsygt+uLdjh3L1ehJvke/z+RzAG9CDLhCa2t/maJzuAoe/9gEz6iYpSKS4Jb75WRANsJJdkEi38z8WIPJjbcGBy3duThqD+nVu4q6GJHBKwhYnw12+Mpy/pNZTwtXUbdypckpa06b918ybqatQnbmABfpg0AI0aN6YNXl3ySkqwhC5XUwb3wHXyWigMtu7Yh1Wn73fNUv8Iij5l9RZGwT7Thz6gqffebmlvjk4dA5BMzMFbEwazE+B0U1cPq3cc5DZ3OVqqh+9IcwPbsCnsAj6YOAi7joTB3c4a+46dJHclCeNH9EV9epPqGxnh69/XIojskxZsQ1xCEtxdHBFGRoqJQWOk5V7D9IUb8P20UWXoBrrGs50TflzBxET1Gsu/nwYFqj3CKN94wSU5ERmNF39bV8ol4TfUsfMx2Lj7sMIluUIT3kk/rySXxANX6Ag+6tsl5JKEwsXNBUHkkqQyXHz0d8twMrL0JqmIS9JCcEmiLmIUQ9B/5Id4W1SCwiV54/fN97gkk3nTfb88GGNnLkUhTYi7c4Qj1mfS4uPxPN2oRO8o3MjvcUm8nXB07gdYSi5Jf+bATKYZkHo5TddvVycH1OXoYlBHP4SFnS7lktCbQwCDxs9cgnd+WorOAa0wuVd7JKZlYsiXCzFz/mqcJRekS9uW+HHFFowk98OTeTMdPRzo+u2GVwgLevbb37Fo/W48Ty7JjmOnMZLHElwSwS1RlSYcgQTS2FeMRhqV+/YWo5AbfCR+6mwkxtMpXVXEDEUwRHp4k5vC+onzfvbLUoRciOcmdfDR0K4oIMhp2q9reW1u8wYvwTuLgnHiJGNxzE1xKTULi1dvxcxFGxBJaFN7Xw8+RbuNhNR0vEihe8JdAAAgAElEQVTuzEV2ThcvXcZcOoqbm9C82cEc2np6WLRmG5at206QlQl8zAzVZZR/PyUKPPIIQ6WDilMhbsYHuCQFKi5JQ2TTsVswLsTNJhghd8gSuc1vJVFyyr75xXj63npE2fBcg8No4ZItjr85jsQtTknKF8El0eQ28cT/iU5CjFQ062sSyXhLuXFEucUPvopLIhLhMrJy4f/S52jPKce4bm0V12/1kpdHIljdu5jevyP2017/NusgSkNm1t4s+z2JWEbBJWmqp4uCIlLVWMewjHxosTsu5ZLw/KSlCbewxro6Sl5NJolr4hHVdrbl//hauuC68LglZJ00qPfnZXEy1seUEb3YCRANyY7ndGq2cn7VF7igyc35z3MI40hPaKMqAkMgOgSxXWh6LtCgVC9XexukZ2XjeplzmVJfdjB3ePy71KQrXdSCCGUq4mjHvrklTjOR8CbNj3LEdWMppBWgADjd5JeEuM7a7EgFTuLZYT2V99OSk8lfKWW3qOoifz49CjyWEYaQQ30EKoLNxbC1PJdk85FT6EjSVgdyO1q4OihckqQraTAwN0NHKyNySVryOOSScETizJGAWJ9wsCN1i/9y0gSXxBadaIkf9p3gktRXuCSBVkx558kFl+TwmShM69ue38YGCpfkFEcHDyuivueSr3JOXwfHON2Z+ssqfElvS/Wi4pKM69cZV0kBUzU0ROGSkKfCek/t3hZXeROuU7gkHuhqZ4qfnyeXhKDi08Qv9KFlf3+OSAp4k24+GYm6nMZM6tQa/TjCCZlJLsmBk3imix/asd4GFpZI4U2nKsdp3z9x5mJM+n7pvc6ifB0Fr/XbResxfmAPsk//XD8Q9XO0tkT75iaY88JwvN0rUNFx0ox5NCdqgI9G9Vb4qurFiXzbIk4PlzNTWHQiTRvp/OWaytHYVAWJsGDLAfy2bhc7wlu4mFvauagfW/7971fgkbgkHlzIXH/iPDy4gHbyUjxSOKe1Ib8jNe0qcsmw6NSmBY6Gk0vCb7FwDs8TMnOU9YVBnfyQR/s+MeffH5tCGJEhh+5e2EkuyfWCPHy+5TA6k0bmRvxfRFQMUlKvYub+M2jLjqYHGR9LNpNLwiG2Kb/C23MqkcBOJzQqFj/S4au3l4PCyxBckgVHI8gT4bc310kiruYq/JRjYoG0Ai6J+qUUXBJ7QosFl2QPGSjWjbSwkje2YKleo9HPmjOXCCgpwIgeAWjM0c4YgpASOB2pQ77sCK6rxCYkYwYzcFOZgduljRdRhlYKlyQ2LQvrjoZjctc28LSzwmvkkmymjaEjFx970lksNvEKPmNWropLIuqlTDPUbm5ruphlci3oHEccseS9NMYtZGZmIZrep/UJZ1oRSgsB1m8MsYZXqfsHq3Yp0Ke1IeewhOcfR/p7CJGJTTiY2RkRAwFbFlS1LeTM+HPNxpUOab8F74cvn0RFEZCUkZGF00lpsOPiZzx/ZlLDZrpa2E7uTBgJalN6t4OPqx2CD53ERbJXxAhOlidfgX+US/LkyyFrKBWQCvyVAlXNVn1sU5K/qpR8TyogFXg6FJAdxtNxHWUrpAL/iALV7jAEl6SXpwP+mD4O3zOuoIRPO8oXBwYgzZ46GEvfGI2O9hbKW00Y/Tlr8kD89tJw9PSwvy+is4Rz9CkdfbD6nQn4YFhXiEhLUUQEqJu5ERa8OBT1ZZTifRrLP6QC/7QC1e4w2vLpwLTR/bGUq+kZRSVYV8YlaWnUGA0VLkkvAo7ysfNYON6cMlwBFW355CUc4QLiH9znlbED0ZLP6524KGnHSM7Rvk7oGNSGQV+7YcMoxg9H9FDCvvX5eFAQxz293JVHeLJIBaQCNadAtTuMDmVckmDyRD5YsRV2VuYKl+SZgd3Q3LAJyeu2WLQnFPP4dMOAIdRtnayh3aCBQjXbduEKbvARY0MtDfRq1wpdSFz3dbFFYsxlbL2QiE+WBGN4FwZRMe5cxEfsOh6umAJXu7I1p688s1TgqVKg2vdgUyaWVcQl+WjBekReJZekSSOkFzFgiU/Xrubkw1y/Mb5fuhHLP30VV9bOxEW6jIczxmD21sNYeCSCkZRauMWgJcXQg3kh2lpaaOtoiS6tvbCUXBJZpAJSgZpXoNodRk7Bddyqq6HEB5QwgMqYz+fTySXJK4vGFJGLFmVcEjOOOHL43pShvRAw7TOYD3wVzQz1lWCmIkYRFjPo6k7JDdTXaqBEK1o2a6qwV796cRTyCwsx6/lhMDcyxLiOvjWvmKyBVKAWK1Dt0PDd5JLM6NIOvdybw8/HA5HkjqRzZNC/tTtOMIjqdNRljOzYGgkp6QzoKlS4JA00NNDGyhjXm2grI4hrDDMOdLTGDfqKHmfuyeC+3dCdo4oJ7FiWbT+MkJCT99KxHRxsCTWSqMRa/FmVTX8CFKh2h3GC04mZi9fj2f6dkERC2bBvFilckkAXG8QnXMHsVVvx9shecLYxVbgkBewUJn4+By8zJ0PkfGzdcwjrz8Xh9W6tmaWZj9khUdBvoocXR/TESUKQPlu96z5Tn54nTuNiBnMiZJEKSAVqTIE6b0+ffvdYTDZCsksTtGqsJvLEUgGpwD+uQFUjPSWX5B+/RPKEUoEnSYGq5fxoXLtWWMYlYQq6LFIBqUCtUqDKXJJCPoVw5oKiLFIBqUDtVCCTbnGVLRpGtGETXJLy5iuV3VluJxWQCvy7FbhBLkl0dHSlGyG5JJWWSm4oFXj6FFC4JFlVGGEICSSX5On7IMgWSQUqo8A/xiURnpa/vTD0oXWyYGh4Vbgkwio/yNEKb/drV2kuiZ+dBR2872DG6J7wsjRWMlsfVxHZuM928sWWD59D8PvPYeErIxFga/bQ81kTZSD+93elP2g774dWY4SXLSYEeT30ffmGVOBJVqDagVtazBz1b9MSd35ZjTbMUM2iqa0Rk8xu0b4+MucaJvbtgMyUVGw+epZGuFpoSibHaZrRmnMbM7JJiph8Fn41HzfZUQjWRUPiCGyZwObl4QzHvaGKCXD8tWI4kYEhvCVjabQrGBpNaSUXn30N12iq+/3r4/HSRz/i2LloXGUougaHSj60C2zIwLA0hq5fYIRpc3JNhNelOH9hyS2czcyv3PVgvZyd7HCJdd6x4wAcmUz31uThOPCfmcr5ROi7n0ljFN68o+S/jO7hjzsMcxd5M8ZWlgiMTVQ4KcdSspVOxlPUnXVwsrVEA+IUcCgc7uSsGDF8Pp/anc7Ig7+pPg5fyVLaLrgqt9jGOLZbFqnAk6JAtTsMVQMEl+Tj1ycilj6O1wvyYWFlgd/X70JnJo2lphozHJy+m+SSJMUnooj8jY8mD6E/ZCa0GzbEgWOniCDIxMghvVGYnQ09AwPF7fvFkX3ucUmmDu2mcEnOXk5G186BqH/7FproN8GS9TthyvySAZ390NbXC3nkkoy0NIKHuxPuFF7DnQYN8fvKYPTv3k7hktzka97uzhjy3izFj1KUynBJsvMLselUHPqSo9KOneGdW3fw0piByF68Ce+OYgo/O6XT56LIRvFE8fXr2BNyGq5kfDTu3wXNacK7ad8x7Kfv5deELiWRzaLRUFfx3uxsb4axw/uhbnEhmpmY4DviET55dhienzEfJ2KTMW3sIFyIiMQv+049KZ8VWQ+pwOPJGBdckuM0gn15/gbEXbkKm6YNcTzyMoL3HFW4JEnsFJ6dvRrd23go3I4xZJDsO3wCTm7OCGzhTMhREsb9sAJh50tXayviknh5uSE68iLGfLsY381fhe1RicjKzcf0xVvvcUkmMrX+++WbMYHHKsjNQTffMi5JXDxenL0GdTlqKM8l6eHtXMYlmYqBzIF5lua96uXZQd0QGzwLP//f8wg7Q2NdjmLEiEeAEG6y8zh0OhIzNh3EiYiLCCXb4zaT5oRx8HPksCzesh/tfdwxsENrRHLEMfb7ZUhPiEd9jngiOZJYvHoLfmZ9Bf8j0NMJy3ccxusMjdchEqC1qy1WHI9Sr478WypQowo88ghDVfuM/GtK71MRl0Q4hIu0Vr2GOqXsEf4uuCT16tWDhuCScCgvSm4hGRmicEx+bzmizH26HhPXSsgvEcfflpj5UC5JYk6BQgIQrBNNHlvhkvAmFkUAeTR4TnFs4WqdTjdtwSVp52SJMV39yCV5cLV47rqdeO/n1bQLa4iTP7+LgxGXlWOpSgrZJmLRWJS7rJso+QyGE7+Lc9fn+RrpcNpR1rYbzOatr4CGHBAY0BoFOTlwoLX/WSIRZpAxcrxzW7w5tDtCyEBJp24iP0cWqcCTosBj+zSqB5gKLomZIefqyg1/V1lfCD5cyiXpYmsKbzdHckmuIpGIAENzc3QlP6MfbfYFlySRIxIXa1O05ZzegSwSwdPITkuDjb0dujlYIGzmdKWjESCdDs2N73FJxLf9tH4d0N6ymcIlOUkmyMOKqFUER0OCSxLC6Y6gen29cf8Dm+vrcSHTpzkGedjQAEgLGSrYkvqW7CCaNNZDHXGDlxeDvx88cwEdvF3Rle22cXRQ3nYgR7YoLw9rdtPrg/sK/ocWpzzH2FGIUc3MVTvY2Ty2y6NeW/m3VKBaCjwSl8SNi50bwiLh1qyRcnOmkktiRV5GCofkuWRmtCMf5ChvgGvkkpxNFFySXNwtKkS/Dq2QyxHJF+v2KlwSX4J8O7bywA7hrJWfiy+3HEUHprm7cIHwbOQlroWkY+aBcLRhR9DFzwtLONQ/fDEBJnTsC2jhgoTkVIVL8tPu4+jpbofAlq44EBqO34+dJyS6gcIlOU8uiSfreywyVrnp1Ts4dfUEl8SWjJUAN1v4ejrDhaOAOcQD7j0fCw8eJ4RWgwZaddjuRKXdWsVFaMtOIfzyFbJj8xQOS1PNemhIjsls8lIsyPDo5t8Cx89dJHskFdtDI9DW3R6ONmaYu2k/WjY3RXRsEsx1NVHEGc+iXUf/to7qdZZ/SwWqqoDkklRVsSdke7EqIgj2Qwf0QMzFS/h5z8knpGayGk+zAlXNVpVj3ifk03CLyx/DuwfyaVEWvtsrn4w8IZdFVkNNgce26CmVfTQFNDlHemVhsHIQzUc7lNxbKvA/U6DaHYaIhBxEt+9xPQORyicFU/lh1yyjsIvaOurr4Q2iAho11Ma8jXuxl3Bg/caN8NGIbmjIxcM1+09gw+lL91y1BIbgzR4EEnu74BLZnW8u345uXMd4+5leypORYj5dmL92B7ZeTP6fiSEPLBWQCvy1AtWekvjTm/OlUf0xn51BKgni69+eoEQ0tiKgWZdxBlNH9EJyRja2HArDm5NKuSSbP30JB87GYPGmvXh59ACFS+LKmA0HRjtODXCHi6sTZv+xFSYmxpgxti9c7G0Qy8jMH0gnn7NiM04npP91a+S7UgGpwP9UgWp3GB1o/nuKRr/bIuPx0crtaG5hCtMmuhjStzOsDRqjhWNzLCaXZOHBs9AnqKitkw20NDURxycoO6NTUcLYCx2Gg3cN8EGHFg7YcfYyPpq3GtsikogZKFDMf015nCYclYxmQFYLDycklIhnF7JIBaQCNaVAtackTdS4JFnM3WjGAKWPF65HEUcaRkw+u3q9pByXRA+zlgVjySevQJudweo9x3DuSibCr2QoQU5iiiM6ibQtP/HRZBI+/nERHByao6CoGGFhZzFueB98yHn+5xsP1pRW8rxSgVqvQLVHGNnMx/iTS1KPXBJdpDFZLJ/RjaIDSGfEpQU7FVH+5JL0hP+0TxUuiWEZl+Q6E6yKb9+FLUcThkzOMun1IjbsPYpv3pyE5SfO47NVu7AvLg2xkRegb9Ss1l8wKYBUoCYVqPYIYzenEF93aY9+XnZo7e2O89HxuMpgrIHMFwllHsmpqBiM7lzKJbnCBK2TMQlK1mhgczNc19eFDrkk+ddvMCzbRuGStPe0g7ObK1Zv2A5rM2Pk8FhfP9NTSRwL3r4fzV2ccf5cZE1qJc8tFaj1ClR7hBHG6cS3i9ZiTM8gwpfvYvi3pVwSPz7ZMOBIYfaqbcq0pBMjOL/57Q9cYy7FxM9+RZ+2nhjF1PfNuw5gQ0QcPBm96c6Apc93nsClSzGYNKQ7Gta9iz5fzOdjxg3IY67FxMHdEM6M0M+3SWRirf/ESgFqVAHJJalR+eXJpQI1q0BVIz0ll6Rmr5c8u1SghhX4u6yq+6tXyiWJOwNzrhnIIhWQCtQ2BUQWU+U7DY2ioiK4ONnXNpVke6UCUgHRVdB+IiMjo9JaaDRr1ow+nHScKDN/qfSeckOpgFTgX69AMbkkFy9erHQ7FC5JaGwODmcVV3onuaFUQCrwdCgguSRPx3WUrZAK/CMK/KNckvkvDX9oowSXxIy2c5UtgkvSzska7w7oUGkuSVt7SyXh7ZuxvdHCyuSxcklEvUW4+qt9grBi+ngse3Ms+rZw/NNrtLINU9tuWu9A+NB6UL2U0G5w0csjsPuzl/h/GnZ/Pg2/vzZafbOH/u1nYYjniTpoy7iWF3sFPrCdaMunzBT2tTF9LDqJ403t3AoDfJxxq9x09ruJ/WHIFAFZnk4Fqh3pKbgkfq1a4A5WkqfRFFnMGxGMjVu8gSMyCzC5XydySVIULkkjHS3ok00SlpoNS3JCzMncKCIj5FRaLkr4YfM1bgJdLQ1YWZnBnV6fLnuPKx/qWOanuNJ89w69LqOv3YAPrfGakmsSm5VPHshtzCKXZNrHP9EG8CJD0fMV39DWrEtD1i2VeIDz5JfY81wNFC6JFrkk5H9czavUlVQ6i37tEcTAs1nzV6NxEz389/mROPjm13CndV82WSKGTKq7znaE0f5Pq05deJs0gQ7zYeKzC5S66/L3VrQfFN6ckeSbJBUWw8XZEdFxyTCnrZ8BQ+fPkkeiFHYYbVt54/UvZuNWsTBDroNrN25Ci697NGuscFyMqZ1gssQyLN+GOjhQj+yiG0q7jQ2akKNijy2HT6M+o27FYpaiF7XPY10PJ2Uygc8Fp5IyoF/3DvJ4vUKpf/m1K8F9MSYHJr+4BCHkqTTVqg8HRuWKa6Fdvx7OpeUwT+iuorFYWHdxtkeDlKu4c4Lu5mUL7YfPRCk6mzF4z5nXVZRzqTnKecwIehLYCZF0eJqv5VE7W7bJlucVDuyn+PnQFG3ha+KaNWmgiTM8ZzZ1cOTnwIL/r7EtJ6m3iAfwUa61Bs2SryOcWc3iWPY8lvjyOcn6i+PL8ngVqHaHoaqG4JJ88Mp4hUtSmJcLK2sr/L5hFzr4uiMlxYCu13XQvmMQEi7HIX9XCD6eMlTx6GzYSBeHQs8ghdiB4YN6oYB8R5ErcrOkhKnxve9xSaYM7qpwSSJir6BzR3/UvXUTzZoZYCG9MYz4s3d7XwS09kYuuSSjrY3h6uKIW9fyUadhIyxauZlckiA00GqAYjJTWnm5kkvyAzKEiznL33FJtOhU3kiHICVtbawNvYC14Z+C4BR88vFLiEvLQl5WFpqZmWLJqs2wtTRFQCtPFF67BiNDQ/T55FfMemE46jJDt97dO2hIx/RBn81Vziv8Pd4cOwDZ+eStrNh23xVdd+kKwA5HKdr14WxqgB8/eBkrdx+FE0cm5sZG6PHBT3hv6jPsTO4qN74bgUvfz1uh7NLS3hydOgZAd/s+DOrbFfXoNXpbSwcFtAcQpU+gD+qVuEGXDJjviWs4FJeqvN7FwRxjhvXF3cICmJib4bslG1CHdf9w8lBs3R8CDwcbHDlBz1X6s3bjdRDXsAXhTnHsMMqXl8cPRdiHP+E1+pjos7MSyIQzdEQ/x1SBVyaNwMHjp9gGQ4ylJqNnLsO3b01GLqN5G9NA+cDxM4ihF8rLE4ZiP/kujjbmGEHH93cXbeJ2k+gVmwYtHfJsiKioz89VxyA/XKfet3l93/1tNT594RmmGZBJU7ceWiWn45OVO+75rdxXSflHtRV45A5DnFlwSULOXcL8PSH4ljAewSURprzhp8LRjK7bgtMx9de1+IC5IfGpV/HcrOV4oYM3XL3cYWNsgLSkJExbQDDQsO7wdrRWbqi74muNRXwzid89PF0RHXUJX2w+gnbsGM7wG+U/5JK8s3Q7Dvh4clgMTBjQFSN4M4XTcPj7ZwejG4fLoqTFx+H9tQcQ8hOpapy6pEfEKFMLwSV5b8IgdnYZCN5/XEmlX7jzqLKP+Kabt+UgCpjn8s74wZhnbsQM26N4e3Gw0t4Dp85jHjvAn58bjPZejtC3ssZJckvOXYjDC+OHYHQAzYqD9yqO4He4/cdvTIETTYXq8rgj+ndDTk4evuEHWr1cWfql8pJwT1+z5wh+WrdbMV6fx2MVCQ7Kj/+Fo4khOSaOsJ30Hga5WMOWBsWqImYHQi9hJdBYtyGW7wtBLju2cDqki3KI9Z7LNn7z3DC4WZvc6zAikjMUTkoxH7MP6dul1Eg5/JLCWfnv0q34YEAQjEyNyVTRwCle1482HMLa96feO6/qF8GhEf9Wb9mH+vxpb22GNn6+OBsVjVRiHT5evg06HD0cnvMhjDgimLsiGIXUuFMrN1hYWiA6KVUZLX61Zhesmulj+4zXMSE1C5m81qtp/tyK/BZHNydkJSbiFkd1Gw6eQB7fS+NIy47XaN7mSCRExyGFZLr6Kv7DA7WUL1RXgcfSYYiTZ/JbWySmVMQlEZwOcePo6mgj71ope+T6jZIHuCT5/PZSivjQq1pUAZdk15VscknuN7ITQ3DxYU7Ou6aMjm8LJginBDcULgnT7MVrBBCV55Kk0eBHcEmCHC0wukub+7gk4vy2pob4Zedx/LLpEMgBQAg/vM/EJCnHEgwV8XkU0yUNnlfcnAE+HvDit24hIUpipDFleG+kZ3E4Lrw/OLwWLBSBE2jCYbQu/98gs4RUJOV4qmI++p37RhhOJvq4dr0Y1ziSE0W0QZtcW+Ve4FA9j+n/N5nxq15WnrykTB8GcQRmwFGJ4dZ93OQuSW2l3BZxYwtMg6r0pnuav38rZdTkwKnhOSYLilJAmpvS6Yl6sv51WOcSTjnEa+IaVlQEQ+bNiUMQn5SisGi0OR0UHWAhpzq3ed4c7i+OZ8uOb+ro/rgclwgLIwMaMRUq1y6fbRLTihJS7sR1FVwXa1MjjOI0V2h4mg71M7Yex5i86xjUsQ0MOTLN/mkZ/KbPxBeDOiDIszvq8roM/5r5TWVTpYrqKV+rugLVTj5TP9UD14UX3MKIi3vKDa/ikpxEh5Yu6MHhr7e7I/KukktCRIDgkvQkOrBvQCmXJIHTFFd+MwWZGz7AJenlbIWT3711j0vSxc5U+VDV4QfwIL89X+7XEZ1tjMklMUEYUQQPK6JW51MyFC7JcU53ps1dh2+D//TaEHPqVwgUmvvySAxoQS4J6yf8OqLLvqmHtG+NbmSp6BNzGBWfgpiYWMQkpmBZ8D6kFZYgiXxZM5Nm2M5RyUkevy5vTiOOtgR68YelGxVE5EdDOj9QvWfcrTGstX3pfw9rpW33FgjE1vyzgFOZK9n5GNWa5DgvJxjoNXrgOFPbe8HbxRart+5HUloGrMxNlG0euE5le9pZmeJ6fh42HjihbKPfqCE7lAe3vp6TDVuyYnpxZONFk6SKjqjFaYgjp2jBe0MUwyRxrPrkyPg6N0dHZ2s828UPRRxVNOOIrhE70o07DyONnYUeO926ohO9r3CkdfAkO/q6WLr5AI5wdJjCEchLtHM0NyQyc8NuMmwBG35evhrdF/uPncHq7YfgZm9d7ltH7ZDyz2orUG0uifgcuxjoYuPJC/xJKpjgkvCiW5CrIbgkOVnZCCAf5CghPmJYfy4pHYn0/rzF9YjeBBZlcSTw5XrBJUmFDxcLg3zcsDPkDAq4DjJj61EE2Zkpc9hw4hFTrqTjOzp3tTI3QEeujSzavB9HeL5m9e7Aj0PUWH6TiSnQz7tD0c3VBn7ELx4g42TR8UhYkQeSxg4oklMYN0NdhUuSyVHOg7fC/RqKm2U1F2y9ec7u/t781jUll2QX9tBicEKPQBzkQmsnX1dcionDd3vCcJZ8Ej8nK/jz3JGXE7H+RCSa3LmJLmSRpKZnIYrb6fHmyMzORRTZqWGRMXC3s8SB85fFlzXEGMHbWI9TATe0dHO493/dEYbtsw17z8UoFXQxbIQ94RzeJyWjNzvYnKIScmp1sOvQCQimW0xCivJzZUgEOrg2RyBRjVczs/Hh6t1w0X/wOkVzAVmUZF6z1ryh7Xmjz920D160YDzD0ZTmrRLsjoyDeYN6JLoVYemB02jLEZmXow12UuOE5DRcoL7im1+U8dRm9a4jKOZ17kQuzelL8SBWGiV16uE6O2FzLnw6Wxjh5dmrEEYOiwsXdFt5OGIDIVcO/P1sfBoXfYtwknApcUwnfrZ+2RGCm+zM+rbzhS47o01c2I1jZ9/ZxxWtue8RAqzm8dpbNayPvu1bwdbMCG/NXcOlIPJn/u5CK7WuvUVySf7H176EU4MD303Hl8u3YOfpKIXQXhPltzcn4mjISZg2a6qMct6c/UdNVOPeOcXEqpO1Eb5653n0fOtrZKsR4vp72aNTB3+8MmtxjdZTnvx+BaqarfrYpiS15kJwaCygy+kZWfe+VWui7X9s2gV/L2eYEEf5+5rtNVGF+84pFp0Hdm6Dddv2Iq3sKVT5DVIychBxvvIhyDXeIFmBChWQfhgVyiJflArUDgWqOsKo9lMSEdg0mI8tJ/QKUrgkU+ZvvI9L4mSgh7dG9lK4JL+t34PdFxNhwOCnT57prjybX7MvFOtOXbz3nDyIj0pfGdUbuox5EGXhlgNYcvQcPhzaBa1dbbEv7Dy+5tqGXPWuHR9k2conU4FqT0kCeIO/OLIfZq/ZiSQGGm18Z6ISpu1nZoBGgkvCR4rxXEhbz6jN1ycNgwAVbf7kJew6dQHzuHg4jVwSHz4FcddvBGc9bThZGiMuqxDfEDUg/h9kDMA7DNrydHFgENEmtPLxwrP+7k+mirJWUoFaokC1O4z2pJoLLtplEDUAACAASURBVMlOjhw+ZgCSNR/bmdE5vH/P9rBkgJJ45LZk7wksPnyO4cma8KfZryZDtpMY+7A3Nk2Jj2jAx5Sd2noh0MOOcQzaMOMC3vghPdAh0BcJfDQZ1MIJy3Yfw25unxwbC09n21pyWWQzpQJPpgLVnpI0Yd6IZp07yuNJMU3IZjy/SDr6ZNFGXGfQjBE7DxWXJIPIATN2Ij8sD8biD1+GNoOWVpFLEpmSibPkkohgr658rl+vSQKOHD2Jkf27YNn0cdh9IgJjuwegKDMTjs4EGSUzbFoWqYBUoMYUqPYIozyX5CaDbUq5JNdRoHBJGI7N4BqRaCaKGDnkkFkyeUhPtFVxSQyaop+3A5/N38YNRiTuv5yKT1ftxGHiED9fzScAJJ19t3oPjoSFY0hXf3YWKXy2X5oDUmNqyRNLBWq5AtUeYewil+QbckkG8ab38XZj4FIcuSSFGEKMQMj5GGW6MpqP2ZKYO5LMNY4whhprsmPpwOSoYiM9ApkbKGHNHRgsdKOwEIGc4jh7uGJD8C7079UJ2xnENbprKzjZNcfW3YcwZng/5jqUJlDV8msmmy8VqDEFqj3COEUuydcL12BYl7bQunMLz3y7mB1CXfjYmqEpIxpnr9zKkGBtBDLyUXBJRJbjxM/moJuvG4Z2D8SmHfvJJYmHKxdJnRnp+cUuckkuEn7UtxPiE5Px/JzV+ONoOLI4HRnZuwPWbt2LdWdja0woeWKpgFSAiQBvT59+91hMNkKyb0g9pAJSgVqmQNXjMMSqJcOb7/5tdkUtU1I2VypQKxSoWmqDwiXJizstuSS14sMhGykVUFNAPKGowmBB4zr9DtxoG1eaRi3llApIBWqbAlXikhjSTk74cJYZXNU2rWR7pQK1WoEb9I+NiqInayVLGZckV3JJKimY3Ewq8DQpoHBJsrMq3SQlDkMYKwkPy6qWqs1+qnr0ym//v66HOL4oVVeo8m2QW0oFakKBf5RLsuiVZx7aRsumejCvIpekg7MN/juoY6W5JP6OVkrC23fj+/xPuCQiZD3Q3kJhkmz7+Hm8N4wO5ncr7jYE2sCWhsbqRUz1Wlqb0j6up1LXypYZ4/rClPk1skgFniQFqh3pKbgkrVp6kkuyAu1oY5dB12YTBmrd5E0hWBtT+gsuSSo202JOjwwNfeaZhCZnworcC8umuiikge0JcihEmrwf+RK6DPYyp/msK7NT3ZuG0rKOdnN5RfDgtreZm3KxoFjhYejzWDE8fpHgkrw2Hq98+jMO0wZQxSVpy7rokqeRQrvAs7TlcyLLQiS5Cct7wfkII+eiMkWY0IoO7IfpU5gtux7JdLMeRjftNe9OwpBPf4Mr7e7saSlXQtu5MLarBx2lWrRwx+I12xDPvJpAS0PFZPdoYgYMaXLj5e6MztYnoMO6hfK1HIbQi6LNYLcWJk1RzBB5Q7Ytmm2L4/5edEl3O34WPgyKi6ROKdTX06iJwji5yrbd5Yiw/PkLqHtrHkfok3f9Bo6RyyG6Nj9yUYS2iYy2jaLPaMXdXWUUkdtIBUAezCMWwSX5v2lj73E6bGxtsJhcksAWrkjhB1yjDm88ckkuX7qMnL2h+IQYgiTmhTTS04Mn80Su0A9y2MCeyKUhsBGNe0tKbtBtu+c9LsnEQV0ULsl5Gu12bNeWOLJimNLufv7qbWjGfJSu9Mxs5+ejcEnGNjeFk6MdSuj/WF+vMRav2oK+3QSXRAtF9Apt09KDXJJZyGAIuyh/xSW5zY5AMDkEKkD4RWoyZX/7zEUI4oijAaE+37w5GZmMQm3apDEOnTgLQ/3GaONqhwiX5njN2xV3aXqrwfiW8ewg5u8MgYGBPgb3bAcHG0vsPnIC39HbQxQrGtn+8MErCsLAiqn+pnTAHvb5b3TK1kbfjn5K0p7o/H5k5Ow3776A0IhLCD0WhpFD+9x3/uj4ZAzs3QUEdeBuAwJ/Vm1DFy8HeNKS/3oencu1dfHr8k0IT8t+xCsud6/NCjxyhyHEE5yOo2cvYiG5JF+zQ7AmlyTsYtw9LkkC80lenLceH4zsiVga+k798Q88Ty6JG7kk1nQWTyWX5GVySf4ztBtaMg2+Ii6Ju7sLoi9cxJebj8KfOMAIEsCy8wrwf8t34gAJbMIibly/Lhj+/g84S8Ph76cMRhda54tMuFRyST5QuCSudLMuxyVpSS7J+FIuydaDodCj+/aCHUdKPw+82c1Zt4M06RWO1aKIdR7hMC7KnOUb2XfdQHsa0ZpbmCMqkv6eOoQzRSXQJ2QAur36uWKV35Kh77rsBG5yNfqFOWvwQX/yPWj7ryqircJy/yd6hFynjis+fAkB9MYs4rGXkMMhEAIfvTQGtzgSa8iRwscL1yGfRK/8m/efP/5KGvTozr2a7chmRxZGd/M/PnoJH/+6Avk0ZO7dvT16+TojnPrJIhWorgKPpcMQJ8+ij6MY7grwUHnehXhPuE0rXBK6aeWT5yFKcRmX5I5Gfdwht0OUAg6llcKb/95CY5nJrmBd3OIwXtxg+4j4M+LNU76UcknqIYWjB1GP2zymhuCS8KeKn6HOJRFu3oJLEkDswahOrSHwBvcKz3OZjth927jjKJ3GNTmqENOP57u2xrHoJLw4ZgAuEEloSbZGej7bV1Z0uN0tUr1yeFOLR1D70/PRlx1GntCAN73oHO6WMw4WdS1hpyCwfgJ5KDoIQVwT07Bc6iES9oSeYrscumCL7dzMyE9VO/+qk9EovBWMQXTWNjQhZoHW/fU5KuraxlPAU5SF7ZiEUsrZn42Uv0kFqqZAtZPPxGnKz4cfmBvzhrMSi4DKzVHKJdl4uJRL0sfZEi3dnZCXns60dXJJ+A3dz8mCXBJvHrOO4tTlamOGDlZGsCcDQ5C0slJTYeNgj35uNjg58y3UY2cgUAA9HM3vcUn2n4zAK1w76U5WicIluZDwUDVErSKJdxRckhNxKXh1/gZ8t+Xwve01eLP935yV6NexLd7kQuzgFvZY+p/JaEPjXUu2qyFhQttJSxOdhYAY3WSKflPiH7VZ1zvEPb7Q3R/D/Txw/KtXaLIvZHhAIeVcYlHUgLySkUEtMYBTCEfCk8KS7scPlm+EGLXY0EZf/fwvdGqJVsQTbNx1GMlknliwI9sTeg5XyHBdve0gTpKpmliuY3uoMPINqcBfKFB9LgkP6qCvg2D6cjo20cYpckIEjMZMpz6ucAqSzWGwHyE7R8jvyOfoIyL5KpLo/VmSn0/ORwtk0i/jyw37cYBsT2+mu7fljbjjWDjySQ37evsx+HM9QsB1wuk0fYXTmO8PnVNgx0FknSzavA/HLiXBoM4t+PImiU28Qi5JHGbvOYFOZIO0cnfA/tBwLAmNggXro3BJyN9wYX2PkV9SGS6JuL8FZyX0VAS6+7jA19Uex8Iv4J1FmxF3NQuOBo3gwzWLjeRp2JLPsiM8Bi0tDdCYjJCXfud6SqAXpz/GeJVZt3eKi9GIAOQ9UfEw1ayrjDbOlnUKzfgkpLWHMzLZeQZRr+9WbMU5MjecOK07fD4WJRxVGbENR1lvczJfDvC1i+zo1M+/IewCPDhV8/NywVW6mn20bi82njiP9g4WaNvCBVl0OV996hLqsMORRSqgUkBySf5lnwUno6b47s1J6DX9m39ZzWV1nwYFqpqt+khTkqdBsJpuQx7XdEJOnK7pasjzSwUqpcAjL3r+VRRkRe9V9Fr5mqq/X34AXfEqQKXa+cRulFZYjI9pRSiLVODfoEC1OwwRcDW0lQsm9m6HlMxcTOJjU01B9S4rzoaNMZ2cET1ySX5dtxs7uQBp2KQRRASjeO3LFdsRSsaoCjUoMATv9AlAe7JFLzFI6pVFW9CD4OV3x/Tlk4W7KOaxf1u1FcFRif8GXWUdpQJPpQLVnpIE2pjg+RF98T0X6eIycrHpnUlK6LOIcGzMR4tTh/dCTFIaVu48onBJbvJR4UbGBew/G435mw/iJ7JBzfh0wMtQD66NdfB8gDvs7O3w1YK1aKrfFN+wY3G2s0ZkcgY++WUZZsxbhZDLKU/lRZCNkgr8WxSodofRzq25YvS7NzpZcfu2NDMml6QRenYNgjnzSASXZOn+MCw7eh5NGtRHd09HoJ4G5u8KweYzlxAuIjf5RCOolQf8SBnfFn4ZHxFgtP9SKp8iXFcemZowytGI0Zwvju6PoDZeuMI4CFmkAlKBmlOg2h1GE+YsaDLsW6wrCC5JjsIl0cKnizchiuDdZo11kXG9RAnWyMgtYH6HJm7dKMYr/dqjPxGLrV3slMjFuTuOYUlIJFL4qDGPwVxpm39i+LQ51u84jMg4Pi5lKPSsZcFwdLDFR/2Cak4peWapgFQA1e4wshgEdKtuPYVBouKSpHJkcK2MS5KanQ8rhUvCEGtySVIZG+D/zizYGzdFGydrBlXFKklUxYxoLOFB7Js1YbyBFkx6vYh1u47ga05Z1pyKwpfr9uAYk7viGBbetJmhvGRSAalADSpQ7UXPXWdjFC7JMOYneDNYKPxirJLUNSygBY6di+Z0JQZjuvgx6pARhgyaOhqdyBTxF5hkdQwaXM9o38Ybk5h30dnFVuGSBJBL4uLphuDNu2FvbY6r2Xn4fHgP6DIQage5JM1dnBERHlGDUslTSwWkAtUeYZxOySKXZDX6t/dB3Zs3MHLmEoVL4slw7iZaGpjNbEk9bU2S1+3xNbkk9Tk1efOXlWjv4YA29LEY+OEvqMs8D0dGb9o308PnO0MRERGFIT2CoMHj9f1yAV5dsAFXGQE5hByTk6fO4Yvtx+UVkwpIBWpQAcklqUHx5amlAjWtQFUjPTWUVUvJJanp6ybPLxWoIQWqFg6pUVBwDXmxp2DOBDFZpAJSgVqmAK0YquJWq3Hjxg14uLnUMpVkc6UCUgGVAlXikhgYGCg+nEpHI4tUQCpQqxQophPc+fPnK91mhUtyIlZySSqtmNxQKvAUKdCAXBLTnMr7vCpxGNXlkqgPSlTLJ3+1jCL2Ec9yVTOnv9pWZKqK99V//i+ul3qWrDiH6rz/i/PJY0oFngQFGoib8SFucBXVr9qBW9YM/f5m6lAY0/VaKTzp8k17cKu+JrIZrLUuIv6+8wlruZ6eDpjE7NYfV23H1EFdse/4Gcw/FF5RveDPeA4fTyecormwLwPDToRHKX//uPlQhds/6ovPB9H7kr3TnINnlUOJbNwX6d8psmTnHzzN8Pe/6toe9exyf6nAv0OBancYjZlL0szcDO/NmKO0VNxOsVkFeG5kX2gzx8SX0Z1x/J9FDEEfB1McjkvHyyN6kyESBcfmlrCj3f7c1dvRiiyN42SFGGhqwImcj5Arpdi2Zkxgs7drjk0HwlCPYeSqv+/gEPzJ2sguKkE0Q8tFdmwj5qTEk0FynuwN1W0tRgeC02HaRBe5ZHocoqelMChWFXOGoXuZkytLg9wQckJsyUSpSx/PPjQGLmadd8Wm4VxMkmI63IHWd0cEU4V2ei3IRtkQnQIv8lLE8URCvyPD3YWRb0jiVVgwA7eQ5r1ZNOvtbG+K4ItXOIKrg262xjiQkIEgOoJratTF2SvZ5I8U3avvvYrJX6QCT7AC1e4wRJuEA/auyFLbfaWNDf908p46fghWbdiJbbEpmPn+Kxjz9gyORvRhT5t/Owtj6BBs1NbXA72DfOH38pcYSG+N1m18EDLz9/vk8rYzR6eOAdizt9T+vxO9PiePGoC1W/eiH4/lRvBRYXY26unqYS65G6fLuBvdHS0wiuyOG7nZsLKxwo/Lg7Hx1AWFFSLKG2MHQI8RqTraDeAWGaPc/M3tbJW/XV2ccJP2/N38WuAGF4S7M6O21Yuf4rkh3dDBxx2H3pmJ4X07Ij8zC0H+regZms6U/CZwowlxM7axgKzKiPhUfPjaZCR/+gu0ySZ5dcIgDKPXqfD9qMtOahKzcPt9zM62zDH9vkbLP6QCT6gC1e4wxBqEeTN9ZOwsHWGIb+JZvy2/18y7wg67DBYgOpZD8VeRnpmNtYdOKRb6wnn7E6bFt/F2Qx9XazgwGzUx5vIDMolBQemxQGqYJiaxs9iy6yBWnriAywQofTr3DxTk5KBHl3bowbyW02Xcjf9v70rga7q29ycySGUkkch8M5DIIAMhCGKmxmppDa2OhtJXij6e0kn91WtpvZa2tE9pa56DkFSKxJgBIaNEZJ4kIpFIIv7fPnHjSqTimvrqLL/7c3PGvb9z9rprr73W+qL4a1+9ORA3OaUYOrCnVAh32ymyVDdtAkOSBA3y84TjGx/AjrU7tFiBfPJgf1xKJX3A91vx9ZTR8GE2rWh3BZedRbsD3Bzhx+LCW2jx9HC0lLhFdoaewGnylNysqoS/lwssaHGlXrgAYzNzsEv4nVOuYawGrk8ltJbZt8lJF6lTtdgfkj+98xqcSVwUn9s4JrZ6wMgbZASeAAJqKwzhK8lgBmq31xbcbjYtjCVv2Uh/C2oAoTK0pF/0Bub/VCpxcYnSYHN3dsDcZUcahEAopLa2FigqKIAZFRULZjCJrSl6dnDFTSogjZtVSGCNDaWM8KXF4uuNgpxcqSy/SJWvaRfQjNMfUW+jmlOPZE4ldG95byupHIRUsu6GJjNxhYjpxK/BRzGO+SzHEy5Bo7QYzvbWcLYwQRGPW/DyCMTEJ8HG3BS5JeUSkdFkTw8k0jI5eCwSU8cMpYWhjc/W78V/po6BIBwSCkaXNUIaoh6QbiyLjMBfEAG1k8+kvnAwaRuwLobyc4shTOwqYX0LN3KLjPJ0gi5/0etLjRI5FHEOfXt0RnlZGTlK8+ofdmuLGLjRSamYvfwXPNevO/rwVz74xBlksw7HLmbAns4qRDq/K8WWBX0qSkoQcvKsRARkQietPi0JcddcMqZF0zJ4p5cPFo/ui3kj+zR4X7FjC+kPAjh9yqfyiSOrWg+/DthP3lMHKgnBlRoaFok8KgvBSxKdWwQXq1bo5uqIP0iFkEM/y4WsAhhQuYnpypFjUYjJyKci0mDBIb0/va+8U0bgr4aA2rwkWuyJabOmOEieDFUx47ZMztXjOLjbOyukehmF5E3dSf4SRwMdRJC/5CrD0JuTbvkg63zG01E6kwN2HkmD0i4X1f7q6omRXV2JRPoCav+/UYnAs8koys6Gp70VZq7bC38HC3TgVCE/Nx+boxJreTfSSBXoRR5Um9am+H7XQbRr3RLxKekoEEV9KGnJqejr6y59/2FnKJrdvIFc1iaN5uC2EH0gGVBRYRFyci/jbEYezNnhBFoShy5kwdfGBCv3HMEx1iR1ItmzB/u5nVMtO+NnkJyeg6I8KgRm3G49GQtLunVSU9Oxl5wkzSvK0N3HFenkSTkXf4HTE01EUwHJIiPwpBD4n+IlMeR8/pWe3mjbri2mfrX2jlWMJwWgfF8ZgacJgfvNVn2wKckDICv8G61okrdzsMa6zXtlZfEAWMqnygg8LgTUdnqKBt5eB6mJ3qzbaOV+Va2kjA4V2xK5QjBpxeY7TlNGgio3Kq/xJ67TureV/5YRkBF4RAiobWGISMgRHdoh8MNJWDX1RVRq38mmXsGRP3OIPzbMGEv6ATHsuTqh9wzWTB+HXfMnohdL8lWpBFKJVRBjAz1p/xCXmpWWCp72yZiB2PPRFCwY1U+qHSqLjICMwJNDQG2F4U9ekkmjn8XnrBKeSEfhzjk1vCQ9GMloxNWI9wb6wcbWBt7tXSWKcjH4AxdMwfH4VHxJLpN55CpxYXFg71aGcKfj0I6UAt9MG4umzfVhyRgNoZBmDg+AeSsTfLzyN9jb22Ju345PDin5zjICMgLqVw1X8pIcYiTnws0HYGXeCpbkJekT4CeFY68MjcDnzBlRiod5C1RxafRrkhiFcrnxGNnIA1zt0JlMZx2cbSVG9ec/+wEZXO0Q0w8txknsDo/ChG/W40jaZZSTAZ1J+PIjkxGQEXiCCKjtwxC5JHfwknDAt2R+xsK1u6RwauGLEHwlSjHivkIeoy1SYylNqqtgxPDwpUHHJIenmJ6ISU2TW0Fe4qhkMqq92tEZ8995FadYlTxIRGrKIiMgI/DEEFB7SlLDS6IpxVlU0bdgxmSsTCqEUkZO3s0OyGNQVesWhtLURPgrtJs1Qz5pCa4zSrNSxZehREJElndysMJPZERTvPAeMtIyMWZQ9ycGlHxjGQEZAUBtC2P/6SR8wfyNMZ3awcOdORykTRQK4KVuXjhyNgEK8qU6K6wkDpJxPg7YcP6SFAg1/8UBSOPg93a0wb/X7kAfVweUk5fkEldMOjMIqyWzPavowxjCDNdeAZ0wgbwkISFHYES+1Yw0lUQ3+enJCMgIPHYE1LYworMLsHj1Jgzwa4+bZdcwbuk6iZfExaIlyZg10YlcqoO6tEdEdAxG9veHg+BdXfgDTHW10MvbBdO//AnpV0pgTzJmRQs9KMh89mxAZxhq3IATU837+/tgGhPBhJIY2tsPKSmp+HTHH48dIPmGMgIyArcRkHlJ5LdBRuApRuB+Iz1lXpKn+GWRuy4j0GAmeQPQ1PCSXIiQeUkaAEjeLCPw90ZArGeqLGfeo7MSL4mHO4OrZJERkBF46hAQNVlymU3eWNGUeElYCEYsdcoiIyAj8HQhIAIic3LONrrTNbwkKTIvSaMRkw+UEfgbIfBYeUlEThlLZD5UqZut2piLq3NOY64rbK5beXPS4aKrD7u/jWmH8pi74a3cdrd993NtdY69G+5VtwxVgZUI6lW+Hg2172527UN+pdTp2lNzzv3ykqgdh6HH0v7rZ45vEFhbRnWKkvuNFcFb0qudAh+P6islnt1LxPH+znbMhK3GN28MhzfLATbitHtdtna/aMM7A7qwivl7/MzE8aUzsZuZuU9KKlhmcPPsl6HXTKe2CYYMrd/6/ivQYNTsplnjG4Xbw2q/vbE+/m/84NrLKZ9f2JLpOMzPzvlvYbSfh/R8lO2823Od2McXz7srMKlfZ7zgYY+ZIwLgS/oHWf6aCKgd6amtpQVPj3bSL3BfRSsWwL3OGpXN6Q+pQgTra04a0Qf5WVnYdSQKhs11YaqvK3GTKERmqokhSsorEMbK3uUcmD1sTGGgqw1Tawu0cVLAy9QAN7g9trAE3uI7w83PFl2DP/lBTHideFIJXCPvx7LpEzBz0Qr8wbqg2ZevQJM//z1tzSSekrTLxYjIKYJrSwPoshSeCXNfinnPo+QXaZRQISnInxLOMoLbdh6ABgfsdbbDgu00Z33QSLZBl3U6+zmYS205QZ6RK6xQPpyp+WHJWZIlYkaFmcXo145skxaD2s7w3toMnNdipbGovGIMa2OBFHKpnGOZwo6tW5DXpRiuTNJrZaCL7KJShAmOFqVviff38nCFDvtSUl5TrFiQLO09EoEW7K83n4WIyW9PbpcqtvNC8TV0JRmUqDmamFMoYenM8H1RqvAGiXTFs7hMPJTSikWJVduZyPOfd7FGLDEUwXUFDPs/mnkZbQ2box2D827q6MDZ2an2fGFttDKlP4y1Sv/5+Q9owXqnc5mR7KywxIfrg6R2NqHJ4WdlQvyao1hwxaTmwtbWGjrMPDqVmIoSlm7s1bcnyxemQMGgvlY8TvDU+JgZwZrZzAWl5UxEzJMyJgMUZjDU1ZFqpt6BU6MernyQugiorTCUNxSDedbEsbhIAqA81tp0bOMI3Z3B6MAiuBkMD795owoBvbsjNiYWWZXRWDhxFBIvXISxsTHaRZ9DRnYenhvaH/mZmbDiyyNWbSaM7I8CDrQzvwZi/NBeLOZ7FXGXsuHf1ReV10oxiQN5xa+7YWxkQPoAZ/T274TLa3fiVdbwVChsUEauyGdMTLFuUyAG9+3GQaaNovx89Ojsg+fnfYWc4hKp+SLhrbq8SppnNCXdgPiV1ObAVJXia+X4Iy6bQfTcrqWBsV3d4O/fGRFL18CW9UIXz5mCY+eSYHoyBofOJGDB7MmkW/iFSkoLVvYKlNGp1MbSlEqvGv04oCMjTsO+bRtE/rQN7741VsrOHbNoFeZNfRkbDhzBS/38kXkpDQZmZtBbvxNB8WkNPltDveaYM3kc1ry9UMrfMSYL3cf/eAXrtgWhFwsOd/BwRiHD8d8kadT4xavxybRxLGSch+qmmnBvX4wFv+6pTQZ8i0x0qu18Y+laLPnXVNZDDSXJVBO0aeuE6f9ejX9NfBEVfAaC7MlIv74FWcXcoPDMQjTNvYIzH32DA1++j/WHo6V2BicvwXxSQyTz+VdrM3nx9/Davg3p3RXZqRelv4UDfvorI5BFbAyjz2PUc4NQWpAHAz5T68MnJPLw5/hcr+TmoERDGyXbD7AIdA0BVoNgyTseCgJqT0lU735D8I5Ex2HOb0G4mMlfDVoRUYmXcCAsgtweN5HCwrjv/nc3BnX2QMKlLExeuQWh4adg38YJndzbIDstDVNWbUfY6bjaF0bJRSIyWcV3F1dnJMUlYNK3GzGXYeUhiWko4sD/cNPvqOZLKubO4wYH4Asqkqm8VjHpCHp7tZXOzUq5iNlrAnlcFZyszaQXUiiHAaQ3CFv5AdZ9MAnju/vg7Wd71AN12uhByA1eibygFTiwdLaUWVu7oiTaxs+P+w5jWDdvjODnUGQMlaERzJjuX5KXgx0hx7CeRYgDD52Ah6MdQs5dhDPpEvozb+ZAZCyLBumzurolWjTXwebwMyRj2o7trIJ+hZXNPRQW9dpTd4Noi5jza9Li2/fR2/hi3U5sjIiHq7sLzpHCITQ8gjww1RjYwQ2WJsaIySxAMNuyMeiwVEJAKXXbKTSQ4GXZfugUZq/dgzwqcNHuzsz9mbBiE7b9fhQlVKYNSVMu12UXFiOTlp4pGeNEO8tojpoYGeJ43EXs2heK40nptadLz5n3FPQP40cOxPXKKizeHIxepJFoUlaKP45G4eipM5jywgBc53EtWWzp8OkE7Np7EAkyt0tDj+Ghb39gC0PZosLSGto/8UsnzHdVucp9MMXtIgAACQxJREFU4m3QpRkraASFiBdCQ/yyM9NVDHgh167XmMjixRHXEdKEJq4QcVwVB7zYHn65FGY0tVVFrCdr8pi80jJpAAnLR5xznVOksoqa64oBILZJbeTx6Vl56DptEfzsW2N0Tx+k0UqqK8s37MH8/2yqtTBe6sKYlVuNE/cTEhyVgHlkUhvSzQeL1myFn7c7dDlIDp6KwdSxQ1BSXEzFVU0uEh0SFxVBj9MKv/bOqCTHSdj5ZLw+uCfWBx/D/Bf6oKUp+U7y8mDB4kIp8Y13/wlsC0nt0NvLGcGs5K5H8iQPcr0oyMmSy6lhPq0/3/eX4tMh3eDZpxvGsNzA8IWraksQ1G2nEof8W89VDHhN5ggJ3PgTz+d340+X4oVCdua9zZlDlEqlIXqSkZmHaYu/x/g+nWDk3xEO4Sfrwg1DVmWjeoEe2fGaEicNYmzN6/QltkKOHI0gmVQkq7JXYDDzmDQNjGASGIytZ5LrXUve8PAReCALQ1m7QjSr3qvNF8bespUY8VKrNalEth8+he58oZ+nc8uHGa6FpBhMScuCqZUVRtHxNbiLl0QzIKwUN859B/BX2NGRVAX8l5eRCYWTE0Z5OSHii1nkQa15eYe72UrnNOG8PIQ8Je8O741h9COYtDbHibgUtqtey6T2iK1xVBDaXFiO4HRn9s+BWM7aHHVFU3CtkB5BW58fzvNzikqkNP3+ThYYSatEuhJ/wc+RREn4Y4JIJ9DVRQFfJxscSMokLaQ5ImMSkMLBIhSG8NdsPHgCvbv5Io10DJVXCjG8e0f8GHIc7dvaI4mUBIeiYqH3zDPSlKuuDGHRoZd9HDG6vYK+C5Ih3TqghBwsoz9eAU9aFqNZQyQpKRmZeYUIOhKJqzebIp9Tr2UThiOGWcXBtDoUlua3tTKvUbedXclZK0QVvQoqj1T+mr8d4IneLM/Ykr6cuqJLB+yEjk6Y0NUDq/75Jr76bTenZdclHTvI1w0j+3RBMC3PAipFM/ol6spl+jG+27QHSZcy6QDvh9MJF3GRPp79hyNwmj6vWPp+5o4dCDsbS+wJPS5ZmaZUSrI8HgTU5iURzbPT08Ke04lQ8H/BN5JDcmEzzvPTORDyyc3h7WzPaUY8H+pVnCe3Rzodk2WkNezh3Q65BYVYsuswDqVkwZV8Hl7tHLCPFbYKyVf65YHj6GDZElb0EUSdjUVaejaWh8XAzUQPvvSNrKGJf+xCOgyqyuHuZIeklDScjE3Bd6zy1Y3cq+5t7cg6Fo1fT8XDXKcJMmhJxNG56KivzUpfKZLz7O5q5DboN3iAhbaG5GOJycqnm6PmjCQ6D214TVcnW0SRJPrGtRIEMtW/NbNsMzKzcZRTJQc9bbKhJSOM36uKCiWKxVz2PYVToxaG+vgtLBpe5oZYy/Y2vV6OEqb3B5H39VRsEgZyGiWO2bb/ECzNTfD72Rr6SOFUdDHUgRetBkFmbcsBn3gxA9rkbtlLC8eRz2ALeVCq83Ohz5IAP4WchCedrR5tFTjLQbcjKg7mtCcDyBPbuqUR3l+1lSTVNdaY6PV1PhfVdgplIJ7FvugEyWdg3kwTsWSPO5dwAQF8fvl0SiYkpSCMJReFCMWsT93qxufWhsxwrTn9Wb0jBOvYV21iJ96VpUFH0ZFOT2/SUGbnF2LpnnAYaNzk88nFlZJS6f9SWojiPhHnL8CRhFBLQ06hJargTz4XwaK3iu/GCU53B3o4wNXRFsmkt1x2MBJNhVkqy30j8D/FS3LfvZNPkBGQEXioCNxvtuoDTUkeasvli8kIyAj85RF4IIUhjECxOqEaDanaY2FG191X92/l8eJaYp/4KI3Le13/L4+u3EAZgb8ZAmorDBG1N9LXFfs/fRs/vTsGN8hQriqCl2T2sB6MTmQEIrWAOL4DHZkb3p8ATwYn1ZW+rBy+bd6b2Dz3NfRwsJSOf6W7F/Z9PAVrZoyDIZfRZJERkBF49AiIVU7Vj+od1VYY3elcfPOFQfhk9RbEpuVix5w3pDDg3vbmMOZy2IyBnWFlZQlPNxeJl6RfG2u8zuhPHS6DtWQEnxBjKpkRjCYUVsrkscOwLjAUB8mK/uaYodLxfRmQ9eF3G3COqxjb5k9CBZfyZJERkBF4dAiIVPdZs2Zh2rRp0kd8V01/V1th+LezY+HfJIRfzMaiLcGwMDOBFfMLunO50Iwe9pWhkViyKai2ZydTs/H60p9RJGIy6FEX0w1zxhoMZEyACO5asOI3bDx6nisYZVJo8+n0XPxj+TqEX8jGVW6r5DblEu2jg0u+sozA042AGSOMJ0+eLCkJ8RHfxTalqB24VcNLUrNOL/hHikrK0YKx/Z/9sluyNIT/QpWXpJSBWqqTFrFIGZdBpfDtBhYPboLItBwc/3YOjFu0wLK1W1Eo8hz4CWckpibDrJet3sAgHrX129P9Fsi9lxFoJAIi4tbOzg5LliyRzrBijJTYphS1FYagFDA3NpXCeauZhGXOxKYMco9cExGWt2IW7tVG0ZCrzLHQ59TEn/6NTpM+g6ejJdZ8NBUhXP8nRwG6TPoEfs42+O5fExH4ziIpCEgWGQEZgUeLgLW1tXQDVWUh/lZbYewnwdAXfXrg5S5ucHNty0CbJBQwSm8sox8PMyfEkQrE2d4KWgwnftW3DWIZuOVmTd5VBhWJHIlyTk2SSxje28EF3x88ic+mMolqyx4mimmhkAFgPgw6GjmsH3btOgAjczNUXq/EFX7udK0+WtDkq8sIPK0I1FUUShzUVhinBS/Jqo0YzzoGmflFGP/jdomXxJHkytHM/BSRm35ujjh26jQGkZCoSXg0+nfxREVhPjpyn/BJZDNK1J2RgZVMD//g6/9iVC9fKVnsw+U/I5QRoDoMpe7d2RNX6MMY/sFyaDH8WxYZARmBJ4dAkxkzZtyMTClEYlGF5IgUvgUt+hS0uLQiMgdrN96extTGSdyRjMDz6kbnqpwi9fD23/x21+vVveIdJ6meUrvjjnvceVnpnqpStz2394lsFUqdAxo+vubMevtvbai3vU47xI3ufUy9kxo+R52L1e9u/Rs+5i1qduMxt/LvdTvtimtonn8ewSEh9Tp2Nyvj/wGXpyHvEEjtWAAAAABJRU5ErkJggg==;" vertex="1" parent="1">
          <mxGeometry x="3551.995172413793" y="353.50379310344834" width="268" height="377" as="geometry" />
        </mxCell>
        <mxCell id="Tr0L8EBG7VE9bzAZ71TH-31" style="edgeStyle=orthogonalEdgeStyle;rounded=0;orthogonalLoop=1;jettySize=auto;html=1;exitX=1;exitY=0.5;exitDx=0;exitDy=0;fillColor=#ffe6cc;strokeColor=#d79b00;" edge="1" parent="1" source="Tr0L8EBG7VE9bzAZ71TH-29">
          <mxGeometry relative="1" as="geometry">
            <mxPoint x="3547.6" y="365.6" as="targetPoint" />
          </mxGeometry>
        </mxCell>
        <mxCell id="Tr0L8EBG7VE9bzAZ71TH-29" value="VodTS" style="rounded=1;whiteSpace=wrap;html=1;" vertex="1" parent="1">
          <mxGeometry x="3373" y="353.5" width="145" height="24" as="geometry" />
        </mxCell>
        <mxCell id="Tr0L8EBG7VE9bzAZ71TH-38" style="edgeStyle=none;rounded=0;orthogonalLoop=1;jettySize=auto;html=1;exitX=0.5;exitY=1;exitDx=0;exitDy=0;fillColor=#ffe6cc;strokeColor=#d79b00;" edge="1" parent="1" source="Tr0L8EBG7VE9bzAZ71TH-33">
          <mxGeometry relative="1" as="geometry">
            <mxPoint x="3574" y="380" as="targetPoint" />
          </mxGeometry>
        </mxCell>
        <mxCell id="Tr0L8EBG7VE9bzAZ71TH-33" value="Paste&lt;br&gt;Timestamp" style="rounded=1;whiteSpace=wrap;html=1;" vertex="1" parent="1">
          <mxGeometry x="3503" y="289" width="92" height="32" as="geometry" />
        </mxCell>
        <mxCell id="Tr0L8EBG7VE9bzAZ71TH-39" style="edgeStyle=none;rounded=0;orthogonalLoop=1;jettySize=auto;html=1;exitX=0.5;exitY=1;exitDx=0;exitDy=0;entryX=0.265;entryY=0.06;entryDx=0;entryDy=0;entryPerimeter=0;fillColor=#ffe6cc;strokeColor=#d79b00;" edge="1" parent="1" source="Tr0L8EBG7VE9bzAZ71TH-35" target="Tr0L8EBG7VE9bzAZ71TH-28">
          <mxGeometry relative="1" as="geometry">
            <mxPoint x="3513.7307692307695" y="435.38461538461536" as="targetPoint" />
          </mxGeometry>
        </mxCell>
        <mxCell id="Tr0L8EBG7VE9bzAZ71TH-35" value="Search LiveTS Repo for Timestamp" style="rounded=1;whiteSpace=wrap;html=1;" vertex="1" parent="1">
          <mxGeometry x="3600" y="289" width="117" height="32" as="geometry" />
        </mxCell>
        <mxCell id="Tr0L8EBG7VE9bzAZ71TH-40" style="edgeStyle=none;rounded=0;orthogonalLoop=1;jettySize=auto;html=1;exitX=0.5;exitY=1;exitDx=0;exitDy=0;entryX=0.466;entryY=0.057;entryDx=0;entryDy=0;entryPerimeter=0;fillColor=#ffe6cc;strokeColor=#d79b00;" edge="1" parent="1" source="Tr0L8EBG7VE9bzAZ71TH-36" target="Tr0L8EBG7VE9bzAZ71TH-28">
          <mxGeometry relative="1" as="geometry">
            <mxPoint x="3490.2692307692305" y="425.96153846153845" as="targetPoint" />
          </mxGeometry>
        </mxCell>
        <mxCell id="Tr0L8EBG7VE9bzAZ71TH-36" value="Search Comments for Timestamp" style="rounded=1;whiteSpace=wrap;html=1;" vertex="1" parent="1">
          <mxGeometry x="3726" y="289" width="112" height="32" as="geometry" />
        </mxCell>
        <mxCell id="Tr0L8EBG7VE9bzAZ71TH-42" style="edgeStyle=none;rounded=0;orthogonalLoop=1;jettySize=auto;html=1;exitX=0;exitY=0.5;exitDx=0;exitDy=0;entryX=0.968;entryY=0.086;entryDx=0;entryDy=0;entryPerimeter=0;fillColor=#ffe6cc;strokeColor=#d79b00;" edge="1" parent="1" source="Tr0L8EBG7VE9bzAZ71TH-41" target="Tr0L8EBG7VE9bzAZ71TH-28">
          <mxGeometry relative="1" as="geometry" />
        </mxCell>
        <mxCell id="Tr0L8EBG7VE9bzAZ71TH-41" value="All Timestamp or Chapter Only Selector" style="rounded=1;whiteSpace=wrap;html=1;" vertex="1" parent="1">
          <mxGeometry x="3841" y="370" width="127" height="32" as="geometry" />
        </mxCell>
        <mxCell id="Tr0L8EBG7VE9bzAZ71TH-44" style="edgeStyle=none;rounded=0;orthogonalLoop=1;jettySize=auto;html=1;exitX=1;exitY=0.5;exitDx=0;exitDy=0;entryX=-0.002;entryY=0.151;entryDx=0;entryDy=0;entryPerimeter=0;fillColor=#ffe6cc;strokeColor=#d79b00;" edge="1" parent="1" source="Tr0L8EBG7VE9bzAZ71TH-43" target="Tr0L8EBG7VE9bzAZ71TH-28">
          <mxGeometry relative="1" as="geometry" />
        </mxCell>
        <mxCell id="Tr0L8EBG7VE9bzAZ71TH-43" value="Timestamp&lt;br&gt;Green = Past&lt;br&gt;Blue = Future" style="rounded=1;whiteSpace=wrap;html=1;" vertex="1" parent="1">
          <mxGeometry x="3376" y="390" width="145" height="43" as="geometry" />
        </mxCell>
      </root>
    </mxGraphModel>
  </diagram>
</mxfile>
